<svg width="60" height="60" viewBox="0 0 60 60" fill="none" xmlns="http://www.w3.org/2000/svg">
<g clip-path="url(#clip0_2715_3504)">
<path d="M45.3124 22.2493C45.1435 13.6176 37.8207 6.76156 28.9522 6.92598C20.3202 7.08217 13.3689 13.856 13.2085 22.2493C13.2085 22.2904 13.2 22.3315 13.2 22.3644V22.6028V50.8573C13.2 51.8191 14.0024 52.5918 14.9822 52.5918C15.9619 52.5918 16.7643 51.8109 16.7643 50.8573V45.8098C16.7643 44.848 17.5667 44.0752 18.5465 44.0752C19.5262 44.0752 20.3286 44.8562 20.3286 45.8098V48.202C20.3539 49.1638 21.1648 49.9201 22.153 49.9037C23.1074 49.8872 23.876 49.1309 23.9013 48.202V45.8098C23.9013 44.848 24.7037 44.0752 25.6835 44.0752C26.6717 44.0752 27.4656 44.8562 27.4656 45.8098V46.4674C27.4656 47.4293 28.268 48.202 29.2478 48.202C30.236 48.202 31.0299 47.421 31.0299 46.4674V45.8098C31.0553 44.848 31.8661 44.0917 32.8543 44.1081C33.8087 44.1245 34.5773 44.8809 34.6027 45.8098V48.202C34.6027 49.1638 35.405 49.9366 36.3848 49.9366C37.3646 49.9366 38.1838 49.172 38.1838 48.2102V45.818C38.1838 44.8562 38.9862 44.0834 39.966 44.0834C40.9542 44.0834 41.7481 44.8644 41.7481 45.818V50.8655C41.7481 51.8273 42.5505 52.6001 43.5303 52.6001C44.51 52.6001 45.3124 51.8191 45.3124 50.8655V22.3726C45.3209 22.3315 45.3209 22.2904 45.3124 22.2493ZM23.3354 24.7566C21.756 24.7566 20.4806 23.3344 20.4806 21.567C20.4806 19.7996 21.7644 18.3774 23.3354 18.3774C24.9064 18.3774 26.1903 19.7996 26.1903 21.567C26.1903 23.3344 24.9149 24.7566 23.3354 24.7566ZM29.3829 29.2616C27.9471 29.2616 26.7899 28.4313 26.7899 27.4037C26.7899 26.3761 27.9555 27.0009 29.3829 27.0009C30.8103 27.0009 31.9759 26.3843 31.9759 27.4037C31.9759 28.4231 30.8188 29.2533 29.3829 29.2616ZM35.1854 24.7566C33.606 24.7566 32.3306 23.3344 32.3306 21.567C32.3306 19.7996 33.606 18.3774 35.1854 18.3774C36.7649 18.3774 38.0403 19.7996 38.0403 21.567C38.0403 23.3344 36.7564 24.7566 35.1854 24.7566Z" fill="url(#paint0_linear_2715_3504)"/>
</g>
<rect x="0.5" y="0.5" width="59" height="59" rx="7.5" stroke="#DEDEDE"/>
<defs>
<linearGradient id="paint0_linear_2715_3504" x1="12.042" y1="50.5833" x2="52.9027" y2="30.9143" gradientUnits="userSpaceOnUse">
<stop stop-color="#30BAC6"/>
<stop offset="1" stop-color="#B6509E"/>
</linearGradient>
<clipPath id="clip0_2715_3504">
<rect width="60" height="60" rx="8" fill="white"/>
</clipPath>
</defs>
</svg>
