<svg width="24" height="24" viewBox="0 0 24 24" fill="none" xmlns="http://www.w3.org/2000/svg">
<g clip-path="url(#clip0_2715_5392)">
<path opacity="0.5" d="M3 7.5H17C19.2091 7.5 21 9.29086 21 11.5V17.5C21 19.7091 19.2091 21.5 17 21.5H7C4.79086 21.5 3 19.7091 3 17.5V7.5Z" fill="#7F56D9"/>
<path opacity="0.3" d="M3 8.12026C3 7.17563 3.66092 6.3598 4.58499 6.16379L17.085 3.51227C18.3289 3.24841 19.5 4.19715 19.5 5.46874V12.9448C19.5 14.7486 18.2927 16.3293 16.5525 16.8039L8.05247 19.1221C5.50791 19.816 3 17.9005 3 15.263V8.12026Z" fill="#7F56D9"/>
<path d="M12 14.5C12 12.8431 13.3431 11.5 15 11.5H21V17.5H15C13.3431 17.5 12 16.1569 12 14.5Z" fill="#7F56D9"/>
</g>
<defs>
<clipPath id="clip0_2715_5392">
<rect width="24" height="24" fill="white"/>
</clipPath>
</defs>
</svg>
