<svg width="24" height="24" viewBox="0 0 24 24" fill="none" xmlns="http://www.w3.org/2000/svg">
<g clip-path="url(#clip0_2715_4286)">
<path fill-rule="evenodd" clip-rule="evenodd" d="M18.5 5.46862V5.46852C18.5 4.83273 17.9145 4.35836 17.2925 4.49029L4.7925 7.14181C4.5573 7.19169 4.3562 7.32189 4.21543 7.5H4.2155C4.29496 7.3995 4.39362 7.31425 4.50678 7.25009C4.59411 7.20058 4.69007 7.16363 4.7925 7.1419L17.2925 4.49038C17.9145 4.35845 18.5 4.83282 18.5 5.46862ZM18.25 5.46862V7.43696C17.8546 7.31544 17.4347 7.25009 17 7.25009H5.48723L17.3444 4.73494C17.8108 4.63599 18.25 4.99177 18.25 5.46862ZM19.75 5.46862V8.25962C20.6673 9.03883 21.25 10.2015 21.25 11.5001V17.5001C21.25 19.8473 19.3472 21.7501 17 21.7501H7C4.65279 21.7501 2.75 19.8473 2.75 17.5001V8.12013C2.75 7.05743 3.49354 6.13962 4.53312 5.91911L17.0331 3.26759C18.4325 2.97075 19.75 4.03808 19.75 5.46862ZM4.25 8.75009H17C18.4345 8.75009 19.6125 9.84847 19.7388 11.2501H15C13.2051 11.2501 11.75 12.7052 11.75 14.5001C11.75 16.295 13.2051 17.7501 15 17.7501H19.7388C19.6125 19.1517 18.4345 20.2501 17 20.2501H7C5.48122 20.2501 4.25 19.0189 4.25 17.5001V8.75009ZM17 8.50009C18.5727 8.50009 19.8627 9.71021 19.9897 11.2501C19.8627 9.71017 18.5727 8.5 17 8.5H4V8.50009H17ZM15 17.5001H20C20 17.5001 20 17.5 20 17.5H15C13.3431 17.5 12 16.1569 12 14.5C12 14.5 12 14.5001 12 14.5001C12 16.1569 13.3431 17.5001 15 17.5001ZM15 12.7501H19.75V16.2501H15C14.0335 16.2501 13.25 15.4666 13.25 14.5001C13.25 13.5336 14.0335 12.7501 15 12.7501ZM13.0055 14.351C13.0817 13.3161 13.9456 12.5001 15 12.5001H20V12.5H15C13.9455 12.5 13.0817 13.316 13.0055 14.351ZM20.9793 17.9091C20.7745 19.9261 19.071 21.5 17 21.5H7C4.79086 21.5 3 19.7091 3 17.5V17.5001C3 19.7092 4.79086 21.5001 7 21.5001H17C19.0711 21.5001 20.7745 19.9261 20.9793 17.9091Z" fill="black"/>
</g>
<defs>
<clipPath id="clip0_2715_4286">
<rect width="24" height="24" fill="white"/>
</clipPath>
</defs>
</svg>
