<svg width="24" height="24" viewBox="0 0 24 24" fill="none" xmlns="http://www.w3.org/2000/svg">
<path d="M10 12.25H4C3.9337 12.25 3.87011 12.2237 3.82322 12.1768C3.77634 12.1299 3.75 12.0663 3.75 12V4C3.75 3.9337 3.77634 3.87011 3.82322 3.82322C3.87011 3.77634 3.9337 3.75 4 3.75H10C10.0663 3.75 10.1299 3.77634 10.1768 3.82322C10.2237 3.87011 10.25 3.9337 10.25 4V12C10.25 12.0663 10.2237 12.1299 10.1768 12.1768C10.1299 12.2237 10.0663 12.25 10 12.25ZM3.82322 20.1768C3.77634 20.1299 3.75 20.0663 3.75 20V16C3.75 15.9337 3.77634 15.8701 3.82322 15.8232C3.87011 15.7763 3.9337 15.75 4 15.75H10C10.0663 15.75 10.1299 15.7763 10.1768 15.8232C10.2237 15.8701 10.25 15.9337 10.25 16V20C10.25 20.0663 10.2237 20.1299 10.1768 20.1768C10.1299 20.2237 10.0663 20.25 10 20.25H4C3.93369 20.25 3.87011 20.2237 3.82322 20.1768ZM13.8232 20.1768C13.7763 20.1299 13.75 20.0663 13.75 20V13C13.75 12.9337 13.7763 12.8701 13.8232 12.8232C13.8701 12.7763 13.9337 12.75 14 12.75H20C20.0663 12.75 20.1299 12.7763 20.1768 12.8232C20.2237 12.8701 20.25 12.9337 20.25 13V20C20.25 20.0663 20.2237 20.1299 20.1768 20.1768C20.1299 20.2237 20.0663 20.25 20 20.25H14C13.9337 20.25 13.8701 20.2237 13.8232 20.1768ZM20 9.25H14C13.9337 9.25 13.8701 9.22366 13.8232 9.17678C13.7763 9.12989 13.75 9.0663 13.75 9V4C13.75 3.9337 13.7763 3.87011 13.8232 3.82322C13.8701 3.77634 13.9337 3.75 14 3.75H20C20.0663 3.75 20.1299 3.77634 20.1768 3.82322C20.2237 3.87011 20.25 3.93369 20.25 4V9C20.25 9.06631 20.2237 9.12989 20.1768 9.17678C20.1299 9.22366 20.0663 9.25 20 9.25Z" stroke="black" stroke-width="1.5"/>
</svg>
