<svg width="24" height="24" viewBox="0 0 24 24" fill="none" xmlns="http://www.w3.org/2000/svg">
<g clip-path="url(#clip0_2716_8096)">
<path d="M21.0573 14.1948L21.0569 14.1943L20.2711 13.3504L20.035 13.0968L20.0677 12.8157L20.0672 12.8093L20.0729 12.7467C20.0883 12.5746 20.0988 12.3991 20.1058 12.2203C20.1061 12.2095 20.1061 12.1948 20.1059 12.1677L20.1058 12.1598L21.0573 14.1948ZM21.0573 14.1948C21.1298 14.2725 21.2195 14.3617 21.2991 14.4409C21.3324 14.474 21.364 14.5053 21.3917 14.5334C21.5 14.6426 21.5874 14.7363 21.654 14.8223C21.6866 14.8644 21.708 14.8969 21.7219 14.9205L20.9233 16.8388C20.8967 16.8456 20.8581 16.8535 20.8046 16.8601C20.6966 16.8735 20.5683 16.8776 20.4146 16.8778C20.3748 16.8779 20.3299 16.8776 20.2824 16.8773C20.1705 16.8767 20.0445 16.8759 19.9391 16.8792L19.9384 16.8792L18.7862 16.9163L18.4484 16.9271L18.2638 17.15L18.2269 17.1825L18.2037 17.2159L18.1831 17.2407C18.0914 17.351 17.9947 17.4592 17.8953 17.566C17.8557 17.6072 17.8253 17.6371 17.7899 17.6719C17.7618 17.6996 17.7305 17.7304 17.6887 17.7725C17.6275 17.832 17.6113 17.8503 17.6011 17.8619C17.5924 17.8716 17.588 17.8765 17.5646 17.8973L17.5399 17.9191L17.528 17.9317C17.5277 17.932 17.5274 17.9322 17.5271 17.9325L17.4994 17.9564C17.4928 17.9621 17.4851 17.9689 17.4766 17.9766C17.4726 17.9799 17.4677 17.9839 17.4626 17.9882C17.4482 18.0005 17.4268 18.0191 17.4022 18.0438C17.3184 18.1201 17.2395 18.1907 17.1603 18.2568L16.9027 18.4717L16.8912 18.8069L16.8516 19.956M21.0573 14.1948L20.1059 12.0675C20.1073 11.9353 20.1054 11.8098 20.0996 11.6862L20.0996 11.6849C20.0971 11.6295 20.0941 11.5774 20.0904 11.52L20.0897 11.5088L20.0893 11.4977C20.0863 11.4126 20.082 11.3292 20.0756 11.241L20.052 10.9129L20.2772 10.6733L21.0649 9.83558C21.1374 9.75839 21.227 9.66968 21.3067 9.59086C21.3406 9.55733 21.3727 9.52559 21.4009 9.49729C21.5095 9.38826 21.597 9.29478 21.6637 9.20913C21.6969 9.16634 21.7186 9.13407 21.7324 9.11104L20.9406 7.18964C20.9147 7.18316 20.877 7.17571 20.8239 7.16899C20.7165 7.15537 20.5886 7.15098 20.4347 7.15037C20.3956 7.15021 20.3516 7.15035 20.3051 7.15051C20.1922 7.15088 20.0647 7.1513 19.9572 7.14755L19.9563 7.14752L18.8058 7.10602L18.4718 7.09397L18.2575 6.83758C18.2075 6.77783 18.1609 6.72679 18.1041 6.66456C18.0742 6.63181 18.0414 6.59595 18.0039 6.55409C17.9935 6.54246 17.985 6.53234 17.9791 6.52517C17.9602 6.5041 17.9446 6.48567 17.9359 6.47535L17.9328 6.4717C17.9253 6.46286 17.9215 6.45858 17.9202 6.45706L17.9146 6.45135L17.9066 6.44258C17.8809 6.41468 17.8734 6.40777 17.8613 6.39672C17.8475 6.38413 17.8279 6.36618 17.7689 6.30566C17.7517 6.28835 17.7355 6.27193 17.72 6.25622C17.6639 6.19955 17.6169 6.15203 17.5673 6.10488L17.5636 6.10144L17.5636 6.10142C17.4635 6.00505 17.3566 5.91244 17.2332 5.80559C17.2278 5.80144 17.2217 5.79668 17.2151 5.79139L17.1879 5.76939L17.1628 5.74494C17.1511 5.7335 17.1415 5.72356 17.135 5.71659L17.1278 5.70884L16.9263 5.50737L16.9168 5.21095L16.8796 4.05841L16.8795 4.05741C16.8763 3.9517 16.8771 3.82564 16.8778 3.71366C16.8781 3.66642 16.8784 3.62168 16.8783 3.58204C16.8782 3.42849 16.8741 3.30055 16.8608 3.19285C16.8543 3.14011 16.8466 3.10195 16.8399 3.07552L14.922 2.27736C14.8984 2.29127 14.8656 2.31287 14.8232 2.34575C14.7372 2.41234 14.6434 2.49976 14.5342 2.60793C14.506 2.63585 14.4744 2.66759 14.4411 2.7011C14.3621 2.78057 14.2731 2.87002 14.1958 2.9422L13.3527 3.72936L13.1042 3.96129L12.7661 3.92741C12.5994 3.91072 12.4294 3.90161 12.2473 3.8946L12.2467 3.89458C12.2234 3.89366 12.202 3.89383 12.1612 3.89415C12.1491 3.89425 12.1353 3.89436 12.1193 3.89445L12.1083 3.89452L12.1083 3.89444C12.071 3.89412 12.0373 3.89368 12.006 3.89326C11.9186 3.8921 11.8504 3.8912 11.776 3.89408L11.7708 3.89428L11.7708 3.89426C11.6289 3.89877 11.4854 3.90768 11.3407 3.92024L11.3275 3.92139L11.3143 3.92207C11.3038 3.92261 11.2945 3.92296 11.2874 3.9232L10.9554 3.9886L10.6746 3.72428L9.83763 2.93625C9.83736 2.93599 9.83708 2.93573 9.83681 2.93548C9.75849 2.86218 9.6691 2.7719 9.58983 2.69185C9.55726 2.65896 9.52641 2.6278 9.49873 2.60025C9.38955 2.49157 9.29594 2.40384 9.21005 2.33696C9.16697 2.30342 9.1345 2.28162 9.11134 2.26772L7.19103 3.05909C7.18454 3.08511 7.17706 3.12299 7.17034 3.17626C7.15672 3.2841 7.15234 3.41216 7.15167 3.56635C7.1515 3.60461 7.15161 3.6474 7.15172 3.69254C7.15202 3.80632 7.15235 3.93506 7.14835 4.04404C7.14835 4.04418 7.14834 4.04431 7.14834 4.04444L7.10756 5.19557L7.09491 5.55288L6.83948 5.74533L6.82535 5.75925L6.80139 5.77922C6.67574 5.88396 6.55412 5.99067 6.4371 6.10037C6.40562 6.1314 6.37533 6.1622 6.34045 6.19766C6.33043 6.20785 6.32003 6.21842 6.30911 6.2295L6.30376 6.23493L6.2983 6.24025C6.21037 6.3259 6.12722 6.40936 6.05018 6.49225C6.02764 6.51688 6.01105 6.53619 5.98866 6.56225C5.97334 6.58008 5.9553 6.60108 5.93077 6.62911L5.92442 6.63637L5.91788 6.64346C5.8578 6.70867 5.80926 6.76208 5.7638 6.81645L5.54786 7.07468L5.2114 7.08498L4.05865 7.12026C4.0585 7.12027 4.05834 7.12027 4.05818 7.12028C3.9524 7.12357 3.8264 7.12279 3.71449 7.1221C3.66736 7.12181 3.62274 7.12153 3.58317 7.12158C3.4296 7.12178 3.30166 7.12584 3.19396 7.13915C3.14118 7.14568 3.10301 7.15337 3.07657 7.16009L2.27783 9.07846C2.29163 9.10146 2.3131 9.13351 2.34591 9.17586C2.41234 9.26159 2.49959 9.35513 2.60771 9.46418C2.63545 9.49217 2.66696 9.52349 2.70023 9.55656C2.77983 9.63567 2.86952 9.72482 2.942 9.80249L3.72933 10.6458L3.96049 10.8934L3.92757 11.2305C3.91875 11.3209 3.91405 11.4093 3.90828 11.5177C3.90726 11.537 3.9062 11.5569 3.90508 11.5776C3.90477 11.5876 3.90435 11.596 3.90397 11.6026L3.90362 11.6079L3.90289 11.6231C3.89275 11.8358 3.88828 12.0366 3.895 12.2308C3.89734 12.2936 3.90125 12.3527 3.90595 12.4238C3.9075 12.4472 3.90913 12.4719 3.91082 12.4985C3.91599 12.5708 3.91729 12.604 3.9183 12.6298C3.9193 12.6556 3.92002 12.674 3.92404 12.7167L3.92945 12.7742L3.92938 12.7754L3.96381 13.0681L3.72517 13.3225L2.93635 14.1633C2.93628 14.1634 2.93622 14.1634 2.93615 14.1635C2.86246 14.2421 2.77163 14.3318 2.69118 14.4113C2.65845 14.4436 2.62743 14.4742 2.59999 14.5017C2.49122 14.6107 2.40347 14.704 2.3366 14.7897C2.30347 14.8321 2.28183 14.8642 2.26793 14.8872L3.05939 16.8077C3.08548 16.8142 3.12367 16.8219 3.17757 16.8288C3.2854 16.8425 3.41349 16.847 3.56752 16.8478C3.60642 16.848 3.65009 16.8479 3.69619 16.8478C3.80905 16.8476 3.93645 16.8474 4.04397 16.8513C4.04427 16.8513 4.04457 16.8513 4.04487 16.8513L5.19444 16.8903L5.57446 16.9032L5.76449 17.1819C5.76924 17.1876 5.77427 17.1937 5.77953 17.2004C5.8823 17.3233 5.99229 17.4461 6.11096 17.5741C6.11784 17.5815 6.12749 17.5912 6.1507 17.6135L6.15682 17.6194C6.17609 17.6379 6.20622 17.6669 6.23664 17.6984C6.32303 17.7861 6.40551 17.8681 6.48843 17.9463C6.49042 17.948 6.49245 17.9498 6.49451 17.9516C6.53439 17.9861 6.58581 18.0306 6.63591 18.0767C6.66027 18.0983 6.68079 18.1166 6.69886 18.1328C6.74174 18.1712 6.77085 18.1972 6.80508 18.2247L7.0746 18.4411L7.08513 18.7866L7.12023 19.9389C7.12024 19.9391 7.12025 19.9394 7.12026 19.9397C7.12356 20.0452 7.12284 20.1709 7.1222 20.2827C7.12193 20.33 7.12167 20.3748 7.12174 20.4145C7.12201 20.5683 7.12614 20.6965 7.13953 20.8046C7.14616 20.8581 7.15398 20.8967 7.16081 20.9234L9.0794 21.722C9.10234 21.7082 9.13429 21.6868 9.17647 21.6541C9.26217 21.5876 9.35567 21.5004 9.46473 21.3922C9.4926 21.3645 9.52374 21.3332 9.55663 21.3001C9.63586 21.2203 9.72521 21.1304 9.80316 21.0576L9.80389 21.057L10.648 20.2714L10.8699 20.0649L11.1515 20.0702C11.1516 20.0702 11.1517 20.0702 11.1519 20.0701C11.1633 20.0697 11.1802 20.0693 11.2004 20.0697L11.2349 20.0703L11.2692 20.0741C11.3371 20.0817 11.4033 20.0849 11.4954 20.0895C11.5123 20.0904 11.5302 20.0913 11.5491 20.0922L11.5617 20.0929L11.574 20.0939C11.5743 20.0939 11.5755 20.094 11.5776 20.0941L11.5966 20.0951L11.5977 20.0952C11.6089 20.0957 11.6288 20.0967 11.6525 20.0987C11.6794 20.0998 11.7038 20.1011 11.7224 20.1022C11.7464 20.1036 11.7613 20.1044 11.7745 20.105C11.8003 20.1054 11.8151 20.1052 11.8353 20.1049C11.8556 20.1046 11.8812 20.1042 11.9289 20.1043L11.9365 20.1044L11.9441 20.1045C12.0631 20.1073 12.1861 20.1049 12.3134 20.0991L12.3222 20.0987L12.3222 20.0987C12.3539 20.0977 12.3808 20.096 12.4167 20.0937C12.4368 20.0924 12.4597 20.091 12.4878 20.0894L12.4981 20.0888L12.4981 20.0889C12.5893 20.0849 12.6769 20.0804 12.7661 20.0752L13.0879 20.0562L13.3231 20.2765L14.1632 21.0634L14.164 21.0642C14.2422 21.1376 14.3315 21.2281 14.4108 21.3084C14.4436 21.3417 14.4746 21.3731 14.5025 21.4009C14.6114 21.5097 14.7047 21.5973 14.7901 21.664C14.8321 21.6968 14.864 21.7183 14.8868 21.7321L16.8082 20.9403C16.8148 20.9143 16.8224 20.8763 16.8293 20.8225C16.8431 20.7149 16.8476 20.587 16.8484 20.4331C16.8486 20.3935 16.8485 20.3489 16.8484 20.3017C16.8481 20.1893 16.8478 20.0625 16.8516 19.956M16.8516 19.956L17.6011 19.9823L16.8516 19.9565L16.8516 19.956ZM3.01091 16.791C3.01125 16.7908 3.01456 16.7921 3.01986 16.7954C3.01323 16.7928 3.01058 16.7911 3.01091 16.791ZM2.24492 14.9336C2.24457 14.9337 2.24529 14.9307 2.24816 14.9241C2.24671 14.9302 2.24528 14.9335 2.24492 14.9336ZM2.25488 9.03175C2.25523 9.03187 2.25665 9.03517 2.25808 9.04128C2.25524 9.03469 2.25453 9.03164 2.25488 9.03175ZM3.02786 7.17613C3.02788 7.17612 3.02791 7.17611 3.02793 7.1761C3.02788 7.17612 3.02786 7.17613 3.02786 7.17613L3.02786 7.17613ZM7.20775 3.01002C7.20792 3.01036 7.20659 3.01371 7.20327 3.01906C7.20592 3.01236 7.20759 3.00969 7.20775 3.01002ZM9.07471 2.24825C9.06864 2.24683 9.06538 2.24542 9.06526 2.24507C9.06515 2.24472 9.06818 2.24543 9.07471 2.24825ZM16.9283 3.11228C16.9282 3.11227 16.9282 3.11225 16.9281 3.11223L16.9283 3.11228ZM17.2746 5.83506C17.2741 5.83473 17.2729 5.83393 17.2715 5.83297L17.2727 5.83376L17.2746 5.83506ZM20.9894 7.2063C20.989 7.20647 20.9857 7.20514 20.9803 7.20181C20.987 7.20447 20.9897 7.20613 20.9894 7.2063ZM21.7549 9.06513C21.7553 9.06502 21.7546 9.06806 21.7517 9.07461C21.7532 9.06852 21.7546 9.06524 21.7549 9.06513ZM9.04216 21.7418C9.03555 21.7447 9.03249 21.7454 9.03261 21.7451C9.03273 21.7447 9.03604 21.7433 9.04216 21.7418ZM9.16675 21.7584L9.16624 21.7582C9.16642 21.7583 9.1666 21.7583 9.16678 21.7584L9.16675 21.7584ZM14.9236 21.7518C14.9298 21.7533 14.9331 21.7547 14.9332 21.7551C14.9333 21.7554 14.9303 21.7547 14.9236 21.7518ZM16.7961 20.9796C16.7934 20.9862 16.7917 20.9889 16.7916 20.9886C16.7914 20.9882 16.7927 20.9849 16.7961 20.9796Z" stroke="black" stroke-width="1.5"/>
<path d="M15.9168 12.0001C15.9168 14.1631 14.1631 15.9168 12.0001 15.9168C9.83709 15.9168 8.08344 14.1631 8.08344 12.0001C8.08344 9.83709 9.83709 8.08344 12.0001 8.08344C14.1631 8.08344 15.9168 9.83709 15.9168 12.0001Z" fill="white" stroke="black" stroke-width="1.5" stroke-linecap="round" stroke-linejoin="round"/>
</g>
<defs>
<clipPath id="clip0_2716_8096">
<rect width="24" height="24" fill="white"/>
</clipPath>
</defs>
</svg>
