<svg width="24" height="24" viewBox="0 0 24 24" fill="none" xmlns="http://www.w3.org/2000/svg">
<g clip-path="url(#clip0_2715_5041)">
<path fill-rule="evenodd" clip-rule="evenodd" d="M20.4 12.7993L21.1484 13.6031C21.208 13.667 21.276 13.7346 21.3469 13.8051C21.6977 14.1537 22.1199 14.5735 21.9531 14.9725L21.1229 16.9667C20.9568 17.366 20.3602 17.3623 19.8652 17.3593C19.7657 17.3587 19.6703 17.3581 19.5833 17.3608L18.486 17.3961C18.4812 17.4018 18.4761 17.4067 18.4678 17.4141C18.4581 17.4281 18.4493 17.4371 18.4379 17.4477C18.3386 17.5673 18.2357 17.6821 18.1336 17.7918C18.0912 17.8359 18.0478 17.8788 18.0048 17.9212C17.9764 17.9494 17.9481 17.9773 17.9205 18.0052C17.902 18.0232 17.8838 18.0419 17.8655 18.0608C17.836 18.0912 17.806 18.1221 17.7732 18.1511C17.758 18.1673 17.7405 18.1822 17.7226 18.1976C17.7098 18.2086 17.6966 18.2199 17.6839 18.232C17.6806 18.2347 17.6773 18.2374 17.674 18.2401C17.6637 18.2484 17.6533 18.2568 17.644 18.2676C17.5566 18.3473 17.4661 18.429 17.3721 18.5073L17.3344 19.6022C17.3313 19.69 17.3315 19.7862 17.3318 19.8863C17.3331 20.382 17.3346 20.9757 16.9331 21.1413L14.9392 21.963C14.5387 22.1283 14.1226 21.7066 13.7747 21.3539C13.7041 21.2823 13.6362 21.2136 13.5719 21.1531L12.7718 20.4037C12.6829 20.4089 12.5958 20.4133 12.5054 20.4173C12.4882 20.4183 12.4707 20.4194 12.4532 20.4205C12.4126 20.423 12.3715 20.4256 12.3311 20.427C12.1982 20.433 12.0641 20.4358 11.9301 20.4327C11.9085 20.4326 11.8868 20.4328 11.8652 20.4331C11.8318 20.4334 11.7984 20.4337 11.765 20.433C11.743 20.4323 11.7211 20.431 11.699 20.4297C11.6743 20.4283 11.6494 20.4269 11.6239 20.4261C11.6078 20.4244 11.5914 20.4236 11.5748 20.4228C11.5614 20.4221 11.5478 20.4214 11.534 20.4202C11.5188 20.4195 11.5035 20.4187 11.4882 20.4179C11.4008 20.4136 11.3133 20.4093 11.2252 20.3996C11.2208 20.3995 11.2165 20.3997 11.2121 20.4C11.2078 20.4002 11.2034 20.4005 11.199 20.4004L10.3951 21.1486C10.331 21.2084 10.2633 21.2766 10.1927 21.3476C9.84455 21.6982 9.42639 22.1194 9.02715 21.9531L7.03292 21.123C6.63376 20.9568 6.63731 20.3606 6.64025 19.8657C6.64085 19.766 6.64142 19.6705 6.63867 19.5833L6.60521 18.4852C6.55694 18.4464 6.50976 18.4042 6.46211 18.3616C6.44566 18.3469 6.42914 18.3321 6.41251 18.3174C6.37222 18.2801 6.33031 18.2438 6.28993 18.2089C6.28396 18.2037 6.27802 18.1986 6.27213 18.1934C6.17898 18.106 6.08894 18.0163 5.99956 17.9256C5.97975 17.905 5.95957 17.8856 5.93942 17.8662C5.91535 17.843 5.89133 17.8198 5.86803 17.7948C5.74635 17.6636 5.62958 17.5332 5.51839 17.3997C5.51451 17.3942 5.5104 17.3899 5.50635 17.3856C5.50216 17.3812 5.49803 17.3768 5.49428 17.3713L4.39761 17.3341C4.30925 17.3309 4.2123 17.3311 4.11125 17.3313C3.61662 17.3324 3.02366 17.3337 2.85848 16.9328L2.03684 14.939C1.87195 14.539 2.29366 14.1227 2.64545 13.7754C2.71737 13.7044 2.78637 13.6363 2.84684 13.5718L3.59828 12.7708C3.59762 12.7652 3.59697 12.7577 3.59746 12.7495C3.59331 12.7054 3.59104 12.6608 3.58876 12.6162C3.58717 12.5851 3.58558 12.5539 3.58336 12.523C3.58198 12.5013 3.58055 12.4797 3.57912 12.4581C3.57442 12.3872 3.56976 12.3168 3.56712 12.2453C3.55974 12.0331 3.56482 11.8203 3.57499 11.6071C3.57482 11.601 3.57531 11.5948 3.5758 11.5886C3.57626 11.5829 3.57671 11.5771 3.57663 11.5715C3.5778 11.5502 3.57892 11.5289 3.58004 11.5078C3.58555 11.4038 3.59099 11.301 3.60107 11.1977L2.8511 10.3944C2.79144 10.3305 2.72345 10.263 2.65257 10.1925C2.30199 9.84425 1.88066 9.42566 2.04668 9.02636L2.87701 7.03213C3.04296 6.63322 3.63751 6.63701 4.13191 6.64017C4.23163 6.64081 4.32727 6.64142 4.41451 6.63869L5.51281 6.60507C5.56808 6.53898 5.62449 6.47715 5.68222 6.41451C5.69642 6.39827 5.71037 6.38208 5.72427 6.36593C5.75195 6.33379 5.77946 6.30184 5.8085 6.27019C5.89362 6.17851 5.98267 6.08929 6.07139 6.00287C6.08047 5.99366 6.08952 5.98445 6.09856 5.97526C6.13445 5.93877 6.17021 5.90241 6.20702 5.86626C6.33199 5.74883 6.46056 5.636 6.5916 5.52678C6.59339 5.52501 6.59521 5.5232 6.59704 5.52138C6.6066 5.51186 6.61665 5.50187 6.62669 5.4943L6.66556 4.39698C6.66885 4.30781 6.66858 4.20991 6.6683 4.10788C6.66695 3.61393 6.66534 3.02324 7.06523 2.8585L9.05897 2.03686C9.45933 1.8719 9.87689 2.29374 10.225 2.64541C10.296 2.71711 10.3641 2.7859 10.4285 2.8462L11.2274 3.5983C11.2328 3.59724 11.2375 3.59712 11.2422 3.59699C11.2469 3.59687 11.2516 3.59675 11.2569 3.59568C11.2658 3.5949 11.2762 3.59459 11.2872 3.59425C11.2948 3.59402 11.3026 3.59378 11.3104 3.59338C11.4596 3.58043 11.6093 3.57108 11.7591 3.56632C11.85 3.5628 11.9397 3.56401 12.0285 3.56521C12.0555 3.56557 12.0824 3.56593 12.1092 3.56616C12.1192 3.5661 12.1292 3.56601 12.139 3.56593C12.1816 3.56557 12.2224 3.56522 12.263 3.56682C12.442 3.5737 12.6207 3.58305 12.8008 3.60109L13.6039 2.85129C13.6676 2.79181 13.735 2.72402 13.8053 2.65332C14.1541 2.30239 14.5742 1.87979 14.9736 2.04605L16.968 2.87605C17.3669 3.04204 17.363 3.63683 17.3597 4.1313C17.359 4.23089 17.3584 4.32642 17.3611 4.41355L17.3965 5.5112C17.3996 5.51429 17.4026 5.51753 17.4055 5.52077C17.4088 5.52438 17.4121 5.52799 17.4156 5.53137C17.4171 5.53262 17.4191 5.53398 17.4213 5.53545C17.4252 5.53802 17.4295 5.54093 17.4326 5.54416L17.4539 5.5626C17.5684 5.66169 17.684 5.76179 17.7939 5.86757C17.8502 5.92102 17.9052 5.97663 17.96 6.03212C17.9745 6.04677 17.989 6.06142 18.0035 6.07601C18.0232 6.09627 18.0439 6.11636 18.0646 6.13651C18.0942 6.1653 18.124 6.19422 18.1513 6.22394C18.1674 6.24047 18.1822 6.2579 18.197 6.27535C18.2104 6.29116 18.2239 6.30698 18.2383 6.32217C18.2399 6.32415 18.2415 6.3262 18.243 6.32818C18.2454 6.33129 18.2477 6.33424 18.2497 6.33644C18.2759 6.36565 18.3024 6.39473 18.329 6.42385C18.3894 6.49004 18.45 6.55645 18.5075 6.62525L19.6032 6.66477C19.6915 6.66785 19.7883 6.66751 19.889 6.66716C20.3841 6.66544 20.976 6.66338 21.1413 7.06427L21.9629 9.05802C22.1286 9.45941 21.7056 9.87765 21.3527 10.2265C21.2818 10.2966 21.2138 10.3638 21.1539 10.4276L20.4035 11.2258C20.4102 11.3191 20.4148 11.4073 20.4179 11.4967C20.4217 11.5549 20.4248 11.6094 20.4274 11.6679C20.4336 11.8017 20.4356 11.9357 20.4341 12.0743C20.4337 12.0979 20.4339 12.1222 20.4341 12.1466C20.4343 12.1761 20.4345 12.2058 20.4336 12.2344C20.4266 12.4151 20.4159 12.5956 20.3999 12.7749C20.4007 12.7854 20.4008 12.7923 20.4 12.7993ZM15.3333 12C15.3333 13.8409 13.8409 15.3333 12 15.3333C10.1591 15.3333 8.66667 13.8409 8.66667 12C8.66667 10.1591 10.1591 8.66667 12 8.66667C13.8409 8.66667 15.3333 10.1591 15.3333 12Z" fill="#CCBCF0"/>
<path fill-rule="evenodd" clip-rule="evenodd" d="M15.8006 16.6005L15.7729 17.3765C15.7708 17.4383 15.771 17.5061 15.7712 17.5767C15.7723 17.9265 15.7735 18.3475 15.4906 18.4636L14.0784 19.0456C13.7956 19.1622 13.4992 18.8621 13.2532 18.6131C13.2038 18.563 13.1564 18.515 13.1115 18.4729L12.5452 17.9418C12.5399 17.9423 12.5349 17.9422 12.5271 17.9417C12.5153 17.9439 12.5063 17.944 12.4953 17.9436C12.3859 17.9537 12.2771 17.9597 12.1711 17.9635C12.1279 17.9644 12.0847 17.9641 12.042 17.9638C12.0137 17.9637 11.9857 17.9635 11.9579 17.9636C11.9396 17.9634 11.9212 17.9636 11.9026 17.9639C11.8726 17.9644 11.8422 17.9649 11.8113 17.963C11.7956 17.9634 11.7794 17.9622 11.7628 17.9609C11.7508 17.96 11.7386 17.9591 11.7262 17.9587C11.7232 17.9585 11.7202 17.9581 11.7172 17.9578C11.7078 17.9568 11.6985 17.9558 11.6885 17.9566C11.6049 17.9527 11.5188 17.9483 11.4326 17.9405L10.8663 18.4691C10.8209 18.5115 10.7729 18.5597 10.723 18.6099C10.4757 18.8584 10.1797 19.156 9.89608 19.038L8.48828 18.4519C8.20534 18.3343 8.20819 17.9154 8.21057 17.5651C8.21105 17.494 8.21151 17.4257 8.20956 17.3633L8.18422 16.5885C8.13716 16.5467 8.0914 16.5053 8.04425 16.4621C8.03513 16.454 8.02588 16.4458 8.01657 16.4376C7.99499 16.4186 7.97316 16.3993 7.95224 16.3798C7.88279 16.3164 7.81432 16.2507 7.74888 16.1822C7.73809 16.1713 7.72717 16.1606 7.71625 16.1499C7.69938 16.1334 7.68252 16.1168 7.66614 16.0998C7.65554 16.0884 7.64522 16.0768 7.63482 16.0652C7.62316 16.0521 7.61141 16.0389 7.59907 16.0258C7.59185 16.0169 7.58409 16.0083 7.5762 15.9996C7.56983 15.9925 7.56338 15.9854 7.55708 15.9779C7.54983 15.9699 7.54256 15.9618 7.53529 15.9538C7.49374 15.908 7.45216 15.8621 7.41301 15.8132C7.41083 15.8109 7.40854 15.8089 7.40624 15.8068C7.40394 15.8048 7.40165 15.8027 7.39948 15.8005L6.62342 15.7726C6.56147 15.7704 6.49351 15.7707 6.42267 15.7709C6.07331 15.7722 5.65366 15.7736 5.53715 15.4909L4.95511 14.0787C4.8386 13.796 5.13849 13.4997 5.38743 13.2537C5.43756 13.2042 5.48562 13.1567 5.52781 13.1117L6.06016 12.5459C6.0554 12.5024 6.05291 12.4577 6.0504 12.4126C6.04953 12.397 6.04866 12.3813 6.04769 12.3657C6.04619 12.3269 6.04338 12.2878 6.04068 12.2501C6.04028 12.2445 6.03988 12.239 6.03949 12.2335C6.03662 12.1432 6.03646 12.0533 6.03711 11.9633C6.03753 11.9431 6.03715 11.9233 6.03678 11.9035C6.03634 11.8799 6.03589 11.8563 6.03679 11.8321C6.04154 11.7057 6.04835 11.5821 6.0595 11.4597C6.06031 11.4551 6.06042 11.4508 6.06053 11.4467C6.06064 11.4424 6.06076 11.4381 6.06163 11.4335L5.53191 10.8665C5.48934 10.8207 5.44076 10.7724 5.39012 10.722C5.14225 10.4752 4.84512 10.1794 4.96298 9.89631L5.54905 8.4886C5.66662 8.20613 6.08565 8.20882 6.43518 8.21107C6.50665 8.21153 6.57521 8.21197 6.63769 8.20996L7.41391 8.18519C7.41637 8.18208 7.41982 8.17798 7.42416 8.17412C7.44414 8.15 7.4653 8.12655 7.48644 8.10314C7.50123 8.08676 7.51601 8.0704 7.53035 8.05383C7.54052 8.04229 7.55061 8.03076 7.56069 8.01925C7.59378 7.98146 7.62668 7.94391 7.66106 7.90688C7.76348 7.79708 7.87246 7.69319 7.98415 7.59167C7.98707 7.58857 7.99042 7.58571 7.99376 7.58286C7.99688 7.5802 7.99999 7.57754 8.00276 7.57469C8.01399 7.56463 8.02516 7.55458 8.03631 7.54455C8.09105 7.49532 8.14518 7.44663 8.20186 7.40003L8.22851 6.6234C8.23065 6.56161 8.23043 6.49384 8.23019 6.42319C8.22905 6.07374 8.22768 5.65377 8.51035 5.53713L9.92265 4.95517C10.2051 4.83869 10.5005 5.13787 10.7461 5.38665C10.7956 5.43683 10.8431 5.48496 10.8881 5.52721L11.4541 6.05956C11.5148 6.05415 11.5739 6.05144 11.6341 6.04898C11.6493 6.04797 11.6644 6.04684 11.6794 6.04572C11.7093 6.04349 11.739 6.04127 11.7694 6.03996C11.8578 6.03668 11.9469 6.0366 12.0345 6.03775C12.0436 6.03768 12.0528 6.03761 12.0619 6.03753C12.0981 6.03723 12.1341 6.03693 12.1706 6.03726C12.2918 6.04103 12.4125 6.0489 12.5327 6.05981C12.5344 6.05982 12.5362 6.05983 12.5381 6.05983C12.5476 6.05985 12.5576 6.05988 12.5664 6.06112L13.1345 5.53188C13.1808 5.48894 13.2296 5.43985 13.2805 5.3887C13.5268 5.14105 13.8213 4.84489 14.1036 4.96247L15.5113 5.54853C15.794 5.66623 15.7919 6.08593 15.7901 6.43582C15.7897 6.50717 15.7894 6.57561 15.7915 6.63799L15.8148 7.41348C15.8181 7.41565 15.8205 7.41794 15.8229 7.42023C15.8253 7.42252 15.8277 7.42479 15.8309 7.42693C15.8358 7.43101 15.8411 7.43605 15.8468 7.44137C15.8507 7.44502 15.8547 7.44881 15.8588 7.45251C15.9399 7.52065 16.0194 7.59085 16.0967 7.66333C16.1439 7.70706 16.1881 7.75248 16.232 7.79751C16.2453 7.81117 16.2585 7.82479 16.2718 7.83832C16.2769 7.84332 16.2819 7.84824 16.2868 7.85312C16.3083 7.87421 16.3289 7.89446 16.3484 7.91557C16.4344 8.00848 16.5191 8.10253 16.6001 8.20159L17.3766 8.22824C17.4382 8.23037 17.5058 8.23017 17.5763 8.22996C17.9262 8.22891 18.3475 8.22765 18.4641 8.51048L19.0463 9.92271C19.1628 10.2051 18.8634 10.5006 18.6145 10.7462C18.5644 10.7957 18.5163 10.8431 18.4741 10.888L17.943 11.4546C17.943 11.4611 17.9423 11.4677 17.9424 11.4742C17.9426 11.4756 17.9429 11.4773 17.9433 11.4791C17.9439 11.4823 17.9446 11.4859 17.9446 11.4891L17.946 11.5089C17.9537 11.6157 17.9614 11.7236 17.9635 11.8314C17.9649 11.8863 17.9646 11.9416 17.9643 11.9968C17.9642 12.0114 17.9641 12.0259 17.9641 12.0405C17.9638 12.0604 17.9641 12.0808 17.9644 12.1013C17.9648 12.1305 17.9652 12.1598 17.964 12.1883C17.9638 12.2047 17.9625 12.2208 17.9612 12.2369C17.96 12.2515 17.9588 12.2661 17.9584 12.281C17.958 12.2845 17.9574 12.2882 17.9571 12.2913C17.957 12.2922 17.957 12.293 17.9569 12.2938C17.9554 12.3215 17.9542 12.3493 17.9529 12.3771C17.95 12.4404 17.9471 12.5039 17.9414 12.5671L18.4695 13.1347C18.5122 13.1804 18.5607 13.2286 18.6113 13.2788C18.8597 13.5255 19.1567 13.8204 19.0389 14.1035L18.4528 15.5112C18.3349 15.7948 17.9143 15.7924 17.5634 15.7904C17.4929 15.79 17.4253 15.7896 17.3635 15.7915L16.5892 15.8154C16.5459 15.8654 16.504 15.9118 16.4609 15.9581C16.4337 15.9891 16.408 16.0178 16.3801 16.0484C16.3163 16.1185 16.2502 16.1864 16.1802 16.255C16.1682 16.2665 16.1562 16.2788 16.1441 16.2911C16.1294 16.306 16.1147 16.3209 16.0999 16.3348C16.006 16.4216 15.9104 16.5066 15.8128 16.5882C15.8079 16.5938 15.8046 16.5973 15.8006 16.6005ZM15.3331 12.0006C15.3331 13.8414 13.8406 15.3339 11.9998 15.3339C10.1589 15.3339 8.66644 13.8414 8.66644 12.0006C8.66644 10.1597 10.1589 8.66723 11.9998 8.66723C13.8406 8.66723 15.3331 10.1597 15.3331 12.0006Z" fill="#9D7FE2"/>
</g>
<defs>
<clipPath id="clip0_2715_5041">
<rect width="24" height="24" fill="white"/>
</clipPath>
</defs>
</svg>
