<svg width="20" height="20" viewBox="0 0 20 20" fill="none" xmlns="http://www.w3.org/2000/svg">
<g clip-path="url(#clip0_1070_26304)">
<path d="M8.60828 8.35816C9.67812 7.28832 9.67368 5.53486 8.60384 4.46502C7.53845 3.39963 5.78499 3.39519 4.71515 4.46502C3.63644 5.54374 3.64088 7.2972 4.70627 8.36259C5.77611 9.43243 7.52957 9.43687 8.60828 8.35816ZM8.71926 14.9237C9.78466 13.8583 9.78466 12.1004 8.71482 11.0305C7.64943 9.96513 5.89153 9.96513 4.82613 11.0305C3.74742 12.1092 3.75186 13.8627 4.81725 14.9281C5.88709 15.9979 7.64055 16.0024 8.71926 14.9237ZM15.1827 8.46026C16.2481 7.39486 16.2481 5.63696 15.1782 4.56712C14.1128 3.50173 12.3549 3.50173 11.2895 4.56712C10.2108 5.64584 10.2153 7.3993 11.2806 8.4647C12.3505 9.53453 14.1039 9.53897 15.1827 8.46026ZM15.2848 15.0346C16.3546 13.9648 16.3457 12.2069 15.2803 11.1415C14.2149 10.0761 12.4615 10.0717 11.3916 11.1415C10.3129 12.2202 10.3174 13.9737 11.3828 15.0391C12.4481 16.1045 14.206 16.1133 15.2848 15.0346Z" fill="black"/>
</g>
<defs>
<clipPath id="clip0_1070_26304">
<rect width="20" height="20" fill="white"/>
</clipPath>
</defs>
</svg>
