<svg width="32" height="32" viewBox="0 0 32 32" fill="none" xmlns="http://www.w3.org/2000/svg">
<path d="M17 9.33301C17 8.78072 16.5523 8.33301 16 8.33301C15.4477 8.33301 15 8.78072 15 9.33301H17ZM15.2929 23.3734C15.6834 23.764 16.3166 23.764 16.7071 23.3734L23.0711 17.0095C23.4616 16.619 23.4616 15.9858 23.0711 15.5953C22.6805 15.2047 22.0474 15.2047 21.6569 15.5953L16 21.2521L10.3431 15.5953C9.95262 15.2047 9.31946 15.2047 8.92893 15.5953C8.53841 15.9858 8.53841 16.619 8.92893 17.0095L15.2929 23.3734ZM15 9.33301V22.6663H17V9.33301H15Z" fill="black"/>
</svg>
