<svg width="80" height="80" viewBox="0 0 80 80" fill="none" xmlns="http://www.w3.org/2000/svg">
<circle cx="40" cy="40" r="40" fill="#F9F7FD"/>
<ellipse cx="41.1947" cy="41.0774" rx="19.8436" ry="20.3744" transform="rotate(-32.8026 41.1947 41.0774)" fill="#EEE7FF"/>
<rect x="46" y="20" width="7" height="7" rx="3.5" fill="white"/>
<path d="M37.2991 24.8345L37.3847 40.3724C37.3878 40.9871 37.8251 41.4881 38.3577 41.4901L46.4433 41.5167C46.7929 41.5185 47.1123 41.3001 47.2758 40.9474L50.2145 33.9229C50.4641 33.386 50.2833 32.7096 49.8099 32.4165L38.7012 23.8756C38.0602 23.4781 37.2943 24.0018 37.2991 24.8345Z" fill="#B5A8F7"/>
<path d="M51.615 37.2199C51.6157 37.2195 51.616 37.2185 51.6156 37.2177C51.6064 37.2007 51.5957 37.1865 51.5862 37.1716C51.5752 37.1571 51.5642 37.1426 51.5531 37.1281C51.5393 37.1115 51.525 37.0973 51.5099 37.0815C51.4984 37.0694 51.4877 37.0587 51.4744 37.0497C51.4561 37.0343 51.4352 37.0205 51.4151 37.0082C51.4046 37.0013 51.3934 36.993 51.3817 36.987C51.3486 36.9695 51.3143 36.9529 51.2785 36.9434C51.2428 36.9338 51.2065 36.9265 51.1705 36.9231C51.1579 36.9217 51.1467 36.9233 51.1328 36.9229C51.1103 36.9222 51.0865 36.9225 51.0643 36.9257C51.0499 36.9275 51.035 36.9317 51.0193 36.9344C51.0011 36.9388 50.9817 36.9441 50.963 36.9508C50.9469 36.9559 50.9315 36.9624 50.9169 36.9704C50.9015 36.9769 50.8869 36.9849 50.8719 36.9952C50.8555 37.0063 50.8397 37.0152 50.8241 37.0278C50.8128 37.0356 50.803 37.0462 50.7912 37.0563C50.78 37.0668 50.7684 37.0766 50.7572 37.0871C50.7476 37.0962 50.7399 37.1074 50.7311 37.1175C50.6856 37.1706 50.6472 37.2309 50.6188 37.3004L48.1312 42.6808C47.9552 43.0614 47.6134 43.2952 47.2363 43.2928L41.9063 43.2588C41.8392 43.2546 41.7745 43.2648 41.7119 43.2856C41.7061 43.2875 41.6996 43.288 41.6937 43.29C41.6738 43.2976 41.6555 43.3082 41.6363 43.3172C41.6242 43.3235 41.6121 43.3298 41.5988 43.3369C41.5825 43.3481 41.5674 43.3584 41.551 43.3695C41.5372 43.379 41.5237 43.3923 41.5106 43.4032C41.4984 43.4156 41.4861 43.428 41.4738 43.4404C41.4598 43.456 41.4478 43.4722 41.4346 43.4893C41.4243 43.5023 41.4161 43.5159 41.4066 43.5304C41.3937 43.5513 41.3823 43.5751 41.3721 43.5981C41.3664 43.61 41.3594 43.6228 41.3545 43.6361C41.3402 43.674 41.3267 43.7133 41.3192 43.7544C41.3118 43.7955 41.3064 43.8373 41.3043 43.8788C41.3034 43.8934 41.305 43.9063 41.3049 43.9224C41.3057 43.9499 41.3057 43.9759 41.309 44.0017C41.3109 44.0184 41.3149 44.0357 41.3168 44.0524C41.3219 44.075 41.3261 44.0962 41.3324 44.1179C41.3372 44.1367 41.3432 44.1546 41.3504 44.1717C41.3564 44.1896 41.3644 44.2082 41.3729 44.2244C41.3822 44.2421 41.391 44.2621 41.4016 44.2789C41.4093 44.2936 41.4188 44.3052 41.4278 44.3191C41.4411 44.338 41.4532 44.3577 41.467 44.3743C41.4729 44.3823 41.4793 44.3879 41.4857 44.3936C41.5364 44.4511 41.5948 44.4972 41.6622 44.5313L49.7082 48.7041C50.3629 49.0434 51.0969 48.5414 51.1436 47.7225L51.7145 37.6566C51.72 37.5728 51.7119 37.4922 51.6913 37.4141C51.6887 37.4059 51.6879 37.3944 51.6852 37.3862C51.6782 37.363 51.6694 37.343 51.6611 37.3206C51.6546 37.305 51.6489 37.2909 51.6424 37.2753C51.6334 37.2581 51.6236 37.2395 51.6145 37.2221C51.6141 37.2214 51.6143 37.2204 51.615 37.2199Z" fill="#B5A8F7"/>
<path d="M50.813 59.1017C49.6225 59.8605 48.3668 60.4511 47.0707 60.8802M39.5367 61.6368C37.3509 61.3934 35.18 60.7655 33.126 59.7809C29.676 58.127 26.5561 55.4665 24.2512 51.9303C18.9884 43.856 19.6851 33.8414 25.3931 27.7255" stroke="black" stroke-width="1.5" stroke-linecap="round" stroke-linejoin="round"/>
<path d="M43.6087 16.9873C45.8205 17.2386 48.0178 17.8825 50.0972 18.8906C53.59 20.5839 56.7499 23.3048 59.0864 26.919C65.2997 36.5302 63.3374 48.8192 54.7033 54.3672C50.2836 57.2072 44.9724 57.7304 40.0071 56.2753M35.9868 17.7506C34.676 18.1872 33.4063 18.7887 32.2027 19.5621C23.5686 25.1102 21.6062 37.3992 27.8196 47.0103C29.9281 50.272 32.7073 52.8061 35.7965 54.514" stroke="black" stroke-width="1.5" stroke-linecap="round" stroke-linejoin="round"/>
</svg>
