<svg width="20" height="20" viewBox="0 0 20 20" fill="none" xmlns="http://www.w3.org/2000/svg">
<path d="M7.01182 16.7591C7.36966 16.7591 7.63334 16.5833 8.06651 16.2003L10.2198 14.3044H13.9991C15.8888 14.3044 16.9497 13.2121 16.9497 11.3475V6.46959C16.9497 4.60505 15.8888 3.5127 13.9991 3.5127H5.9948C4.11143 3.5127 3.04419 4.60505 3.04419 6.46959V11.3475C3.04419 13.2183 4.14282 14.3044 5.95086 14.3044H6.20825V15.8425C6.20825 16.4012 6.50331 16.7591 7.01182 16.7591ZM7.32572 15.3528V13.5636C7.32572 13.1932 7.16249 13.0488 6.81093 13.0488H6.03875C4.8585 13.0488 4.29349 12.4524 4.29349 11.3098V6.50725C4.29349 5.36468 4.8585 4.76828 6.03875 4.76828H13.9615C15.1354 4.76828 15.7004 5.36468 15.7004 6.50725V11.3098C15.7004 12.4524 15.1354 13.0488 13.9615 13.0488H10.1508C9.76782 13.0488 9.57948 13.1116 9.31581 13.3878L7.32572 15.3528ZM10.0001 9.94754C10.3454 9.94754 10.54 9.75293 10.5526 9.38881L10.6467 6.36914C10.6593 5.99874 10.3831 5.72879 9.99383 5.72879C9.6046 5.72879 9.33465 5.99247 9.3472 6.36286L9.43509 9.38881C9.44765 9.74665 9.64854 9.94754 10.0001 9.94754ZM10.0001 12.0318C10.4082 12.0318 10.7409 11.7367 10.7409 11.335C10.7409 10.9395 10.4082 10.6444 10.0001 10.6444C9.59204 10.6444 9.25931 10.9395 9.25931 11.335C9.25931 11.7305 9.59832 12.0318 10.0001 12.0318Z" fill="#1C1C1E"/>
</svg>
