<svg width="24" height="24" viewBox="0 0 24 24" fill="none" xmlns="http://www.w3.org/2000/svg">
<path fill-rule="evenodd" clip-rule="evenodd" d="M11.9569 19.4572C16.241 19.4572 19.714 15.9842 19.714 11.7001C19.714 7.41592 16.241 3.94293 11.9569 3.94293C7.6727 3.94293 4.19971 7.41592 4.19971 11.7001C4.19971 15.9842 7.6727 19.4572 11.9569 19.4572Z" fill="#0CB700"/>
<path d="M11.1791 15.2821C11.4578 15.2821 11.6838 15.1465 11.8495 14.9054L15.217 9.63948C15.3149 9.48128 15.4053 9.30048 15.4053 9.12721C15.4053 8.75807 15.0739 8.50946 14.7198 8.50946C14.4938 8.50946 14.2904 8.63 14.1322 8.88613L11.1565 13.6624L9.75523 11.8769C9.57443 11.6434 9.39362 11.5605 9.16762 11.5605C8.79848 11.5605 8.51221 11.8543 8.51221 12.231C8.51221 12.4118 8.58001 12.5775 8.70054 12.7357L10.486 14.9054C10.6894 15.1691 10.9079 15.2821 11.1791 15.2821Z" fill="white"/>
</svg>
