<svg width="16" height="16" viewBox="0 0 16 16" fill="none" xmlns="http://www.w3.org/2000/svg">
<path d="M8.19754 11.2294C8.37333 11.2243 8.524 11.159 8.6596 11.0234L12.4816 7.11607C12.5921 7.00056 12.6523 6.86496 12.6523 6.69922C12.6523 6.36272 12.3912 6.10156 12.0547 6.10156C11.894 6.10156 11.7433 6.16685 11.6278 6.28237L8.19754 9.79799L4.7673 6.28237C4.65178 6.16685 4.50614 6.10156 4.3404 6.10156C4.00391 6.10156 3.74275 6.36272 3.74275 6.69922C3.74275 6.85993 3.80301 7.00056 3.9135 7.11607L7.74051 11.0234C7.87109 11.1641 8.02176 11.2294 8.19754 11.2294Z" fill="#818181"/>
</svg>
