<svg width="20" height="20" viewBox="0 0 20 20" fill="none" xmlns="http://www.w3.org/2000/svg">
<path d="M9.99686 16.4912C13.5564 16.4912 16.4945 13.5532 16.4945 9.9999C16.4945 6.4466 13.5502 3.50854 9.99058 3.50854C6.43729 3.50854 3.50551 6.4466 3.50551 9.9999C3.50551 13.5532 6.44357 16.4912 9.99686 16.4912ZM9.99686 15.198C7.1153 15.198 4.81131 12.8815 4.81131 9.9999C4.81131 7.11834 7.1153 4.80807 9.99058 4.80807C12.8721 4.80807 15.1887 7.11834 15.195 9.9999C15.2012 12.8815 12.8784 15.198 9.99686 15.198ZM9.99058 13.5281C10.1538 13.5281 10.2794 13.4088 10.2794 13.2393V12.8187C11.2964 12.7245 12.0623 12.1407 12.0623 11.1864C12.0623 10.3326 11.5098 9.83039 10.4175 9.6295L10.2794 9.59811V8.04119C10.6812 8.11025 10.9574 8.34881 11.0767 8.7192C11.1708 8.92637 11.3027 9.04565 11.5287 9.04565C11.7798 9.04565 11.9556 8.87615 11.9556 8.63759C11.9556 8.56226 11.9367 8.4932 11.9242 8.41786C11.7547 7.77124 11.1206 7.30668 10.2794 7.21878V6.79817C10.2794 6.62866 10.1538 6.50938 9.99058 6.50938C9.82736 6.50938 9.70808 6.62866 9.70808 6.79817V7.21878C8.71617 7.31923 8.01304 7.92191 8.01304 8.79454C8.01304 9.61067 8.55922 10.0878 9.60135 10.3263L9.70808 10.3515V12.0088C9.19957 11.9335 8.90451 11.6635 8.80406 11.2931C8.71617 11.0671 8.57178 10.9541 8.35833 10.9541C8.09466 10.9541 7.92515 11.1299 7.92515 11.381C7.92515 11.4501 7.94399 11.5191 7.96282 11.6008C8.14488 12.2662 8.81034 12.7308 9.70808 12.8124V13.2393C9.70808 13.4151 9.82736 13.5281 9.99058 13.5281ZM9.70808 9.45372L9.66413 9.44116C9.1619 9.29677 8.92962 9.07704 8.92962 8.73804C8.92962 8.39275 9.22468 8.11025 9.70808 8.03491V9.45372ZM10.2794 10.4958L10.3986 10.521C10.9448 10.6716 11.1394 10.8976 11.1394 11.2555C11.1394 11.651 10.8507 11.9398 10.2794 12.0088V10.4958Z" fill="#7F56D9"/>
</svg>
