<svg width="20" height="20" viewBox="0 0 20 20" fill="none" xmlns="http://www.w3.org/2000/svg">
<path d="M9.99697 16.4914C13.5565 16.4914 16.4946 13.5533 16.4946 10C16.4946 6.44671 13.5503 3.50865 9.99069 3.50865C6.4374 3.50865 3.50562 6.44671 3.50562 10C3.50562 13.5533 6.44367 16.4914 9.99697 16.4914ZM9.99697 15.1981C7.11541 15.1981 4.81142 12.8816 4.81142 10C4.81142 7.11845 7.11541 4.80818 9.99069 4.80818C12.8722 4.80818 15.1888 7.11845 15.1951 10C15.2013 12.8816 12.8785 15.1981 9.99697 15.1981ZM9.99069 13.5282C10.1539 13.5282 10.2795 13.4089 10.2795 13.2394V12.8188C11.2965 12.7246 12.0624 12.1408 12.0624 11.1865C12.0624 10.3327 11.5099 9.8305 10.4176 9.62961L10.2795 9.59822V8.0413C10.6813 8.11035 10.9575 8.34891 11.0768 8.71931C11.1709 8.92648 11.3028 9.04576 11.5288 9.04576C11.7799 9.04576 11.9557 8.87626 11.9557 8.6377C11.9557 8.56236 11.9368 8.49331 11.9243 8.41797C11.7548 7.77135 11.1207 7.30678 10.2795 7.21889V6.79827C10.2795 6.62877 10.1539 6.50949 9.99069 6.50949C9.82746 6.50949 9.70818 6.62877 9.70818 6.79827V7.21889C8.71627 7.31934 8.01315 7.92202 8.01315 8.79464C8.01315 9.61077 8.55933 10.0879 9.60146 10.3265L9.70818 10.3516V12.0089C9.19967 11.9336 8.90461 11.6636 8.80416 11.2932C8.71627 11.0672 8.57188 10.9542 8.35843 10.9542C8.09476 10.9542 7.92526 11.13 7.92526 11.3811C7.92526 11.4502 7.94409 11.5193 7.96293 11.6009C8.14498 12.2663 8.81044 12.7309 9.70818 12.8125V13.2394C9.70818 13.4152 9.82746 13.5282 9.99069 13.5282ZM9.70818 9.45382L9.66424 9.44127C9.162 9.29688 8.92972 9.07715 8.92972 8.73814C8.92972 8.39286 9.22478 8.11035 9.70818 8.03502V9.45382ZM10.2795 10.496L10.3988 10.5211C10.9449 10.6717 11.1395 10.8977 11.1395 11.2556C11.1395 11.6511 10.8508 11.9399 10.2795 12.0089V10.496Z" fill="#383838"/>
</svg>
