<svg width="64" height="64" viewBox="0 0 64 64" fill="none" xmlns="http://www.w3.org/2000/svg">
<g clip-path="url(#clip0_3661_2894)">
<rect width="64" height="64" fill="white"/>
<circle cx="31.001" cy="31" r="23" fill="#FF9900"/>
<path d="M58.001 30.8095C58.001 26.9706 57.2105 23.3162 55.7832 20M30.001 57C40.729 57 50.6129 52.0336 55.1124 43.0603" stroke="black" stroke-width="1.5" stroke-linecap="round"/>
<path d="M7.21923 17.272C2.42614 27.1382 2.56971 38.4433 8.79773 46.5835" stroke="black" stroke-width="1.5" stroke-linecap="round"/>
<path d="M12.2141 30.917C12.9096 25.2985 14.7811 20.0484 18.5683 16.2924" stroke="white" stroke-width="1.5" stroke-linecap="round"/>
<path d="M36.2939 44.1513C35.9942 44.2634 35.7027 44.2548 35.4196 44.1258C35.1366 43.9967 34.939 43.7823 34.827 43.4825L33.8083 40.7567L34.5313 41.063C33.2128 41.5343 31.9567 41.8009 30.7628 41.8628C29.5689 41.9246 28.5215 41.8357 27.6205 41.5959C27.314 41.5183 27.0719 41.3846 26.8942 41.1948C26.7095 40.9862 26.5939 40.7625 26.5473 40.5237C26.4938 40.2662 26.5104 40.0251 26.5973 39.8005C26.7029 39.5688 26.8611 39.3923 27.0719 39.2708C27.2827 39.1493 27.573 39.1262 27.9428 39.2016C28.6963 39.3897 29.5635 39.482 30.5443 39.4784C31.5368 39.4491 32.6794 39.1929 33.9721 38.7098C35.0025 38.3247 35.8059 37.875 36.3824 37.3607C36.9518 36.8276 37.3047 36.2581 37.4412 35.6519C37.5964 35.0388 37.5584 34.4231 37.3274 33.8049C37.1314 33.2803 36.8416 32.8762 36.458 32.5925C36.0931 32.3019 35.6088 32.1199 35.005 32.0466C34.4011 31.9734 33.6461 32.01 32.7401 32.1564L29.6427 32.6094C27.8165 32.8648 26.3244 32.7285 25.1663 32.2005C24.0199 31.6468 23.1842 30.6674 22.6591 29.2623C22.253 28.1757 22.1512 27.1035 22.3537 26.0457C22.575 24.9808 23.0688 24.017 23.8352 23.1541C24.6204 22.2842 25.6395 21.5831 26.8924 21.0508L26.646 21.5912L25.6588 18.9497C25.5468 18.6499 25.5553 18.3585 25.6844 18.0754C25.8135 17.7923 26.0279 17.5948 26.3276 17.4827C26.6274 17.3707 26.9188 17.3792 27.2019 17.5083C27.485 17.6374 27.6825 17.8518 27.7946 18.1515L28.7817 20.7931L28.1851 20.5677C29.0726 20.2574 30.07 20.0982 31.1772 20.0901C32.2774 20.0632 33.2896 20.2294 34.2139 20.5886C34.4829 20.6802 34.6876 20.8279 34.8278 21.0317C34.9868 21.2285 35.0673 21.444 35.0694 21.678C35.0902 21.9051 35.0408 22.1157 34.9212 22.3099C34.8203 22.497 34.6516 22.6455 34.4151 22.7552C34.1902 22.8393 33.9023 22.8401 33.5513 22.7578C32.765 22.5392 31.9482 22.4388 31.1008 22.4565C30.2721 22.4673 29.3426 22.6652 28.3122 23.0503C26.9633 23.5544 26.0086 24.2848 25.4481 25.2416C24.8992 26.1726 24.8209 27.1627 25.2129 28.2118C25.521 29.0361 26.0096 29.6008 26.6787 29.9059C27.3596 30.1852 28.3076 30.2366 29.5227 30.0601L32.6868 29.6142C34.6253 29.3168 36.1795 29.4192 37.3494 29.9215C38.5122 30.405 39.3492 31.3306 39.8603 32.6982C40.2593 33.7661 40.3377 34.8043 40.0955 35.8129C39.872 36.8146 39.37 37.7281 38.5896 38.5535C37.8279 39.3719 36.8463 40.059 35.6448 40.6148L35.9335 39.9304L36.9627 42.6844C37.0747 42.9842 37.0662 43.2756 36.9371 43.5587C36.8268 43.8348 36.6124 44.0323 36.2939 44.1513Z" fill="white"/>
<path d="M59.3481 34.45L62.7481 33.1092" stroke="black" stroke-width="1.5" stroke-linecap="round" stroke-linejoin="round"/>
<path d="M60.8364 44.0925L58.1299 41.6366" stroke="black" stroke-width="1.5" stroke-linecap="round" stroke-linejoin="round"/>
<path d="M63.001 38.0867L59.3477 37.9821" stroke="black" stroke-width="1.5" stroke-linecap="round" stroke-linejoin="round"/>
</g>
<defs>
<clipPath id="clip0_3661_2894">
<rect width="64" height="64" fill="white"/>
</clipPath>
</defs>
</svg>
