<svg width="40" height="40" viewBox="0 0 40 40" fill="none" xmlns="http://www.w3.org/2000/svg">
<path d="M7.67995 18.0868C6.93417 18.0868 6.25054 18.7349 6.25942 19.5251C6.25942 20.3064 6.93417 20.9634 7.67995 20.9634L18.5559 20.9545V31.8393C18.5559 32.6028 19.2129 33.2598 19.9941 33.2598C20.7754 33.242 21.4324 32.6028 21.4235 31.8304L21.4324 20.9545L32.2995 20.9545C33.0719 20.9634 33.7289 20.3064 33.7289 19.5251C33.7111 18.7438 33.0719 18.0868 32.3083 18.0868L21.4235 18.0868L21.4324 7.21088C21.4324 6.4651 20.7754 5.7726 19.9941 5.79035C19.2129 5.79035 18.5559 6.4651 18.5559 7.21088L18.5647 18.0868L7.67995 18.0868Z" fill="#898989"/>
</svg>
