<svg width="19" height="19" viewBox="0 0 19 19" fill="none" xmlns="http://www.w3.org/2000/svg">
<path d="M9.49121 18.7422C14.4746 18.7422 18.5879 14.6289 18.5879 9.6543C18.5879 4.67969 14.4658 0.566406 9.48242 0.566406C4.50781 0.566406 0.40332 4.67969 0.40332 9.6543C0.40332 14.6289 4.5166 18.7422 9.49121 18.7422ZM9.49121 16.9316C5.45703 16.9316 2.23145 13.6885 2.23145 9.6543C2.23145 5.62012 5.45703 2.38574 9.48242 2.38574C13.5166 2.38574 16.7598 5.62012 16.7686 9.6543C16.7773 13.6885 13.5254 16.9316 9.49121 16.9316ZM9.48242 14.5938C9.71094 14.5938 9.88672 14.4268 9.88672 14.1895V13.6006C11.3105 13.4688 12.3828 12.6514 12.3828 11.3154C12.3828 10.1201 11.6094 9.41699 10.0801 9.13574L9.88672 9.0918V6.91211C10.4492 7.00879 10.8359 7.34277 11.0029 7.86133C11.1348 8.15137 11.3193 8.31836 11.6357 8.31836C11.9873 8.31836 12.2334 8.08105 12.2334 7.74707C12.2334 7.6416 12.207 7.54492 12.1895 7.43945C11.9521 6.53418 11.0645 5.88379 9.88672 5.76074V5.17188C9.88672 4.93457 9.71094 4.76758 9.48242 4.76758C9.25391 4.76758 9.08691 4.93457 9.08691 5.17188V5.76074C7.69824 5.90137 6.71387 6.74512 6.71387 7.9668C6.71387 9.10938 7.47852 9.77734 8.9375 10.1113L9.08691 10.1465V12.4668C8.375 12.3613 7.96191 11.9834 7.82129 11.4648C7.69824 11.1484 7.49609 10.9902 7.19727 10.9902C6.82812 10.9902 6.59082 11.2363 6.59082 11.5879C6.59082 11.6846 6.61719 11.7812 6.64355 11.8955C6.89844 12.8271 7.83008 13.4775 9.08691 13.5918V14.1895C9.08691 14.4355 9.25391 14.5938 9.48242 14.5938ZM9.08691 8.88965L9.02539 8.87207C8.32227 8.66992 7.99707 8.3623 7.99707 7.8877C7.99707 7.4043 8.41016 7.00879 9.08691 6.90332V8.88965ZM9.88672 10.3486L10.0537 10.3838C10.8184 10.5947 11.0908 10.9111 11.0908 11.4121C11.0908 11.9658 10.6865 12.3701 9.88672 12.4668V10.3486Z" fill="white"/>
</svg>
