<svg width="21" height="21" viewBox="0 0 21 21" fill="none" xmlns="http://www.w3.org/2000/svg">
<path d="M4.19916 13.9194H5.02278C5.21139 13.9194 5.28684 13.8817 5.42515 13.775L5.84639 13.4548C6.07902 13.6871 6.42481 13.7373 6.7706 13.5866L8.85165 12.7203C9.00883 12.6575 9.09056 12.5947 9.19116 12.4943L15.2645 6.47377C15.8681 5.87109 15.8681 5.14914 15.2583 4.5339L13.8939 3.16532C13.2841 2.55636 12.5611 2.55009 11.9575 3.15276L5.88412 9.16699C5.77724 9.27372 5.72065 9.34905 5.65149 9.51228L4.77129 11.584C4.62669 11.9167 4.66441 12.2432 4.89703 12.5006L3.99169 13.436C3.79678 13.6431 3.89109 13.9194 4.19916 13.9194ZM12.6554 3.98145C12.8188 3.8245 13.0137 3.81822 13.1646 3.97517L14.4472 5.26214C14.6044 5.41909 14.5981 5.60742 14.4284 5.77065L14.0197 6.17871L12.2404 4.39579L12.6554 3.98145ZM6.99694 9.60017L11.5614 5.0738L13.3344 6.85673L8.77621 11.3831L6.99694 9.60017ZM6.64486 12.4754C6.52541 12.5194 6.44367 12.5194 6.33679 12.4127L5.9407 12.0234C5.84011 11.923 5.84011 11.8288 5.88412 11.7221L6.44996 10.41L7.95888 11.9293L6.64486 12.4754ZM3.9854 16.148H16.0504C16.3522 16.148 16.5974 15.8906 16.5974 15.5893C16.5974 15.2879 16.3522 15.0368 16.0504 15.0368H3.9854C3.67733 15.0368 3.43213 15.2879 3.43213 15.5893C3.43213 15.8906 3.68361 16.148 3.9854 16.148Z" fill="#808080"/>
</svg>
