<svg width="80" height="80" viewBox="0 0 80 80" fill="none" xmlns="http://www.w3.org/2000/svg">
<circle cx="40" cy="40" r="40" fill="#F9F7FD"/>
<path d="M38.2091 9.87331L16.214 20.8488C14.8573 21.5258 13.9943 22.9068 14.0382 24.4225C14.3158 34.0074 16.1388 50.5462 20.4898 56.3496L20.5709 56.4578C25.2615 62.7143 30.9643 70.3212 39.6907 72.9218C39.8679 72.9746 40.0515 73.0038 40.2354 72.9842C42.8833 72.7025 50.2102 68.6446 56.6324 61.0869C66.3215 49.6847 66.7888 35.022 66.9581 24.5214C66.9833 22.955 66.0935 21.5193 64.6806 20.8425L41.7231 9.845C40.6101 9.31183 39.3133 9.32228 38.2091 9.87331Z" fill="#EEE7FF"/>
<rect x="46" y="54" width="7" height="7" rx="3.5" fill="white"/>
<path d="M20.5 29.3537L26 27.2159M56.5 49.5C58.2003 43.7203 59.3745 36.9776 59.5374 32.1439C59.594 30.4667 58.4271 29.0478 56.8133 28.5878L52 27.2158" stroke="black" stroke-width="1.5" stroke-linecap="round" stroke-linejoin="round"/>
<path d="M19.5 33.5C19.5 44 22.6812 49.3059 24.5 53" stroke="black" stroke-width="1.5" stroke-linecap="round" stroke-linejoin="round"/>
<path d="M56.5 49.5C52.74 63.2866 44.6906 66.991 41.0987 68.395C40.2087 68.7429 39.2092 68.814 38.3438 68.409C35.6467 67.1467 33.2172 64.7172 32 63.5" stroke="black" stroke-width="1.5" stroke-linecap="round" stroke-linejoin="round"/>
<path d="M45.8952 36C45.8952 40.8431 42.6234 44.7692 38.5875 44.7692C34.5515 44.7692 31.2798 40.8431 31.2798 36C31.2798 36 34.7439 36.3975 38.7798 36.3975C42.8157 36.3975 46.2798 36 45.8952 36Z" fill="white"/>
<path d="M46.7988 38H29V30.5646C29.758 24.2254 32.3998 20.1168 38 18C38 18 42.0068 19.0928 44.1746 22.9167C46.3424 26.7406 46.3023 27.4251 46.7988 30.5646C47.2515 33.4269 46.7988 38 46.7988 38Z" fill="#B5A8F7"/>
<path d="M48 38C48 42.4183 44.1944 46 39.5 46C34.8056 46 31 42.4183 31 38" stroke="black" stroke-width="1.5"/>
<path d="M50 38H29V30.1501C29.9179 23.4576 33.0893 19.2348 39.8706 17C39.8706 17 44.75 18.0388 47.375 22.0759C50 26.113 50 30.1501 50 30.1501V38Z" stroke="black" stroke-width="1.5" stroke-linecap="round" stroke-linejoin="round"/>
<path d="M23.0026 58.4934C22.8706 54.3887 27.7872 46.1792 38.049 46.1792" stroke="black" stroke-width="1.5" stroke-linecap="round" stroke-linejoin="round"/>
<path d="M45.5747 47.2545C45.9386 47.3257 48.1028 47.9185 50.0513 48.9556C51.9998 49.9927 54.4998 53 54.4998 53" stroke="black" stroke-width="1.5" stroke-linecap="round" stroke-linejoin="round"/>
</svg>
