<svg width="60" height="60" viewBox="0 0 60 60" fill="none" xmlns="http://www.w3.org/2000/svg">
<circle cx="30" cy="30" r="30" fill="#7F56D9" fill-opacity="0.05"/>
<path d="M17 25C17 22.7909 18.7909 21 21 21H43C45.2091 21 47 22.7909 47 25V38C47 40.2091 45.2091 42 43 42H21C18.7909 42 17 40.2091 17 38V25Z" fill="#B5A8F7"/>
<path d="M38.493 18H40.9907C44.3044 18 46.9907 20.6863 46.9907 24V36C46.9907 39.3137 44.3044 42 40.9907 42H29.9953H25.7465M34.2442 18H32.1198H29.9953H19C15.6863 18 13 20.6863 13 24V36C13 39.3137 15.6863 42 19 42H21.4977" stroke="black" stroke-width="1.5" stroke-linecap="round"/>
<path d="M37.1501 32.7C37.1501 30.9603 38.5604 29.55 40.3001 29.55H47.0501V35.85H40.3001C38.5605 35.85 37.1501 34.4397 37.1501 32.7Z" fill="white" stroke="black" stroke-width="1.5"/>
<path d="M19.4744 24.1935H24.3302" stroke="black" stroke-width="1.5" stroke-linecap="round"/>
</svg>
