<svg width="64" height="64" viewBox="0 0 64 64" fill="none" xmlns="http://www.w3.org/2000/svg">
<path d="M31.9798 51.9821C43.3705 51.9821 52.7722 42.5804 52.7722 31.2098C52.7722 19.8393 43.3504 10.4375 31.9598 10.4375C20.5892 10.4375 11.2075 19.8393 11.2075 31.2098C11.2075 42.5804 20.6093 51.9821 31.9798 51.9821ZM31.9798 34.6451C30.7946 34.6451 30.1115 33.9821 30.0714 32.7768L29.7901 22.7522C29.7499 21.5067 30.6339 20.6429 31.9598 20.6429C33.2455 20.6429 34.1897 21.5268 34.1495 22.7723L33.8281 32.7768C33.7879 34.0022 33.1249 34.6451 31.9798 34.6451ZM31.9798 41.596C30.6138 41.596 29.4888 40.6116 29.4888 39.2857C29.4888 37.9598 30.5937 36.9754 31.9798 36.9754C33.3459 36.9754 34.4508 37.9598 34.4508 39.2857C34.4508 40.6317 33.3258 41.596 31.9798 41.596Z" fill="#E83D26"/>
</svg>
