<svg width="20" height="20" viewBox="0 0 20 20" fill="none" xmlns="http://www.w3.org/2000/svg">
<path d="M4.60104 11.197V15.1646C4.60104 16.257 5.34183 16.9664 6.46558 16.9664H13.5282C14.652 16.9664 15.3928 16.257 15.3928 15.1646V4.33524C15.3928 3.24916 14.652 2.53348 13.5282 2.53348H6.46558C5.34183 2.53348 4.60104 3.24916 4.60104 4.33524V8.30915H5.83151V4.53613C5.83151 4.04645 6.12029 3.76395 6.63508 3.76395H13.3587C13.8735 3.76395 14.1623 4.04645 14.1623 4.53613V14.9637C14.1623 15.4534 13.8735 15.7359 13.3587 15.7359H6.63508C6.12029 15.7359 5.83151 15.4534 5.83151 14.9637V11.197H4.60104ZM3.30151 10.2741H7.43237L8.64401 10.2114L7.40098 11.3037L7.06198 11.6553C6.96781 11.7557 6.90503 11.8938 6.90503 12.0445C6.90503 12.3396 7.11848 12.5467 7.40726 12.5467C7.55165 12.5467 7.68349 12.4902 7.78394 12.3898L10.0063 10.18C10.1381 10.0418 10.2135 9.89118 10.2135 9.74679C10.2135 9.6024 10.1381 9.44545 10.0063 9.31361L7.78394 7.10379C7.68349 7.00334 7.55165 6.94684 7.40726 6.94684C7.11848 6.94684 6.90503 7.15401 6.90503 7.44908C6.90503 7.59975 6.96781 7.73786 7.06198 7.83831L7.40098 8.18987L8.64401 9.28222L7.43237 9.21944H3.30151C2.98134 9.21944 2.77417 9.46428 2.77417 9.74679C2.77417 10.0293 2.98134 10.2741 3.30151 10.2741Z" fill="black"/>
</svg>
