<svg width="21" height="21" viewBox="0 0 21 21" fill="none" xmlns="http://www.w3.org/2000/svg">
<path d="M15.9162 9.42163C15.9162 9.87074 15.65 10.1785 15.2342 10.1785C14.81 10.1785 14.5439 9.88737 14.5439 9.42994V8.10755L14.6603 6.91822L13.5541 8.12418L10.6515 11.0268C10.4935 11.1765 10.3105 11.2597 10.0859 11.2597C9.66175 11.2597 9.3457 10.9686 9.3457 10.5195C9.3457 10.3199 9.44551 10.1286 9.5869 9.98718L12.4979 7.07625L13.7205 5.95346L12.5894 6.08653H11.1921C10.7346 6.08653 10.4352 5.82039 10.4352 5.39622C10.4352 4.98038 10.7263 4.71423 11.1838 4.71423H15.0678C15.5918 4.71423 15.9162 4.97206 15.9162 5.55425V9.42163Z" fill="#898989"/>
<path fill-rule="evenodd" clip-rule="evenodd" d="M8.20271 4.4209H7.92857C6.79227 4.4209 5.90081 4.55273 5.25419 5.19936C4.60756 5.8397 4.48828 6.72489 4.48828 7.86119V12.6449C4.48828 13.8001 4.60756 14.6853 5.25419 15.3256C5.90081 15.9722 6.79227 16.0978 7.94113 16.0978H12.75C13.8989 16.0978 14.7966 15.9722 15.4432 15.3256C16.0836 14.679 16.2028 13.8001 16.2028 12.6449V12.2857H14.9535V12.8207C14.9535 13.4736 14.8719 14.0638 14.5266 14.409C14.1751 14.7606 13.5787 14.8485 12.9258 14.8485H7.77162C7.11872 14.8485 6.51604 14.7543 6.17076 14.409C5.82547 14.0638 5.73758 13.4736 5.73758 12.8207V7.7168C5.73758 7.05134 5.82547 6.45494 6.17076 6.10965C6.51604 5.76437 7.11872 5.67648 7.78418 5.67648H8.20271V4.4209Z" fill="#898989"/>
</svg>
