<svg width="20" height="20" viewBox="0 0 20 20" fill="none" xmlns="http://www.w3.org/2000/svg">
<path d="M6.5 15.9997C6.31435 15.9997 6.1363 15.9294 6.00503 15.8044C5.87375 15.6794 5.8 15.5098 5.8 15.333V13.3331H5.1C4.54305 13.3331 4.0089 13.1224 3.61508 12.7473C3.22125 12.3722 3 11.8636 3 11.3331V5.99995C3 5.46953 3.22125 4.96083 3.61508 4.58577C4.0089 4.21071 4.54305 4 5.1 4H14.9C15.457 4 15.9911 4.21071 16.3849 4.58577C16.7788 4.96083 17 5.46953 17 5.99995V11.3331C17 11.8636 16.7788 12.3722 16.3849 12.7473C15.9911 13.1224 15.457 13.3331 14.9 13.3331H9.16L7.06 15.7597C6.99195 15.8376 6.90615 15.8997 6.80911 15.9413C6.71207 15.9829 6.60636 16.0028 6.5 15.9997ZM5.1 5.3333C4.91435 5.3333 4.7363 5.40353 4.60503 5.52855C4.47375 5.65357 4.4 5.82314 4.4 5.99995V11.3331C4.4 11.5099 4.47375 11.6795 4.60503 11.8045C4.7363 11.9295 4.91435 11.9998 5.1 11.9998H6.5C6.68565 11.9998 6.8637 12.07 6.99497 12.195C7.12625 12.3201 7.2 12.4896 7.2 12.6664V13.4931L8.292 12.2398C8.35782 12.1645 8.44023 12.104 8.53339 12.0625C8.62655 12.021 8.72816 11.9996 8.831 11.9998H14.9C15.0857 11.9998 15.2637 11.9295 15.395 11.8045C15.5263 11.6795 15.6 11.5099 15.6 11.3331V5.99995C15.6 5.82314 15.5263 5.65357 15.395 5.52855C15.2637 5.40353 15.0857 5.3333 14.9 5.3333H5.1Z" fill="#7F56D9"/>
<path d="M8 9H6.66667C6.48986 9 6.32029 8.94732 6.19526 8.85355C6.07024 8.75979 6 8.63261 6 8.5C6 8.36739 6.07024 8.24021 6.19526 8.14645C6.32029 8.05268 6.48986 8 6.66667 8H8C8.17681 8 8.34638 8.05268 8.4714 8.14645C8.59643 8.24021 8.66667 8.36739 8.66667 8.5C8.66667 8.63261 8.59643 8.75979 8.4714 8.85355C8.34638 8.94732 8.17681 9 8 9ZM13.3333 9H12C11.8232 9 11.6536 8.94732 11.5286 8.85355C11.4036 8.75979 11.3333 8.63261 11.3333 8.5C11.3333 8.36739 11.4036 8.24021 11.5286 8.14645C11.6536 8.05268 11.8232 8 12 8H13.3333C13.5101 8 13.6797 8.05268 13.8047 8.14645C13.9298 8.24021 14 8.36739 14 8.5C14 8.63261 13.9298 8.75979 13.8047 8.85355C13.6797 8.94732 13.5101 9 13.3333 9Z" fill="#7F56D9"/>
</svg>
