<svg width="20" height="20" viewBox="0 0 20 20" fill="none" xmlns="http://www.w3.org/2000/svg">
<path d="M14.6205 16.238C15.4053 15.8551 15.6124 15.5035 15.6124 14.6811V5.08221C15.6124 4.00868 15.1165 3.50017 14.0869 3.50017H13.4905V3.33067C13.4905 2.66521 13.1515 2.30737 12.5488 2.30737C12.3479 2.30737 12.1094 2.3576 11.8331 2.45176C9.93722 3.06072 8.20452 3.46878 5.9947 3.46878H5.51758C4.79562 3.46878 4.38756 3.88313 4.38756 4.54231V15.3152C4.38756 15.8425 4.51311 16.1627 5.00279 16.4013C6.08259 16.8847 7.68973 17.1923 9.35965 17.1986C11.1802 17.1923 13.208 16.916 14.6205 16.238ZM5.5678 14.7502V4.90642C5.5678 4.73692 5.65569 4.63647 5.81892 4.63647H6.12026C8.24219 4.63647 10.2637 4.19702 11.9901 3.6634C12.191 3.59434 12.3165 3.65084 12.3165 3.83918V13.0803C12.3165 13.3879 12.2726 13.5197 11.9775 13.7143C10.722 14.5932 8.5498 15.1143 5.78753 14.9762C5.63058 14.9699 5.5678 14.9008 5.5678 14.7502ZM12.8816 14.5116C13.3587 14.1475 13.4905 13.8838 13.4905 13.3V4.68042H14.0555C14.3129 4.68042 14.4322 4.81226 14.4322 5.10104V14.5556C14.4322 14.926 14.3694 15.0829 14.0116 15.2336C12.7937 15.7672 10.9982 16.1062 9.35965 16.1125C8.74442 16.1125 8.14802 16.0936 7.54534 16.0371C9.76772 15.9179 11.8394 15.2964 12.8816 14.5116ZM6.77944 6.2499V8.3216C6.77944 8.41577 6.85477 8.46599 6.93011 8.46599C8.3803 8.46599 9.86816 8.2086 10.9982 7.75659C11.0547 7.73148 11.0861 7.67498 11.0861 7.61848V5.47144C11.0861 5.32704 10.9542 5.29565 10.8852 5.32077C9.58566 5.80416 8.3238 6.03017 6.93011 6.08667C6.84222 6.09295 6.77944 6.162 6.77944 6.2499Z" fill="#7F56D9"/>
</svg>
