<svg width="20" height="20" viewBox="0 0 20 20" fill="none" xmlns="http://www.w3.org/2000/svg">
<path d="M14.6204 16.2381C15.4052 15.8552 15.6123 15.5036 15.6123 14.6812V5.08231C15.6123 4.00879 15.1164 3.50028 14.0868 3.50028H13.4904V3.33078C13.4904 2.66532 13.1514 2.30748 12.5487 2.30748C12.3478 2.30748 12.1093 2.3577 11.833 2.45187C9.93712 3.06083 8.20442 3.46889 5.99459 3.46889H5.51747C4.79551 3.46889 4.38745 3.88323 4.38745 4.54241V15.3153C4.38745 15.8426 4.51301 16.1628 5.00269 16.4014C6.08248 16.8848 7.68963 17.1924 9.35955 17.1987C11.1801 17.1924 13.2079 16.9162 14.6204 16.2381ZM5.5677 14.7503V4.90653C5.5677 4.73703 5.65559 4.63658 5.81881 4.63658H6.12015C8.24208 4.63658 10.2636 4.19713 11.99 3.6635C12.1909 3.59445 12.3164 3.65095 12.3164 3.83929V13.0804C12.3164 13.388 12.2725 13.5198 11.9774 13.7144C10.7219 14.5933 8.5497 15.1144 5.78742 14.9763C5.63048 14.97 5.5677 14.9009 5.5677 14.7503ZM12.8815 14.5117C13.3586 14.1476 13.4904 13.8839 13.4904 13.3001V4.68052H14.0554C14.3128 4.68052 14.4321 4.81236 14.4321 5.10114V14.5557C14.4321 14.9261 14.3693 15.083 14.0115 15.2337C12.7936 15.7673 10.9981 16.1063 9.35955 16.1126C8.74431 16.1126 8.14791 16.0937 7.54524 16.0372C9.76761 15.918 11.8393 15.2965 12.8815 14.5117ZM6.77933 6.25V8.32171C6.77933 8.41588 6.85467 8.4661 6.93 8.4661C8.3802 8.4661 9.86806 8.20871 10.9981 7.7567C11.0546 7.73158 11.086 7.67508 11.086 7.61858V5.47154C11.086 5.32715 10.9541 5.29576 10.8851 5.32087C9.58555 5.80427 8.3237 6.03027 6.93 6.08677C6.84211 6.09305 6.77933 6.16211 6.77933 6.25Z" fill="#383838"/>
</svg>
