<svg width="64" height="64" viewBox="0 0 64 64" fill="none" xmlns="http://www.w3.org/2000/svg">
<circle cx="32" cy="32" r="32" fill="#FFF5F8"/>
<circle cx="47.75" cy="47.75" r="0.75" fill="black"/>
<circle cx="50.75" cy="47.75" r="0.75" fill="black"/>
<circle cx="53.75" cy="47.75" r="0.75" fill="black"/>
<path d="M24 30L31 25" stroke="black" stroke-width="1.5" stroke-linecap="round"/>
<path d="M30.6431 11.8157L18.6807 22.3978C18.2947 22.7393 18.2314 23.3182 18.5345 23.735L21.4118 27.6913C21.7367 28.1379 22.3621 28.2367 22.8087 27.9118L27.5 24.5L26.0685 39.7693C26.0277 40.2042 25.7095 40.5623 25.2824 40.6538L19.7905 41.8306C19.3294 41.9294 19 42.3369 19 42.8084V47.5C19 48.0523 19.4477 48.5 20 48.5H40C40.5523 48.5 41 48.0523 41 47.5V42.7808C41 42.3219 40.6877 41.9219 40.2425 41.8106L35.8148 40.7037C35.3436 40.5859 35.0252 40.1467 35.0598 39.6623L36.9351 13.408C36.9719 12.8933 36.611 12.4352 36.1021 12.3503L31.4701 11.5783C31.1727 11.5288 30.8689 11.616 30.6431 11.8157Z" fill="#FF2E79"/>
<path d="M39 16L37.5514 37.7291C37.5211 38.1832 37.8012 38.6004 38.2329 38.7443L42.8162 40.2721C43.2246 40.4082 43.5 40.7903 43.5 41.2208V48" stroke="black" stroke-width="1.5" stroke-linecap="round"/>
<path d="M12 48L45 48" stroke="black" stroke-width="1.5" stroke-linecap="round"/>
<path d="M24 20.5L31.5 14" stroke="white" stroke-width="1.5" stroke-linecap="round"/>
</svg>
