<svg width="20" height="20" viewBox="0 0 20 20" fill="none" xmlns="http://www.w3.org/2000/svg">
<path d="M4.62012 12.0442H5.0784C5.02818 11.6487 4.99679 11.2218 5.05957 10.8514H4.69545C3.20131 10.8514 2.14035 9.80301 2.14035 8.29632C2.14035 6.80218 3.20131 5.74121 4.69545 5.74121H10.2388C11.733 5.74121 12.7939 6.80218 12.7939 8.29632C12.7939 9.80301 11.733 10.8514 10.2388 10.8514H8.3178C8.01646 11.0523 8.04157 11.8057 8.4308 12.0442H10.3142C12.4926 12.0442 14.0495 10.5061 14.0495 8.29632C14.0495 6.09277 12.4926 4.55469 10.3142 4.55469H4.62012C2.44169 4.55469 0.884766 6.09277 0.884766 8.29632C0.884766 10.5061 2.44169 12.0442 4.62012 12.0442ZM9.68011 15.0137H15.3679C17.5526 15.0137 19.1095 13.4756 19.1095 11.272C19.1095 9.06222 17.5526 7.52414 15.3679 7.52414H14.9159C14.9661 7.91964 14.9975 8.34654 14.9347 8.71694H15.2988C16.793 8.71694 17.8539 9.76535 17.8539 11.272C17.8539 12.7662 16.793 13.8271 15.2988 13.8271H9.75544C8.2613 13.8271 7.20034 12.7662 7.20034 11.272C7.20034 9.76535 8.2613 8.71694 9.75544 8.71694H11.6765C11.9778 8.51604 11.9527 7.7627 11.5635 7.52414H9.68011C7.4954 7.52414 5.94475 9.06222 5.94475 11.272C5.94475 13.4756 7.4954 15.0137 9.68011 15.0137Z" fill="#1C1C1E"/>
</svg>
