<svg width="80" height="80" viewBox="0 0 80 80" fill="none" xmlns="http://www.w3.org/2000/svg">
<circle cx="40" cy="40" r="40" fill="#F9F7FD"/>
<ellipse cx="41.1946" cy="41.0774" rx="19.8436" ry="20.3744" transform="rotate(-32.8026 41.1946 41.0774)" fill="#EEE7FF"/>
<rect x="46" y="20" width="7" height="7" rx="3.5" fill="white"/>
<path d="M37.2992 24.8345L37.3848 40.3724C37.3879 40.9871 37.8253 41.4881 38.3578 41.4901L46.4435 41.5167C46.793 41.5185 47.1124 41.3001 47.2759 40.9474L50.2146 33.9229C50.4642 33.386 50.2835 32.7096 49.81 32.4165L38.7013 23.8756C38.0603 23.4781 37.2945 24.0018 37.2992 24.8345Z" fill="#B5A8F7"/>
<path d="M51.6152 37.2199C51.6159 37.2195 51.6161 37.2185 51.6157 37.2177C51.6066 37.2007 51.5959 37.1865 51.5863 37.1716C51.5753 37.1571 51.5643 37.1426 51.5533 37.1281C51.5394 37.1115 51.5251 37.0973 51.51 37.0815C51.4985 37.0694 51.4878 37.0587 51.4746 37.0497C51.4562 37.0343 51.4353 37.0205 51.4152 37.0082C51.4047 37.0013 51.3935 36.993 51.3818 36.987C51.3488 36.9695 51.3144 36.9529 51.2787 36.9434C51.2429 36.9338 51.2066 36.9265 51.1707 36.9231C51.158 36.9217 51.1469 36.9233 51.1329 36.9229C51.1104 36.9222 51.0866 36.9225 51.0644 36.9257C51.05 36.9275 51.0351 36.9317 51.0194 36.9344C51.0013 36.9388 50.9818 36.9441 50.9632 36.9508C50.947 36.9559 50.9316 36.9624 50.917 36.9704C50.9017 36.9769 50.8871 36.9849 50.872 36.9952C50.8556 37.0063 50.8398 37.0152 50.8242 37.0278C50.8129 37.0356 50.8032 37.0462 50.7914 37.0563C50.7801 37.0668 50.7685 37.0766 50.7573 37.0871C50.7477 37.0962 50.74 37.1074 50.7312 37.1175C50.6857 37.1706 50.6473 37.2309 50.6189 37.3004L48.1313 42.6808C47.9554 43.0614 47.6135 43.2952 47.2364 43.2928L41.9064 43.2588C41.8393 43.2546 41.7746 43.2648 41.712 43.2856C41.7062 43.2875 41.6997 43.288 41.6939 43.29C41.674 43.2976 41.6556 43.3082 41.6364 43.3172C41.6244 43.3235 41.6123 43.3298 41.5989 43.3369C41.5826 43.3481 41.5675 43.3584 41.5512 43.3695C41.5373 43.379 41.5238 43.3923 41.5108 43.4032C41.4985 43.4156 41.4862 43.428 41.4739 43.4404C41.4599 43.456 41.4479 43.4722 41.4347 43.4893C41.4244 43.5023 41.4162 43.5159 41.4067 43.5304C41.3938 43.5513 41.3824 43.5751 41.3722 43.5981C41.3665 43.61 41.3596 43.6228 41.3546 43.6361C41.3403 43.674 41.3268 43.7133 41.3194 43.7544C41.3119 43.7955 41.3065 43.8373 41.3044 43.8788C41.3035 43.8934 41.3052 43.9063 41.3051 43.9224C41.3058 43.9499 41.3058 43.9759 41.3091 44.0017C41.3111 44.0184 41.315 44.0357 41.317 44.0524C41.322 44.075 41.3263 44.0962 41.3325 44.1179C41.3373 44.1367 41.3433 44.1546 41.3505 44.1717C41.3565 44.1896 41.3646 44.2082 41.3731 44.2244C41.3823 44.2421 41.3911 44.2621 41.4017 44.2789C41.4094 44.2936 41.4189 44.3052 41.4279 44.3191C41.4412 44.338 41.4533 44.3577 41.4672 44.3743C41.4731 44.3823 41.4794 44.3879 41.4858 44.3936C41.5365 44.4511 41.5949 44.4972 41.6623 44.5313L49.7084 48.7041C50.3631 49.0434 51.0971 48.5414 51.1437 47.7225L51.7146 37.6566C51.7201 37.5728 51.712 37.4922 51.6915 37.4141C51.6889 37.4059 51.688 37.3944 51.6854 37.3862C51.6783 37.363 51.6695 37.343 51.6612 37.3206C51.6547 37.305 51.649 37.2909 51.6425 37.2753C51.6335 37.2581 51.6237 37.2395 51.6146 37.2221C51.6142 37.2214 51.6145 37.2204 51.6152 37.2199Z" fill="#B5A8F7"/>
<path d="M50.813 59.1017C49.6225 59.8605 48.3668 60.4511 47.0707 60.8802M39.5367 61.6368C37.3509 61.3934 35.18 60.7655 33.126 59.7809C29.676 58.127 26.5561 55.4665 24.2512 51.9303C18.9884 43.856 19.6851 33.8414 25.3931 27.7255" stroke="black" stroke-width="1.5" stroke-linecap="round" stroke-linejoin="round"/>
<path d="M43.6086 16.9873C45.8204 17.2386 48.0177 17.8825 50.0971 18.8906C53.5898 20.5839 56.7498 23.3048 59.0863 26.919C65.2996 36.5302 63.3372 48.8192 54.7031 54.3672C50.2834 57.2072 44.9722 57.7304 40.007 56.2753M35.9867 17.7506C34.6759 18.1872 33.4062 18.7887 32.2026 19.5621C23.5685 25.1102 21.6061 37.3992 27.8195 47.0103C29.928 50.272 32.7072 52.8061 35.7964 54.514" stroke="black" stroke-width="1.5" stroke-linecap="round" stroke-linejoin="round"/>
<circle cx="40" cy="40" r="40" fill="#F9F7FD"/>
<path d="M26 27.2571C26 24.3537 28.5584 22 31.7143 22H60.2857C63.4416 22 66 24.3537 66 27.2571V62.7429C66 65.6463 63.4416 68 60.2857 68H31.7143C28.5584 68 26 65.6463 26 62.7429V27.2571Z" fill="#EEE7FF"/>
<path d="M33.1373 47.072C29.5 45.6857 27.281 48.0559 26 48.682V53C26 55.2091 27.7909 57 30 57H50C52.2091 57 54 55.2091 54 53V39C49.0588 39 46.4291 43.2597 44 45.6857C41 48.682 36.2358 48.253 33.1373 47.072Z" fill="#B5A8F7"/>
<rect x="30" y="29" width="10" height="10" rx="5" fill="white"/>
<path d="M52 16C56.4183 16 60 19.5817 60 24V31.5M40 16H28C23.5817 16 20 19.5817 20 24V44M60 40V55C60 59.4183 56.4183 63 52 63H28C23.5817 63 20 59.4183 20 55V51.5" stroke="black" stroke-width="1.5" stroke-linecap="round"/>
<path d="M54 26C54 23.7909 52.2091 22 50 22H30C27.7909 22 26 23.7909 26 26V45.5M26 53C26 55.2091 27.7909 57 30 57H35M54 33V53C54 55.2091 52.2091 57 50 57H40" stroke="black" stroke-width="1.5" stroke-linecap="round" stroke-linejoin="round"/>
</svg>
