<svg width="120" height="121" viewBox="0 0 120 121" fill="none" xmlns="http://www.w3.org/2000/svg">
<circle cx="60" cy="61" r="60" fill="#F9F7FD"/>
<path d="M65.407 44H61.8663H58.3256H36C32.6863 44 30 46.6863 30 50V78C30 81.3137 32.6863 84 36 84H44.1628M51.2442 84H58.3256H80.6512C83.9649 84 86.6512 81.3137 86.6512 78V64V59V56.5" stroke="#7F56D9" stroke-width="3" stroke-linecap="round"/>
<path d="M70.5 68C70.5 65.5147 72.5147 63.5 75 63.5H86.5V73.5H75C72.5147 73.5 70.5 71.4853 70.5 69V68Z" stroke="#7F56D9" stroke-width="3"/>
<path d="M40.791 54.3225H48.884" stroke="#7F56D9" stroke-width="2.5" stroke-linecap="round"/>
<path fill-rule="evenodd" clip-rule="evenodd" d="M81.5036 31.941C78.9677 31.941 76.5357 32.9483 74.7425 34.7415C72.9494 36.5346 71.942 38.9666 71.942 41.5025C71.942 44.0384 72.9494 46.4704 74.7425 48.2635C76.5357 50.0567 78.9677 51.064 81.5036 51.064C84.0394 51.064 86.4715 50.0567 88.2646 48.2635C90.0577 46.4704 91.0651 44.0384 91.0651 41.5025C91.0651 38.9666 90.0577 36.5346 88.2646 34.7415C86.4715 32.9483 84.0394 31.941 81.5036 31.941ZM69 41.5025C69.0002 39.5087 69.4771 37.5438 70.3911 35.7718C71.3051 33.9998 72.6296 32.4721 74.2541 31.3161C75.8786 30.1601 77.7559 29.4094 79.7296 29.1265C81.7032 28.8436 83.7159 29.0368 85.5997 29.69C87.4835 30.3432 89.1838 31.4373 90.5587 32.8813C91.9336 34.3252 92.9433 36.077 93.5035 37.9905C94.0636 39.904 94.1581 41.9237 93.779 43.8811C93.3999 45.8386 92.5581 47.677 91.324 49.2429L96.6961 54.6151C96.9641 54.8925 97.1124 55.2641 97.109 55.6498C97.1056 56.0355 96.9509 56.4044 96.6782 56.6771C96.4055 56.9499 96.0365 57.1046 95.6508 57.1079C95.2651 57.1113 94.8936 56.963 94.6161 56.6951L89.244 51.3229C87.4003 52.7763 85.1846 53.6812 82.8506 53.9341C80.5166 54.187 78.1585 53.7778 76.0463 52.7531C73.934 51.7284 72.1529 50.1298 70.9068 48.1401C69.6606 46.1505 68.9998 43.8502 69 41.5025Z" fill="#7F56D9"/>
<path d="M82.7835 47.386C82.9528 47.1326 83.0432 46.8346 83.0432 46.5298C83.0432 46.1211 82.8809 45.7291 82.5919 45.4401C82.3028 45.1511 81.9109 44.9887 81.5021 44.9887C81.1973 44.9887 80.8994 45.0791 80.646 45.2484C80.3925 45.4178 80.195 45.6585 80.0784 45.9401C79.9617 46.2216 79.9312 46.5315 79.9907 46.8304C80.0501 47.1294 80.1969 47.404 80.4124 47.6195C80.628 47.835 80.9026 47.9818 81.2015 48.0413C81.5004 48.1007 81.8103 48.0702 82.0919 47.9536C82.3735 47.8369 82.6142 47.6394 82.7835 47.386Z" fill="#7F56D9"/>
<path d="M77.2642 39.2096C77.2642 37.0849 79.1655 35.3569 81.5021 35.3569C83.8388 35.3569 85.7401 37.0849 85.7401 39.2096C85.7401 40.979 84.4215 42.4729 82.632 42.9237C82.5717 43.2028 82.4103 43.4497 82.1788 43.6169C81.9473 43.7841 81.6621 43.8596 81.3782 43.829C81.0943 43.7984 80.8317 43.6637 80.6412 43.451C80.4507 43.2383 80.3456 42.9626 80.3463 42.6771V41.9065C80.3463 41.6 80.4681 41.306 80.6849 41.0893C80.9016 40.8725 81.1956 40.7507 81.5021 40.7507C82.5616 40.7507 83.4285 40.0592 83.4285 39.2096C83.4285 38.3601 82.5616 37.6686 81.5021 37.6686C80.4426 37.6686 79.5758 38.3601 79.5758 39.2096V39.5949C79.5758 39.9015 79.454 40.1954 79.2373 40.4122C79.0205 40.629 78.7265 40.7507 78.42 40.7507C78.1134 40.7507 77.8194 40.629 77.6027 40.4122C77.3859 40.1954 77.2642 39.9015 77.2642 39.5949V39.2096Z" fill="#7F56D9"/>
<circle cx="60" cy="60" r="60" fill="#F9F7FD"/>
<path d="M36 62C36 58.6863 38.6863 56 42 56H86V84C86 87.3137 83.3137 90 80 90H36V62Z" fill="#B5A8F7"/>
<path d="M68.75 68.998C68.75 66.0986 71.1005 63.748 74 63.748H86.25V75.248H74C71.1005 75.248 68.75 72.8975 68.75 69.998V68.998Z" stroke="black" stroke-width="1.5"/>
<circle cx="31.5" cy="34.5" r="1.5" fill="black"/>
<circle cx="36.5" cy="34.5" r="1.5" fill="black"/>
<circle cx="41.5" cy="34.5" r="1.5" fill="black"/>
<circle cx="46.5" cy="34.5" r="1.5" fill="black"/>
<circle cx="51.5" cy="34.5" r="1.5" fill="black"/>
<circle cx="56.5" cy="34.5" r="1.5" fill="black"/>
<rect x="30.75" y="51.748" width="55.5" height="37.5" rx="5.25" stroke="black" stroke-width="1.5"/>
<path d="M40.791 61.3213H48.884" stroke="black" stroke-width="1.5" stroke-linecap="round"/>
<circle cx="79" cy="45.999" r="14.25" fill="white" stroke="black" stroke-width="1.5"/>
<mask id="mask0_3768_2049" style="mask-type:alpha" maskUnits="userSpaceOnUse" x="66" y="32" width="26" height="27">
<circle cx="79" cy="45.999" r="12.25" fill="white" stroke="black" stroke-width="1.5"/>
</mask>
<g mask="url(#mask0_3768_2049)">
<path d="M65 49H74C77.3137 49 80 51.6863 80 55V60H65V49Z" fill="#B5A8F7" fill-opacity="0.5"/>
</g>
<path d="M65 43.999H73.3902C77.593 43.999 81 46.3409 81 49.2298V59.999" stroke="black" stroke-width="1.5"/>
<path d="M90 54.999L98.1317 63.1308" stroke="black" stroke-width="1.5" stroke-linecap="round"/>
</svg>
