<svg width="60" height="61" viewBox="0 0 60 61" fill="none" xmlns="http://www.w3.org/2000/svg">
<circle cx="42" cy="29.5" r="5" fill="#D9D9D9"/>
<circle cx="30" cy="30.5" r="30" fill="white"/>
<circle cx="30" cy="30.5" r="30" fill="#7F56D9" fill-opacity="0.05"/>
<path d="M39.5 43V33.5H44L45.5 36.5L45 37L43.5 39L45 41.5L41.5 45L39.5 43Z" fill="#F7A8EA"/>
<circle cx="42" cy="29.5" r="5" fill="#F7A8EA"/>
<circle cx="27.5" cy="23" r="5.5" fill="#F7A8EA"/>
<path d="M19 44.5H36V37.2273L33.7027 34.5H23.0234C19 34.5 19 38.3095 19 40.2143V44.5Z" fill="#F7A8EA"/>
<path d="M16.7097 36.5C16.2567 37.6215 16.0466 38.727 16 39.569V43.5C16 44.0523 16.4477 44.5 17 44.5H26H27H28.75M18.219 34C18.5893 33.5757 19.0143 33.1828 19.5 32.84C20.6481 32.0298 22.1356 31.5 24.0426 31.5C28.6997 31.5 31.3797 31.5 32.6459 31.5C33.105 31.5 33.499 31.8146 33.6654 32.2425C34.0788 33.3057 34.9021 34.6896 36.1933 35.2849C36.6371 35.4894 37 35.8925 37 36.3812V43.5C37 44.0523 36.5523 44.5 36 44.5H34.75" stroke="black" stroke-width="1.5" stroke-linecap="round" stroke-linejoin="round"/>
<path d="M19.6321 21.4954C19.4892 22.9232 19.7767 24.4076 20.5489 25.7451C22.509 29.1401 26.8501 30.3033 30.245 28.3432C33.6399 26.3831 34.8031 22.042 32.8431 18.6471C30.883 15.2522 26.5419 14.089 23.1469 16.049C22.4761 16.4363 21.8924 16.9166 21.4027 17.4642" stroke="black" stroke-width="1.5" stroke-linecap="round"/>
<path fill-rule="evenodd" clip-rule="evenodd" d="M36.7671 29.069C36.7671 26.2894 39.0203 24.0362 41.7998 24.0362C42.68 24.0362 43.5053 24.2615 44.2235 24.657C44.5863 24.8568 45.0424 24.7246 45.2422 24.3618C45.442 23.9989 45.3099 23.5428 44.947 23.343C44.0128 22.8286 42.9394 22.5362 41.7998 22.5362C38.1919 22.5362 35.2671 25.461 35.2671 29.069C35.2671 31.6068 36.7141 33.8052 38.8257 34.8868V42.8892C38.8257 43.3533 39.0101 43.7985 39.3383 44.1266L40.5624 45.3508C41.2458 46.0342 42.3539 46.0342 43.0373 45.3508L45.6879 42.7002C46.3279 42.0602 46.3743 41.0377 45.7948 40.3424L44.74 39.0766C44.6572 38.9772 44.6638 38.8312 44.7552 38.7397L45.7691 37.7259C46.3469 37.148 46.4479 36.2472 46.0124 35.5558L45.3721 34.5392C47.1538 33.3734 48.3326 31.3594 48.3326 29.069C48.3326 28.6547 47.9968 28.319 47.5826 28.319C47.1684 28.319 46.8326 28.6547 46.8326 29.069C46.8326 31.0735 45.6607 32.8058 43.9614 33.6154C43.5874 33.7935 43.4287 34.2411 43.6068 34.615C43.6564 34.719 43.7267 34.8063 43.8104 34.8743L44.7432 36.3552C44.8054 36.454 44.791 36.5827 44.7084 36.6652L43.6946 37.6791C43.0546 38.3191 43.0082 39.3415 43.5876 40.0368L44.6425 41.3027C44.7253 41.402 44.7187 41.5481 44.6272 41.6395L41.9766 44.2901C41.879 44.3878 41.7207 44.3878 41.6231 44.2901L40.3989 43.066C40.352 43.0191 40.3257 42.9555 40.3257 42.8892V34.4259C40.326 34.4145 40.326 34.4031 40.3257 34.3917V34.1749H40.2884C40.2228 33.9749 40.0738 33.8036 39.8644 33.7163C38.0442 32.9572 36.7671 31.1614 36.7671 29.069ZM46.94 25.0367C46.6842 24.711 46.2127 24.6543 45.8869 24.9102C45.5612 25.166 45.5045 25.6375 45.7604 25.9633C46.0688 26.3559 46.3198 26.7952 46.5012 27.2684C46.6494 27.6552 47.0831 27.8486 47.4699 27.7003C47.8567 27.5521 48.0501 27.1184 47.9018 26.7316C47.6659 26.1161 47.3398 25.5458 46.94 25.0367Z" fill="black"/>
</svg>
