<svg width="31" height="30" viewBox="0 0 31 30" fill="none" xmlns="http://www.w3.org/2000/svg">
<path d="M6.70257 20.129H7.93617C8.21868 20.129 8.33168 20.0725 8.53885 19.9124L9.16978 19.4321C9.51821 19.7805 10.0361 19.8559 10.5541 19.6299L13.671 18.3303C13.9065 18.2362 14.0289 18.142 14.1795 17.9913L23.2762 8.96057C24.1802 8.05655 24.1802 6.97361 23.2668 6.05076L21.2234 3.99789C20.3099 3.08445 19.227 3.07504 18.323 3.97905L9.22628 13.0004C9.0662 13.1605 8.98145 13.2735 8.87786 13.5183L7.5595 16.6259C7.34291 17.125 7.39941 17.6147 7.74784 18.0007L6.39181 19.4039C6.09989 19.7146 6.24114 20.129 6.70257 20.129ZM19.3682 5.22208C19.6131 4.98666 19.905 4.97724 20.131 5.21266L22.052 7.14312C22.2875 7.37854 22.278 7.66104 22.0238 7.90588L21.4117 8.51798L18.7467 5.84359L19.3682 5.22208ZM10.8931 13.6502L17.7297 6.86061L20.3853 9.535L13.558 16.3245L10.8931 13.6502ZM10.3657 17.9631C10.1868 18.029 10.0644 18.029 9.9043 17.8689L9.31104 17.2851C9.16037 17.1344 9.16037 16.9931 9.22628 16.8331L10.0738 14.8649L12.3338 17.1438L10.3657 17.9631ZM6.38239 23.4719H24.4533C24.9053 23.4719 25.2726 23.0858 25.2726 22.6338C25.2726 22.1818 24.9053 21.8052 24.4533 21.8052H6.38239C5.92097 21.8052 5.55371 22.1818 5.55371 22.6338C5.55371 23.0858 5.93039 23.4719 6.38239 23.4719Z" fill="black"/>
</svg>
