<svg width="20" height="20" viewBox="0 0 20 20" fill="none" xmlns="http://www.w3.org/2000/svg">
<path d="M3.35797 16.5454C4.44405 17.6315 6.02608 17.6503 7.12471 16.401C8.27984 15.0889 9.58565 12.6217 11.3937 10.8137C12.7246 9.48903 14.2313 10.7258 16.1335 9.08097C17.0689 8.34645 17.6214 7.13482 17.4016 6.14919L14.903 6.83348C14.5389 6.92765 14.2878 6.70164 14.1811 6.31869L13.9927 5.67834C13.886 5.29539 14.0178 4.97522 14.3757 4.88105L16.8806 4.20304C16.799 3.93937 16.5792 3.57525 16.2842 3.26763C14.79 1.7421 12.2851 1.7421 10.8224 3.13579C8.65024 5.19495 10.2511 7.31688 8.92647 8.64152C7.2691 10.2926 4.80817 11.6235 3.48981 12.7787C2.24678 13.871 2.26561 15.4593 3.35797 16.5454ZM4.06737 15.836C3.40819 15.158 3.40819 14.1598 4.19293 13.4755C5.49873 12.3329 8.12918 10.8639 9.64215 9.35092C11.3058 7.68727 9.56054 5.67207 11.5444 3.8452C12.5049 2.95374 14.1371 2.87212 15.2797 3.66942L14.1434 3.97076C13.1829 4.21559 12.7623 4.96266 13.0511 5.95457L13.2331 6.56981L13.9111 9.07469C12.8439 9.2128 11.7264 9.05586 10.678 10.098C9.02064 11.7491 7.57044 14.3984 6.42786 15.7104C5.73102 16.5077 4.72655 16.5077 4.06737 15.836ZM11.2556 7.04693L12.5802 6.69536C12.6995 6.66398 12.7685 6.5447 12.7309 6.41914C12.6995 6.29986 12.5802 6.2308 12.4672 6.26219L11.13 6.62003C11.0107 6.65142 10.948 6.77698 10.9731 6.88998C11.0107 7.01554 11.1237 7.0846 11.2556 7.04693ZM11.4188 7.73122L12.7434 7.37338C12.8627 7.34827 12.9318 7.22899 12.8941 7.09715C12.8627 6.97787 12.7434 6.91509 12.6304 6.9402L11.2932 7.29804C11.174 7.32943 11.1112 7.45499 11.1426 7.56799C11.174 7.69983 11.287 7.76261 11.4188 7.73122ZM15.0725 7.75005L16.2779 7.4236C16.1335 7.72494 15.9389 8.01372 15.6752 8.27112C15.3237 8.6164 14.9595 8.81102 14.5829 8.9303L14.2752 7.794C14.5138 7.84422 14.7775 7.83167 15.0725 7.75005ZM11.582 8.40923L12.9192 8.05139C13.0322 8.02 13.1076 7.89444 13.0762 7.76889C13.0448 7.65588 12.9255 7.58683 12.7999 7.62449L11.469 7.98234C11.3497 8.01372 11.287 8.12673 11.3058 8.24601C11.3309 8.37784 11.4627 8.44062 11.582 8.40923ZM5.21623 15.4342C5.63057 15.4342 5.95702 15.1015 5.95702 14.6871C5.95702 14.2791 5.63057 13.9463 5.21623 13.9463C4.80817 13.9463 4.47544 14.2791 4.47544 14.6871C4.47544 15.1015 4.80817 15.4342 5.21623 15.4342Z" fill="#1C1C1E"/>
</svg>
