<svg width="40" height="40" viewBox="0 0 40 40" fill="none" xmlns="http://www.w3.org/2000/svg">
<path d="M19.9876 32.4888C27.1067 32.4888 32.9828 26.6127 32.9828 19.5061C32.9828 12.3996 27.0942 6.52344 19.975 6.52344C12.8684 6.52344 7.00488 12.3996 7.00488 19.5061C7.00488 26.6127 12.881 32.4888 19.9876 32.4888ZM19.9876 29.9023C14.2245 29.9023 9.61649 25.2693 9.61649 19.5061C9.61649 13.743 14.2245 9.12249 19.975 9.12249C25.7381 9.12249 30.3712 13.743 30.3838 19.5061C30.3963 25.2693 25.7507 29.9023 19.9876 29.9023ZM15.3545 20.6989H18.7948V24.1518C18.7948 24.8424 19.2845 25.332 19.9625 25.332C20.6656 25.332 21.1678 24.8424 21.1678 24.1518V20.6989H24.6207C25.3112 20.6989 25.8135 20.2093 25.8135 19.5187C25.8135 18.8281 25.3238 18.3259 24.6207 18.3259H21.1678V14.873C21.1678 14.1699 20.6656 13.6802 19.9625 13.6802C19.2845 13.6802 18.7948 14.1699 18.7948 14.873V18.3259H15.3545C14.6388 18.3259 14.1491 18.8281 14.1491 19.5187C14.1491 20.2093 14.6514 20.6989 15.3545 20.6989Z" fill="#1E1E1E"/>
</svg>
