<svg width="16" height="16" viewBox="0 0 16 16" fill="none" xmlns="http://www.w3.org/2000/svg">
<g clip-path="url(#clip0_1821_2084)">
<path d="M8.0002 9.6C7.05085 9.6 6.12282 9.31849 5.33346 8.79106C4.5441 8.26363 3.92888 7.51397 3.56558 6.63688C3.20228 5.7598 3.10722 4.79468 3.29243 3.86357C3.47764 2.93246 3.93479 2.07718 4.60609 1.40589C5.27738 0.734598 6.13266 0.277442 7.06376 0.0922328C7.99487 -0.0929762 8.95999 0.00207977 9.83708 0.36538C10.7142 0.728681 11.4638 1.34391 11.9913 2.13327C12.5187 2.92262 12.8002 3.85065 12.8002 4.8C12.7987 6.07259 12.2925 7.29262 11.3927 8.19248C10.4928 9.09233 9.27278 9.59852 8.0002 9.6Z" fill="#A3ADC1"/>
<path d="M10.9605 8.57031C10.1169 9.23637 9.07339 9.59865 7.99852 9.59865C6.92365 9.59865 5.88015 9.23637 5.03652 8.57031C3.69081 9.10693 2.51623 9.99918 1.63836 11.1517C0.760494 12.3042 0.212347 13.6736 0.052522 15.1135C0.02964 15.3244 0.0914556 15.5358 0.224375 15.7011C0.357295 15.8664 0.550435 15.9722 0.761322 15.9951L15.1525 15.9999C15.2649 16 15.3761 15.9764 15.4788 15.9307C15.5814 15.8849 15.6733 15.8181 15.7484 15.7344C15.8235 15.6508 15.8802 15.5523 15.9146 15.4453C15.9491 15.3383 15.9607 15.2253 15.9485 15.1135C15.7882 13.6734 15.2396 12.3039 14.3614 11.1515C13.4831 9.99897 12.3081 9.1068 10.9621 8.57031H10.9605Z" fill="#D4DBEB"/>
</g>
<defs>
<clipPath id="clip0_1821_2084">
<rect width="16" height="16" fill="white"/>
</clipPath>
</defs>
</svg>
