<svg width="18" height="18" viewBox="0 0 18 18" fill="none" xmlns="http://www.w3.org/2000/svg">
<path d="M8.99922 2.7002C7.7532 2.7002 6.53516 3.06968 5.49913 3.76194C4.4631 4.45419 3.65561 5.43811 3.17878 6.58929C2.70195 7.74046 2.57719 9.00718 2.82027 10.2293C3.06336 11.4513 3.66338 12.5739 4.54445 13.455C5.42552 14.336 6.54807 14.9361 7.77015 15.1791C8.99223 15.4222 10.259 15.2975 11.4101 14.8206C12.5613 14.3438 13.5452 13.5363 14.2375 12.5003C14.9297 11.4643 15.2992 10.2462 15.2992 9.00019C15.2992 8.17287 15.1363 7.35364 14.8197 6.58929C14.5031 5.82494 14.039 5.13043 13.454 4.54542C12.869 3.96041 12.1745 3.49636 11.4101 3.17975C10.6458 2.86315 9.82655 2.7002 8.99922 2.7002ZM8.99922 14.0402C8.0024 14.0402 7.02797 13.7446 6.19915 13.1908C5.37032 12.637 4.72433 11.8499 4.34287 10.9289C3.9614 10.008 3.86159 8.9946 4.05606 8.01694C4.25053 7.03927 4.73055 6.14123 5.4354 5.43638C6.14026 4.73152 7.0383 4.25151 8.01596 4.05704C8.99363 3.86257 10.007 3.96238 10.9279 4.34384C11.8489 4.72531 12.636 5.3713 13.1898 6.20012C13.7436 7.02894 14.0392 8.00338 14.0392 9.00019C14.0392 10.3369 13.5082 11.6188 12.563 12.564C11.6179 13.5092 10.3359 14.0402 8.99922 14.0402Z" fill="#CBCBCB"/>
<path d="M9.11907 5.84961H8.87967C8.41016 5.84961 7.95988 6.03612 7.62788 6.36812C7.29589 6.70011 7.10938 7.1504 7.10938 7.61991V7.73961C7.10938 7.9067 7.17575 8.06694 7.2939 8.18509C7.41205 8.30323 7.57229 8.36961 7.73937 8.36961C7.90646 8.36961 8.0667 8.30323 8.18485 8.18509C8.303 8.06694 8.36937 7.9067 8.36937 7.73961V7.61991C8.36937 7.48457 8.42314 7.35477 8.51884 7.25907C8.61454 7.16337 8.74433 7.10961 8.87967 7.10961H9.11907C9.18968 7.11028 9.25941 7.12542 9.32394 7.1541C9.38847 7.18277 9.44643 7.22437 9.49426 7.27632C9.54208 7.32828 9.57874 7.38949 9.60198 7.45617C9.62522 7.52285 9.63454 7.59358 9.62937 7.66401C9.62989 7.75952 9.6036 7.85325 9.55348 7.93455C9.50336 8.01586 9.43143 8.08146 9.34587 8.12391C9.05067 8.26872 8.80237 8.49398 8.62961 8.77375C8.45684 9.05352 8.36663 9.37641 8.36937 9.70521C8.36937 9.87229 8.43575 10.0325 8.5539 10.1507C8.67205 10.2688 8.83229 10.3352 8.99937 10.3352C9.16646 10.3352 9.3267 10.2688 9.44485 10.1507C9.563 10.0325 9.62937 9.87229 9.62937 9.70521C9.62886 9.6097 9.65515 9.51597 9.70527 9.43466C9.75539 9.35336 9.82732 9.28776 9.91287 9.24531C10.2709 9.06319 10.5575 8.76628 10.7268 8.40208C10.8962 8.03787 10.9385 7.6274 10.8471 7.23629C10.7557 6.84517 10.5357 6.49601 10.2225 6.24463C9.90921 5.99324 9.52071 5.85416 9.11907 5.84961ZM9.44667 11.0723L9.35217 10.9967L9.23877 10.94C9.20126 10.9208 9.1608 10.908 9.11907 10.9022C9.03825 10.8834 8.95419 10.8834 8.87337 10.9022L8.75997 10.94L8.64657 10.9967L8.55207 11.0723C8.49472 11.1322 8.44976 11.2029 8.41977 11.2802C8.38644 11.3556 8.36923 11.4372 8.36923 11.5196C8.36923 11.6021 8.38644 11.6836 8.41977 11.759C8.45168 11.8354 8.49643 11.9057 8.55207 11.9669C8.61064 12.026 8.68032 12.0728 8.75709 12.1048C8.83386 12.1368 8.91621 12.1533 8.99937 12.1533C9.08254 12.1533 9.16489 12.1368 9.24166 12.1048C9.31843 12.0728 9.38811 12.026 9.44667 11.9669C9.50232 11.9057 9.54707 11.8354 9.57897 11.759C9.6123 11.6836 9.62952 11.6021 9.62952 11.5196C9.62952 11.4372 9.6123 11.3556 9.57897 11.2802C9.54899 11.2029 9.50403 11.1322 9.44667 11.0723Z" fill="#CBCBCB"/>
</svg>
