<svg width="29" height="28" viewBox="0 0 29 28" fill="none" xmlns="http://www.w3.org/2000/svg">
<path d="M21.5593 11.4089C22.0841 11.4089 22.3666 11.1183 22.3666 10.5935V8.63179C22.3666 6.90417 21.4625 6 19.7106 6H17.7489C17.2241 6 16.9335 6.28255 16.9335 6.8073C16.9335 7.32397 17.2241 7.60652 17.7489 7.60652H19.6057C20.3403 7.60652 20.7601 7.99403 20.7601 8.77711V10.5935C20.7601 11.1183 21.0427 11.4089 21.5593 11.4089ZM7.16521 11.4089C7.68995 11.4089 7.96443 11.1183 7.96443 10.5935V8.77711C7.96443 7.99403 8.37616 7.60652 9.11887 7.60652H10.9757C11.5004 7.60652 11.791 7.32397 11.791 6.8073C11.791 6.28255 11.5004 6 10.9757 6H9.01392C7.27016 6 6.35791 6.8961 6.35791 8.63179V10.5935C6.35791 11.1183 6.64854 11.4089 7.16521 11.4089ZM9.01392 22.0087H10.9757C11.5004 22.0087 11.791 21.7181 11.791 21.2014C11.791 20.6848 11.5004 20.3941 10.9757 20.3941H9.11887C8.37616 20.3941 7.96443 20.0147 7.96443 19.2316V17.4152C7.96443 16.8905 7.68188 16.5998 7.16521 16.5998C6.64046 16.5998 6.35791 16.8905 6.35791 17.4152V19.3769C6.35791 21.1046 7.27016 22.0087 9.01392 22.0087ZM17.7489 22.0087H19.7106C21.4625 22.0087 22.3666 21.1046 22.3666 19.3769V17.4152C22.3666 16.8905 22.076 16.5998 21.5593 16.5998C21.0346 16.5998 20.7601 16.8905 20.7601 17.4152V19.2316C20.7601 20.0147 20.3403 20.3941 19.6057 20.3941H17.7489C17.2241 20.3941 16.9335 20.6848 16.9335 21.2014C16.9335 21.7181 17.2241 22.0087 17.7489 22.0087Z" fill="black"/>
<path fill-rule="evenodd" clip-rule="evenodd" d="M16.0358 8.85718C15.6098 8.85718 15.2644 9.20256 15.2644 9.62861V12.321C15.2644 12.7471 15.6098 13.0925 16.0358 13.0925H18.7283C19.1543 13.0925 19.4997 12.7471 19.4997 12.321V9.62861C19.4997 9.20256 19.1543 8.85718 18.7283 8.85718H16.0358ZM9.98655 8.85718C9.5605 8.85718 9.21512 9.20256 9.21512 9.62861V12.321C9.21512 12.7471 9.5605 13.0925 9.98655 13.0925H12.679C13.105 13.0925 13.4504 12.7471 13.4504 12.321V9.62861C13.4504 9.20256 13.105 8.85718 12.679 8.85718H9.98655ZM9.98652 14.9064C9.56047 14.9064 9.21509 15.2518 9.21509 15.6779V18.3703C9.21509 18.7964 9.56047 19.1417 9.98652 19.1417H12.6789C13.105 19.1417 13.4504 18.7964 13.4504 18.3703V15.6779C13.4504 15.2518 13.105 14.9064 12.6789 14.9064H9.98652ZM16.0358 14.9064C15.6098 14.9064 15.2644 15.2518 15.2644 15.6779V18.3703C15.2644 18.7964 15.6098 19.1417 16.0358 19.1417H18.7283C19.1543 19.1417 19.4997 18.7964 19.4997 18.3703V15.6779C19.4997 15.2518 19.1543 14.9064 18.7283 14.9064H16.0358Z" fill="black"/>
</svg>
