<svg width="40" height="40" viewBox="0 0 40 40" fill="none" xmlns="http://www.w3.org/2000/svg">
<path d="M19.9873 32.4888C27.1065 32.4888 32.9826 26.6127 32.9826 19.5061C32.9826 12.3996 27.0939 6.52344 19.9748 6.52344C12.8682 6.52344 7.00464 12.3996 7.00464 19.5061C7.00464 26.6127 12.8808 32.4888 19.9873 32.4888ZM19.9873 29.9023C14.2242 29.9023 9.61625 25.2693 9.61625 19.5061C9.61625 13.743 14.2242 9.12249 19.9748 9.12249C25.7379 9.12249 30.371 13.743 30.3835 19.5061C30.3961 25.2693 25.7505 29.9023 19.9873 29.9023ZM23.8922 22.8083C24.5325 22.8083 24.9343 22.3312 24.9343 21.6532V15.8147C24.9343 14.9484 24.4446 14.5466 23.6536 14.5466H17.7775C17.0995 14.5466 16.6601 14.9609 16.6601 15.5887C16.6601 16.2165 17.0995 16.6309 17.7901 16.6309H19.912L21.607 16.43L19.7613 18.1124L15.3668 22.507C15.1534 22.7204 15.0152 23.0218 15.0152 23.3231C15.0152 23.9886 15.4798 24.428 16.1327 24.428C16.4717 24.428 16.7479 24.315 16.9865 24.0765L21.3559 19.707L23.0384 17.8739L22.8501 19.6694V21.6657C22.8501 22.3563 23.2644 22.8083 23.8922 22.8083Z" fill="#1E1E1E"/>
</svg>
