<svg width="29" height="28" viewBox="0 0 29 28" fill="none" xmlns="http://www.w3.org/2000/svg">
<path d="M22.1567 12.4903C22.1567 13.119 21.7841 13.5498 21.2019 13.5498C20.608 13.5498 20.2354 13.1423 20.2354 12.5019V10.6505L20.3984 8.98549L18.8498 10.6738L14.7861 14.7375C14.5649 14.9471 14.3087 15.0635 13.9943 15.0635C13.4005 15.0635 12.958 14.656 12.958 14.0272C12.958 13.7478 13.0977 13.48 13.2957 13.282L17.371 9.20672L19.0827 7.63482L17.4991 7.82112H15.5429C14.9025 7.82112 14.4834 7.44852 14.4834 6.85469C14.4834 6.2725 14.8909 5.8999 15.5313 5.8999H20.969C21.7025 5.8999 22.1567 6.26086 22.1567 7.07592V12.4903Z" fill="#1E1E1E"/>
<path fill-rule="evenodd" clip-rule="evenodd" d="M11.3579 5.48926H10.9741C9.3833 5.48926 8.13525 5.67383 7.22998 6.5791C6.32471 7.47559 6.15771 8.71484 6.15771 10.3057V17.0029C6.15771 18.6201 6.32471 19.8594 7.22998 20.7559C8.13525 21.6611 9.3833 21.8369 10.9917 21.8369H17.7241C19.3325 21.8369 20.5894 21.6611 21.4946 20.7559C22.3911 19.8506 22.5581 18.6201 22.5581 17.0029V16.5H20.8091V17.249C20.8091 18.1631 20.6948 18.9893 20.2114 19.4727C19.7192 19.9648 18.8843 20.0879 17.9702 20.0879H10.7544C9.84033 20.0879 8.99658 19.9561 8.51318 19.4727C8.02979 18.9893 7.90674 18.1631 7.90674 17.249V10.1035C7.90674 9.17188 8.02979 8.33691 8.51318 7.85352C8.99658 7.37012 9.84033 7.24707 10.772 7.24707H11.3579V5.48926Z" fill="#1E1E1E"/>
</svg>
