<svg width="120" height="120" viewBox="0 0 120 120" fill="none" xmlns="http://www.w3.org/2000/svg">
<path d="M8 60C8 31.2812 31.2812 8 60 8" stroke="#E7DFF8" stroke-width="2.94194" stroke-linecap="round" stroke-linejoin="round"/>
<path d="M112 60C112 88.7188 88.7188 112 60 112" stroke="#E7DFF8" stroke-width="2.94194" stroke-linecap="round" stroke-linejoin="round"/>
<path d="M82.5571 25C87.5278 26.3319 90.8945 30.662 91.2328 35.5232M89.4793 44.5232L83.0815 68.3999C81.4035 74.6624 74.9664 78.3789 68.7039 76.7009C62.4413 75.0228 58.7249 68.5857 60.4029 62.3232L68.1794 33.3009C68.9101 30.5738 70.5434 28.3295 72.6716 26.8032" stroke="#7F56D9" stroke-width="3" stroke-linecap="round"/>
<path d="M82.1716 25.0232L65.6716 86.0232" stroke="#7F56D9" stroke-width="3" stroke-linecap="round"/>
<path d="M78 43L91 36" stroke="#7F56D9" stroke-width="3" stroke-linecap="round"/>
<path d="M78.6716 36.5232L73.1716 27.0232" stroke="#7F56D9" stroke-width="3" stroke-linecap="round"/>
<path d="M74.1716 52.0232L67.1716 40.0232" stroke="#7F56D9" stroke-width="3" stroke-linecap="round"/>
<path d="M89.1716 44.5232L75.1716 52.5232" stroke="#7F56D9" stroke-width="3" stroke-linecap="round"/>
<path d="M86.1716 57.0232L72.1716 65.0232" stroke="#7F56D9" stroke-width="3" stroke-linecap="round"/>
<path d="M16 86.4568C17.5597 86.793 18.9423 86.6032 20.4815 86.1885C25.1482 84.9311 29.4561 83.0449 33.0368 79.8716C35.4902 77.6973 37.0225 74.9749 38.2534 72.0564C39.0219 70.2342 40.1126 67.3725 39.2611 65.4152C39.0421 64.9116 38.7987 64.8302 38.4549 65.3705C37.1937 67.3529 36.8172 70.2271 36.6054 72.4813C35.9889 79.0429 39.8483 86.4195 47.0504 88.078C48.9402 88.5132 51.1508 88.2943 52.9309 87.5749C53.329 87.414 54.1336 86.3992 53.8438 86.7028C52.9967 87.5904 53.1138 89.0989 53.1324 90.2135C53.1716 92.5592 56.912 98.9169 63.9802 99.75C71.0483 100.583 75.0242 99.3334 79 96.0007" stroke="#7F56D9" stroke-width="3" stroke-linecap="round"/>
<circle cx="60" cy="60" r="60" fill="#F9F7FD"/>
<path d="M8 60C8 31.2812 31.2812 8 60 8" stroke="#E7DFF8" stroke-width="2.94194" stroke-linecap="round" stroke-linejoin="round"/>
<path d="M112 60C112 88.7188 88.7188 112 60 112" stroke="#E7DFF8" stroke-width="2.94194" stroke-linecap="round" stroke-linejoin="round"/>
<path d="M8 60C8 31.2812 31.2812 8 60 8" stroke="black" stroke-width="1.5" stroke-linecap="round" stroke-linejoin="round"/>
<path d="M112 60C112 88.7188 88.7188 112 60 112" stroke="black" stroke-width="1.5" stroke-linecap="round" stroke-linejoin="round"/>
<path d="M100.397 36.6187L96.8916 35.5846" stroke="black" stroke-width="1.5" stroke-linecap="round" stroke-linejoin="round"/>
<path d="M91 23.3887L92.3687 19.9999" stroke="black" stroke-width="1.5" stroke-linecap="round" stroke-linejoin="round"/>
<path d="M99.2493 26.6714L93.8466 29.2813" stroke="black" stroke-width="1.5" stroke-linecap="round" stroke-linejoin="round"/>
<rect x="67.366" y="20.4851" width="19.6387" height="52" rx="9.81933" transform="rotate(20.5561 67.366 20.4851)" fill="#B5A8F7"/>
<path d="M74.9468 22.1704C79.7594 23.9929 82.676 28.638 82.5263 33.5087M79.8812 42.2882L71.1269 65.4051C68.8308 71.4683 62.0542 74.5222 55.991 72.226C49.9278 69.9299 46.8739 63.1533 49.17 57.0901L59.8109 28.9914C60.8108 26.351 62.6603 24.2814 64.9306 22.9756" stroke="black" stroke-width="1.5" stroke-linecap="round"/>
<path d="M46.6431 79.7266L52.8603 77.0848C53.3627 76.8714 53.9435 77.1002 54.1652 77.5991L56.7866 83.4973C56.9438 83.8511 56.8827 84.2639 56.6297 84.5569L48.4362 94.0463C47.8469 94.7289 46.7262 94.344 46.6806 93.4434L46.0354 80.6975C46.0142 80.2784 46.2569 79.8906 46.6431 79.7266Z" fill="white" stroke="black" stroke-width="1.5" stroke-linecap="round"/>
<path d="M74.5612 22.1551L50.5001 84.4998" stroke="black" stroke-width="1.5" stroke-linecap="round"/>
<path d="M68.612 39.6243L82.247 33.9599" stroke="black" stroke-width="1.5" stroke-linecap="round"/>
<path d="M69.928 33.2473L65.406 23.2447" stroke="black" stroke-width="1.5" stroke-linecap="round"/>
<path d="M63.9001 48.2193L58.1357 35.5793" stroke="black" stroke-width="1.5" stroke-linecap="round"/>
<path d="M79.575 42.2575L64.8449 48.8168" stroke="black" stroke-width="1.5" stroke-linecap="round"/>
<path d="M75.3397 54.3947L60.6096 60.954" stroke="black" stroke-width="1.5" stroke-linecap="round"/>
<path d="M21 85H39" stroke="black" stroke-width="1.5" stroke-linecap="round"/>
<path d="M47 95L86 95" stroke="black" stroke-width="1.5" stroke-linecap="round"/>
<path d="M63 85H72" stroke="black" stroke-width="1.5" stroke-linecap="round"/>
<path d="M27 95L39 95" stroke="black" stroke-width="1.5" stroke-linecap="round"/>
</svg>
