<svg width="24" height="24" viewBox="0 0 24 24" fill="none" xmlns="http://www.w3.org/2000/svg">
<path d="M16.8837 4.75879H20.0116C21.1162 4.75879 22.0116 5.65422 22.0116 6.75879V17.2415C22.0116 18.3461 21.1162 19.2415 20.0116 19.2415H11.7558H9.19185M14.3198 4.75879H13.0378H11.7558H3.5C2.39543 4.75879 1.5 5.65422 1.5 6.75879V17.2415C1.5 18.3461 2.39543 19.2415 3.5 19.2415H6.6279" stroke="black" stroke-width="1.2" stroke-linecap="round"/>
<path d="M16.2211 13.2759C16.2211 12.5027 16.8479 11.8759 17.6211 11.8759H21.9004V15.3828H17.6211C16.8479 15.3828 16.2211 14.756 16.2211 13.9828V13.2759Z" fill="white" stroke="black" stroke-width="1.2"/>
<path d="M5.40723 8.49609H8.33746" stroke="black" stroke-width="1.2" stroke-linecap="round"/>
</svg>
