<svg width="24" height="24" viewBox="0 0 24 24" fill="none" xmlns="http://www.w3.org/2000/svg">
<path d="M17.7844 4.415C17.8621 4.45 17.9399 4.47 18.0228 4.47C18.2094 4.47 18.3909 4.37 18.4842 4.2C18.6138 3.955 18.5153 3.65 18.2613 3.525L17.7844 4.415ZM17.7844 4.415C15.799 3.425 14.0728 3 12.0097 3M17.7844 4.415L12.0097 3M2.85818 9.67139L2.85818 9.67138C2.79725 9.63004 2.74526 9.57743 2.70526 9.51649C2.66526 9.45554 2.63806 9.38749 2.6253 9.31621C2.61254 9.24494 2.61449 9.17193 2.63103 9.10139L2.85818 9.67139ZM2.85818 9.67139L2.85921 9.67206M2.85818 9.67139L2.85921 9.67206M2.85921 9.67206C2.96042 9.73714 3.07346 9.77 3.18691 9.77C3.36171 9.77 3.53765 9.69388 3.65164 9.54545L3.65165 9.54546L3.65235 9.5445C4.57546 8.28104 5.75631 7.29123 7.15405 6.59475C10.1103 5.12173 13.8936 5.11675 16.855 6.5848L16.8551 6.58485M2.85921 9.67206L16.8551 6.58485M17.3712 5.60521L17.3712 5.60522C18.9282 6.37871 20.2406 7.47383 21.2769 8.8702L21.277 8.87033C21.4598 9.1182 21.4023 9.46031 21.1458 9.63623C20.8912 9.81084 20.5342 9.75724 20.3516 9.50976L17.3712 5.60521ZM17.3712 5.60521C14.0914 3.97825 9.90714 3.98327 6.63255 5.61525C5.07037 6.39376 3.75268 7.49893 2.72153 8.90542L17.3712 5.60521ZM16.8551 6.58485C18.2475 7.27129 19.4232 8.25607 20.3516 9.50971L16.8551 6.58485ZM18.1835 18.84L18.1752 18.7907C17.7635 18.8602 17.3464 18.885 17.1001 18.885C16.0713 18.885 15.2208 18.6519 14.4994 18.1782L14.4994 18.1782C13.2526 17.3616 12.5107 16.0467 12.5107 14.66C12.5107 14.3557 12.2533 14.11 11.9423 14.11C11.6313 14.11 11.3739 14.3557 11.3739 14.66C11.3739 16.4181 12.3062 18.0733 13.8588 19.0918L13.8589 19.0919C14.7649 19.6829 15.8581 19.985 17.1001 19.985C17.2465 19.985 17.7629 19.98 18.3735 19.8743L18.3738 19.8742C18.6785 19.8198 18.8915 19.5354 18.8339 19.2356C18.7768 18.9381 18.481 18.7361 18.1747 18.7908L18.1835 18.84ZM18.1835 18.84C18.4635 18.79 18.733 18.975 18.7848 19.245C18.8367 19.515 18.6449 19.775 18.365 19.825L11.4239 14.66C11.4239 14.385 11.6572 14.16 11.9423 14.16C12.2274 14.16 12.4607 14.385 12.4607 14.66C12.4607 16.065 13.2123 17.395 14.472 18.22C15.2029 18.7 16.0634 18.935 17.1001 18.935C17.3489 18.935 17.7688 18.91 18.1835 18.84ZM12.0097 3C9.95172 3 8.01299 3.475 6.23496 4.41L12.0097 3ZM17.7621 4.45975L17.762 4.45978L17.7639 4.46059C17.8467 4.49787 17.9314 4.52 18.0228 4.52C18.2267 4.52 18.4255 4.41087 18.528 4.22406L18.5284 4.22338C18.6713 3.95325 18.5624 3.61763 18.2836 3.48026C16.1622 2.42204 14.2262 1.95 12.0097 1.95C9.77273 1.95 7.65494 2.46689 5.71408 3.48573L5.71405 3.48566L5.71162 3.48711C5.58793 3.56122 5.49785 3.67849 5.46047 3.81525C5.42307 3.95206 5.44142 4.09744 5.51153 4.22142C5.5816 4.34533 5.69788 4.4382 5.83609 4.48154C5.97427 4.52487 6.12437 4.51557 6.25576 4.45547L6.2558 4.45554L6.25824 4.45425C8.02894 3.5231 9.95966 3.05 12.0097 3.05C14.0644 3.05 15.783 3.47291 17.7621 4.45975ZM9.26883 21.6708L9.26904 21.671C9.38211 21.7801 9.52418 21.835 9.6718 21.835C9.81145 21.835 9.96035 21.7868 10.0651 21.6701C10.2924 21.4599 10.2911 21.1079 10.0694 20.894C9.27358 20.1214 8.83095 19.63 8.16514 18.485C7.54291 17.4086 7.21286 16.0875 7.21286 14.655C7.21286 12.2671 9.35779 10.315 11.9993 10.315C14.646 10.315 16.7857 12.267 16.7857 14.655C16.7857 14.9593 17.0431 15.205 17.3541 15.205C17.6651 15.205 17.9225 14.9593 17.9225 14.655C17.9225 11.6484 15.2626 9.215 11.9993 9.215C8.73595 9.215 6.07611 11.6535 6.07611 14.655C6.07611 16.2726 6.45629 17.7865 7.17664 19.0251C7.87925 20.2349 8.36964 20.7934 9.26883 21.6708ZM5.16001 11.8773L5.16008 11.8772C6.36382 9.44588 9.03572 7.875 11.9682 7.875C16.087 7.875 19.4295 10.922 19.4295 14.66C19.4295 15.7026 18.4875 16.555 17.323 16.555C16.1586 16.555 15.2166 15.6977 15.2166 14.66C15.2166 13.0037 13.7596 11.665 11.9734 11.665C10.1872 11.665 8.73019 13.0037 8.73019 14.66H8.78019L8.73019 14.6598C8.72706 15.6369 8.9253 16.6047 9.31331 17.5071C9.70132 18.4094 10.2713 19.2283 10.9901 19.9161C12.1161 20.997 13.2016 21.5909 14.8615 22.0278C14.9099 22.0449 14.9621 22.05 15.0111 22.05C15.2596 22.05 15.4878 21.892 15.5567 21.6491C15.643 21.3548 15.4583 21.0535 15.159 20.9718L15.1586 20.9716C13.7041 20.5886 12.7581 20.0724 11.7851 19.1389C10.5455 17.9482 9.86176 16.3562 9.86176 14.665C9.86176 13.6224 10.8037 12.77 11.9682 12.77C13.1326 12.77 14.0746 13.6273 14.0746 14.665C14.0746 16.3214 15.5369 17.66 17.3178 17.66C19.0988 17.66 20.561 16.3214 20.561 14.665C20.561 10.3134 16.6985 6.78 11.963 6.78C8.6023 6.78 5.52556 8.5942 4.13228 11.4027C3.65663 12.3555 3.41684 13.4534 3.41684 14.66C3.41684 16.0165 3.66692 17.3126 4.17702 18.633L4.17722 18.6335C4.29121 18.9194 4.61511 19.0607 4.90899 18.9572L4.90976 18.9569C5.20393 18.8477 5.35381 18.5346 5.24497 18.2473L5.24485 18.247C4.63084 16.6594 4.55877 15.4359 4.55877 14.66C4.55877 13.6164 4.7597 12.6793 5.16001 11.8773Z" fill="black" stroke="black" stroke-width="0.1"/>
</svg>
