<svg width="20" height="20" viewBox="0 0 20 20" fill="none" xmlns="http://www.w3.org/2000/svg">
<path d="M17.5 10C17.5 14.1421 14.1421 17.5 10 17.5C5.85786 17.5 2.5 14.1421 2.5 10C2.5 5.85786 5.85786 2.5 10 2.5C14.1421 2.5 17.5 5.85786 17.5 10Z" fill="black" stroke="black"/>
<path d="M9.09508 13C9.41858 13 9.68087 12.8598 9.87322 12.6107L13.7814 7.16796C13.8951 7.00445 14 6.81758 14 6.63849C14 6.25695 13.6153 6 13.2044 6C12.9421 6 12.706 6.12458 12.5224 6.38932L9.06885 11.3259L7.44262 9.48053C7.23279 9.23915 7.02295 9.1535 6.76066 9.1535C6.33224 9.1535 6 9.45717 6 9.8465C6 10.0334 6.07869 10.2047 6.21858 10.3682L8.29071 12.6107C8.52678 12.8832 8.78033 13 9.09508 13Z" fill="white"/>
</svg>
