<svg width="20" height="20" viewBox="0 0 20 20" fill="none" xmlns="http://www.w3.org/2000/svg">
<path d="M4.62622 15.6289H15.3677C16.73 15.6289 17.4394 14.9258 17.4394 13.5823V5.9421C17.4394 4.59863 16.73 3.89551 15.3677 3.89551H4.62622C3.27019 3.89551 2.56079 4.59235 2.56079 5.9421V13.5823C2.56079 14.9258 3.27019 15.6289 4.62622 15.6289ZM4.70783 14.3796C4.13027 14.3796 3.81009 14.0783 3.81009 13.4693V6.05511C3.81009 5.44615 4.13027 5.14481 4.70783 5.14481H15.2861C15.8637 5.14481 16.1838 5.44615 16.1838 6.05511V13.4693C16.1838 14.0783 15.8637 14.3796 15.2861 14.3796H14.0745C13.522 12.9106 11.9211 11.8873 10.0001 11.8873C8.07907 11.8873 6.47192 12.9106 5.92575 14.3796H4.70783ZM10.0001 10.8828C11.1992 10.8891 12.1409 9.87207 12.1409 8.54116C12.1409 7.29185 11.1929 6.24344 10.0001 6.24344C8.80103 6.24344 7.85306 7.29185 7.85934 8.54116C7.86562 9.87207 8.79475 10.8703 10.0001 10.8828Z" fill="#1C1C1E"/>
</svg>
