<svg width="20" height="20" viewBox="0 0 20 20" fill="none" xmlns="http://www.w3.org/2000/svg">
<path d="M16.1786 9.74993C16.1786 13.182 13.3963 15.9642 9.96429 15.9642C6.53223 15.9642 3.75 13.182 3.75 9.74993C3.75 6.31788 6.53223 3.53564 9.96429 3.53564C13.3963 3.53564 16.1786 6.31788 16.1786 9.74993Z" stroke="#CBCBCB" stroke-width="0.5"/>
<path d="M9.31564 12.7351C9.54792 12.7351 9.73626 12.6221 9.87437 12.4212L12.6806 8.03299C12.7622 7.90116 12.8375 7.75049 12.8375 7.6061C12.8375 7.29848 12.5613 7.09131 12.2663 7.09131C12.0779 7.09131 11.9084 7.19176 11.7766 7.4052L9.29681 11.3854L8.12912 9.89753C7.97845 9.70292 7.82778 9.63386 7.63944 9.63386C7.33182 9.63386 7.09326 9.8787 7.09326 10.1926C7.09326 10.3433 7.14976 10.4814 7.25021 10.6132L8.73807 12.4212C8.90758 12.641 9.08963 12.7351 9.31564 12.7351Z" fill="white"/>
</svg>
