<svg width="20" height="20" viewBox="0 0 20 20" fill="none" xmlns="http://www.w3.org/2000/svg">
<path fill-rule="evenodd" clip-rule="evenodd" d="M14.3743 8.75024C14.3743 9.48892 14.2288 10.2204 13.9461 10.9028C13.6634 11.5853 13.2491 12.2054 12.7267 12.7277C12.2044 13.25 11.5843 13.6644 10.9019 13.9471C10.2194 14.2297 9.48795 14.3752 8.74926 14.3752C8.01058 14.3752 7.27912 14.2297 6.59667 13.9471C5.91421 13.6644 5.29412 13.25 4.77179 12.7277C4.24946 12.2054 3.83512 11.5853 3.55244 10.9028C3.26976 10.2204 3.12426 9.48892 3.12426 8.75024C3.12426 7.25839 3.71689 5.82765 4.77179 4.77276C5.82668 3.71787 7.25742 3.12524 8.74926 3.12524C10.2411 3.12524 11.6718 3.71787 12.7267 4.77276C13.7816 5.82765 14.3743 7.25839 14.3743 8.75024ZM13.3493 14.6752C11.8422 15.8452 9.94597 16.3969 8.04651 16.2179C6.14705 16.039 4.38719 15.1428 3.1252 13.712C1.8632 12.2811 1.19395 10.4231 1.25368 8.51618C1.31341 6.60924 2.09763 4.79675 3.4467 3.44768C4.79577 2.09861 6.60826 1.31439 8.5152 1.25466C10.4221 1.19493 12.2802 1.86418 13.711 3.12617C15.1419 4.38817 16.038 6.14803 16.2169 8.04749C16.3959 9.94695 15.8442 11.8432 14.6743 13.3502L18.1618 16.8377C18.2539 16.9236 18.3277 17.0271 18.379 17.1421C18.4302 17.2571 18.4578 17.3812 18.46 17.5071C18.4622 17.633 18.4391 17.758 18.3919 17.8747C18.3448 17.9915 18.2746 18.0975 18.1856 18.1865C18.0965 18.2756 17.9905 18.3457 17.8738 18.3929C17.757 18.44 17.632 18.4632 17.5061 18.461C17.3802 18.4588 17.2561 18.4312 17.1411 18.38C17.0261 18.3287 16.9226 18.2548 16.8368 18.1627L13.3493 14.6752Z" fill="black"/>
</svg>
