<svg width="32" height="32" viewBox="0 0 32 32" fill="none" xmlns="http://www.w3.org/2000/svg">
<circle cx="16" cy="16" r="16" fill="#F4F4F4"/>
<path d="M17.77 20.9141L12.931 20.8033C12.6529 20.808 12.3959 20.6925 12.1909 20.4875C11.9858 20.2824 11.8727 20.0278 11.875 19.7473L11.7548 14.899C11.7407 14.3238 12.198 13.8666 12.7731 13.8807C13.3482 13.8949 13.8243 14.371 13.8384 14.9461L13.8903 17.2701L19.005 12.1554C19.4057 11.7547 20.0657 11.7688 20.4829 12.186C20.9001 12.6032 20.9142 13.2632 20.5159 13.6615L15.4012 18.7763L17.7252 18.8281C18.3003 18.8423 18.7764 19.3184 18.7906 19.8935C18.8023 20.471 18.3474 20.9259 17.77 20.9141Z" fill="#5B606D"/>
</svg>
