<svg width="32" height="32" viewBox="0 0 32 32" fill="none" xmlns="http://www.w3.org/2000/svg">
<circle cx="16" cy="16" r="16" fill="#5B606D"/>
<path d="M14.899 11.7546L19.738 11.8654C20.0161 11.8607 20.273 11.9762 20.4781 12.1812C20.6831 12.3863 20.7963 12.6409 20.7939 12.9214L20.9141 17.7697C20.9282 18.3449 20.471 18.8021 19.8959 18.788C19.3208 18.7738 18.8446 18.2977 18.8305 17.7226L18.7786 15.3986L13.6639 20.5133C13.2632 20.914 12.6032 20.8999 12.1861 20.4827C11.7689 20.0655 11.7547 19.4055 12.1531 19.0072L17.2678 13.8924L14.9438 13.8406C14.3687 13.8265 13.8925 13.3503 13.8784 12.7752C13.8666 12.1977 14.3215 11.7428 14.899 11.7546Z" fill="#EEF1F4"/>
</svg>
