<svg width="32" height="32" viewBox="0 0 32 32" fill="none" xmlns="http://www.w3.org/2000/svg">
<circle cx="16" cy="16" r="16" fill="#F4F4F4"/>
<path d="M14.899 11.7547L19.738 11.8655C20.0161 11.8608 20.273 11.9762 20.4781 12.1813C20.6831 12.3864 20.7963 12.6409 20.7939 12.9214L20.9141 17.7698C20.9282 18.3449 20.471 18.8022 19.8959 18.788C19.3208 18.7739 18.8446 18.2978 18.8305 17.7227L18.7786 15.3986L13.6639 20.5134C13.2632 20.9141 12.6032 20.8999 12.1861 20.4827C11.7689 20.0656 11.7547 19.4056 12.1531 19.0072L17.2678 13.8925L14.9438 13.8407C14.3687 13.8265 13.8925 13.3504 13.8784 12.7753C13.8666 12.1978 14.3215 11.7429 14.899 11.7547Z" fill="#5B606D"/>
</svg>
