<svg width="32" height="32" viewBox="0 0 32 32" fill="none" xmlns="http://www.w3.org/2000/svg">
<circle cx="16" cy="16" r="16" fill="#EEF1F4"/>
<path fill-rule="evenodd" clip-rule="evenodd" d="M7.21967 12.6271C6.92678 12.92 6.92678 13.3949 7.21967 13.6878L10.6271 17.0952C10.92 17.3881 11.3949 17.3881 11.6878 17.0952C11.9807 16.8023 11.9807 16.3274 11.6878 16.0346L9.56068 13.9075H14.9093C15.3235 13.9075 15.6593 13.5717 15.6593 13.1575C15.6593 12.7433 15.3235 12.4075 14.9093 12.4075H9.56064L11.6878 10.2803C11.9807 9.98744 11.9807 9.51256 11.6878 9.21967C11.3949 8.92678 10.92 8.92678 10.6271 9.21967L7.21967 12.6271ZM23.9463 19.3669C24.2392 19.074 24.2392 18.5992 23.9463 18.3063L20.5389 14.8988C20.246 14.6059 19.7711 14.6059 19.4782 14.8988C19.1853 15.1917 19.1853 15.6666 19.4782 15.9595L21.6053 18.0866H16.2567C15.8425 18.0866 15.5067 18.4224 15.5067 18.8366C15.5067 19.2508 15.8425 19.5866 16.2567 19.5866H21.6054L19.4782 21.7137C19.1853 22.0066 19.1853 22.4815 19.4782 22.7744C19.7711 23.0673 20.246 23.0673 20.5389 22.7744L23.9463 19.3669Z" fill="#5B606D"/>
</svg>
