<svg width="32" height="32" viewBox="0 0 32 32" fill="none" xmlns="http://www.w3.org/2000/svg">
<circle cx="16" cy="16" r="16" fill="#5B606D"/>
<path d="M12.3531 21.6194L8.86483 21.5395C8.66434 21.5429 8.47913 21.4597 8.33131 21.3119C8.18348 21.164 8.10192 20.9805 8.10362 20.7783L8.01697 17.2832C8.00677 16.8686 8.3364 16.539 8.75099 16.5492C9.16558 16.5594 9.5088 16.9026 9.519 17.3172L9.55638 18.9925L13.2435 15.3054C13.5323 15.0166 14.0081 15.0268 14.3088 15.3275C14.6096 15.6283 14.6198 16.104 14.3326 16.3912L10.6455 20.0783L12.3209 20.1157C12.7355 20.1259 13.0787 20.4691 13.0889 20.8837C13.0974 21.3 12.7694 21.6279 12.3531 21.6194Z" fill="#EEF1F4"/>
<path d="M19.96 11.6059L23.5824 11.6888C23.7906 11.6853 23.9829 11.7717 24.1364 11.9252C24.2899 12.0787 24.3746 12.2693 24.3729 12.4793L24.4629 16.1088C24.4734 16.5393 24.1311 16.8816 23.7006 16.871C23.2701 16.8604 22.9137 16.504 22.9031 16.0735L22.8643 14.3337L19.0354 18.1626C18.7354 18.4625 18.2414 18.452 17.9291 18.1396C17.6168 17.8273 17.6062 17.3333 17.9044 17.0351L21.7332 13.2062L19.9935 13.1674C19.563 13.1568 19.2065 12.8004 19.196 12.3699C19.1871 11.9376 19.5277 11.597 19.96 11.6059Z" fill="#EEF1F4"/>
</svg>
