<svg width="32" height="32" viewBox="0 0 32 32" fill="none" xmlns="http://www.w3.org/2000/svg">
<circle cx="16" cy="16" r="16" fill="#F4F4F4"/>
<g clip-path="url(#clip0_2716_7585)">
<path d="M21.25 17.5C21.1515 17.4999 21.0539 17.5193 20.9629 17.557C20.8719 17.5946 20.7892 17.6499 20.7195 17.7195C20.6499 17.7892 20.5946 17.8719 20.557 17.9629C20.5193 18.0539 20.4999 18.1515 20.5 18.25V20.5H11.5V11.5H13.75C13.9489 11.5 14.1397 11.421 14.2803 11.2803C14.421 11.1397 14.5 10.9489 14.5 10.75C14.5 10.5511 14.421 10.3603 14.2803 10.2197C14.1397 10.079 13.9489 10 13.75 10H10.75C10.6515 9.99994 10.5539 10.0193 10.4629 10.057C10.3719 10.0946 10.2892 10.1499 10.2195 10.2195C10.1499 10.2892 10.0946 10.3719 10.057 10.4629C10.0193 10.5539 9.99994 10.6515 10 10.75V21.25C9.99994 21.3485 10.0193 21.4461 10.057 21.5371C10.0946 21.6281 10.1499 21.7108 10.2195 21.7805C10.2892 21.8501 10.3719 21.9054 10.4629 21.943C10.5539 21.9807 10.6515 22.0001 10.75 22H21.25C21.3485 22.0001 21.4461 21.9807 21.5371 21.943C21.6281 21.9054 21.7108 21.8501 21.7805 21.7805C21.8501 21.7108 21.9054 21.6281 21.943 21.5371C21.9807 21.4461 22.0001 21.3485 22 21.25V18.25C22.0001 18.1515 21.9807 18.0539 21.943 17.9629C21.9054 17.8719 21.8501 17.7892 21.7805 17.7195C21.7108 17.6499 21.6281 17.5946 21.5371 17.557C21.4461 17.5193 21.3485 17.4999 21.25 17.5Z" fill="#5B606D" stroke="#5B606D" stroke-width="0.5" stroke-linejoin="round"/>
<path d="M21.2499 10H18.2499C18.051 10 17.8603 10.079 17.7196 10.2197C17.579 10.3603 17.4999 10.5511 17.4999 10.75C17.4999 10.9489 17.579 11.1397 17.7196 11.2803C17.8603 11.421 18.051 11.5 18.2499 11.5H19.4394L14.7197 16.2197C14.6497 16.2893 14.5942 16.372 14.5562 16.463C14.5183 16.5541 14.4987 16.6518 14.4985 16.7504C14.4984 16.8491 14.5177 16.9468 14.5554 17.038C14.5931 17.1292 14.6484 17.212 14.7182 17.2818C14.7879 17.3515 14.8708 17.4068 14.962 17.4445C15.0531 17.4822 15.1508 17.5015 15.2495 17.5014C15.3482 17.5013 15.4458 17.4817 15.5369 17.4437C15.628 17.4058 15.7106 17.3502 15.7802 17.2803L20.4999 12.5606V13.75C20.4999 13.9489 20.579 14.1397 20.7196 14.2803C20.8603 14.421 21.051 14.5 21.2499 14.5C21.4488 14.5 21.6396 14.421 21.7803 14.2803C21.9209 14.1397 21.9999 13.9489 21.9999 13.75V10.75C22 10.6515 21.9806 10.5539 21.943 10.4629C21.9053 10.3719 21.85 10.2892 21.7804 10.2195C21.7107 10.1499 21.628 10.0946 21.537 10.057C21.446 10.0193 21.3484 9.99994 21.2499 10Z" fill="#5B606D" stroke="#5B606D" stroke-width="0.5" stroke-linejoin="round"/>
</g>
<defs>
<clipPath id="clip0_2716_7585">
<rect width="12" height="12" fill="white" transform="translate(10 10)"/>
</clipPath>
</defs>
</svg>
