<svg width="32" height="32" viewBox="0 0 32 32" fill="none" xmlns="http://www.w3.org/2000/svg">
<circle cx="16" cy="16" r="16" fill="#EEF1F4"/>
<path d="M22.8574 14.8326C22.8574 15.3815 22.5334 15.7576 22.027 15.7576C21.5106 15.7576 21.1865 15.4018 21.1865 14.8428V13.2265L21.3283 11.7729L19.9815 13.2468L16.4473 16.7945C16.2549 16.9774 16.0321 17.0791 15.7587 17.0791C15.2422 17.0791 14.8574 16.7233 14.8574 16.1744C14.8574 15.9304 14.9789 15.6966 15.1511 15.5238L18.6954 11.966L20.184 10.5937L18.8068 10.7564H17.1055C16.5486 10.7564 16.184 10.4311 16.184 9.91265C16.184 9.40439 16.5384 9.0791 17.0954 9.0791H21.8245C22.4625 9.0791 22.8574 9.39422 22.8574 10.1058V14.8326Z" fill="#5B606D"/>
<path fill-rule="evenodd" clip-rule="evenodd" d="M13.4791 9H13.148C11.778 9 10.7031 9.15896 9.92347 9.93861C9.14382 10.7107 9 11.778 9 13.148V18.9159C9 20.3087 9.14382 21.376 9.92347 22.1481C10.7031 22.9277 11.778 23.0791 13.1632 23.0791H18.9613C20.3465 23.0791 21.429 22.9277 22.2086 22.1481C22.9807 21.3684 23.1245 20.3087 23.1245 18.9159V18.4828H21.6182V19.1279C21.6182 19.9151 21.5198 20.6266 21.1035 21.0429C20.6796 21.4668 19.9605 21.5728 19.1733 21.5728H12.9588C12.1716 21.5728 11.4449 21.4592 11.0286 21.0429C10.6123 20.6266 10.5063 19.9151 10.5063 19.1279V12.9739C10.5063 12.1716 10.6123 11.4525 11.0286 11.0362C11.4449 10.6199 12.1716 10.5139 12.9739 10.5139H13.4791V9Z" fill="#5B606D"/>
</svg>
