<svg width="38" height="38" viewBox="0 0 38 38" fill="none" xmlns="http://www.w3.org/2000/svg">
<path d="M11.2557 37.0002C12.1658 37.0002 12.8484 36.5513 13.9536 35.5537L19.5283 30.499H29.3613C34.2534 30.499 37.0001 27.6392 37.0001 22.7009V9.79831C37.0001 4.86007 34.2534 2.00021 29.3613 2.00021H8.63895C3.74685 2.00021 1.00012 4.86007 1.00012 9.79831V22.7009C1.00012 27.6392 3.81186 30.499 8.52518 30.499H9.19154V34.6059C9.19154 36.0857 9.95543 37.0002 11.2557 37.0002ZM12.052 33.3423V28.6035C12.052 27.6225 11.6457 27.2401 10.7193 27.2401H8.72021C5.64843 27.2401 4.18568 25.6605 4.18568 22.6012V9.89807C4.18568 6.83869 5.64843 5.25912 8.72021 5.25912H29.2638C32.3356 5.25912 33.8146 6.83869 33.8146 9.89807V22.6012C33.8146 25.6605 32.3356 27.2401 29.2638 27.2401H19.3496C18.3744 27.2401 17.8868 27.4064 17.2042 28.138L12.052 33.3423ZM17.2692 24.1475C17.8543 24.1475 18.3581 23.8648 18.6994 23.3161L25.9645 11.6938C26.1757 11.3446 26.3708 10.9456 26.3708 10.5798C26.3708 9.74843 25.6557 9.19973 24.8918 9.19973C24.4042 9.19973 23.9654 9.4824 23.6241 10.0311L17.2042 20.5727L14.1812 16.632C13.7911 16.1166 13.401 15.9337 12.9134 15.9337C12.1171 15.9337 11.4994 16.5988 11.4994 17.4135C11.4994 17.8126 11.6457 18.1784 11.922 18.5275L15.7577 23.3328C16.1965 23.8981 16.6678 24.1475 17.2692 24.1475Z" fill="#1E1E1E"/>
</svg>
