<svg width="38" height="38" viewBox="0 0 38 38" fill="none" xmlns="http://www.w3.org/2000/svg">
<path d="M6.81729 36H31.165C35.002 36 37 33.9625 37 30.0696V7.93044C37 4.03745 35.002 2 31.165 2H6.81729C2.99804 2 1 4.01926 1 7.93044V30.0696C1 33.9625 2.99804 36 6.81729 36ZM6.79961 32.3799C5.33202 32.3799 4.51866 31.5976 4.51866 29.9968V13.2606C4.51866 11.6597 5.33202 10.8775 6.79961 10.8775H31.1827C32.6503 10.8775 33.4637 11.6597 33.4637 13.2606V29.9968C33.4637 31.5976 32.6503 32.3799 31.1827 32.3799H6.79961ZM9.82318 17.4082H28.1945C28.831 17.4082 29.3084 16.8989 29.3084 16.2258C29.3084 15.5891 28.831 15.0979 28.1945 15.0979H9.82318C9.16896 15.0979 8.69155 15.5891 8.69155 16.2258C8.69155 16.8989 9.16896 17.4082 9.82318 17.4082ZM9.82318 22.7747H28.1945C28.831 22.7747 29.3084 22.2836 29.3084 21.6469C29.3084 20.992 28.831 20.4644 28.1945 20.4644H9.82318C9.16896 20.4644 8.69155 20.992 8.69155 21.6469C8.69155 22.2836 9.16896 22.7747 9.82318 22.7747ZM9.82318 28.1413H21.4224C22.0589 28.1413 22.5363 27.6501 22.5363 27.0134C22.5363 26.3585 22.0589 25.8491 21.4224 25.8491H9.82318C9.16896 25.8491 8.69155 26.3585 8.69155 27.0134C8.69155 27.6501 9.16896 28.1413 9.82318 28.1413Z" fill="#1E1E1E"/>
</svg>
