<svg width="38" height="38" viewBox="0 0 38 38" fill="none" xmlns="http://www.w3.org/2000/svg">
<path d="M5.55763 29.6307C4.82861 30.3597 4.7939 31.6614 5.57499 32.4251C6.33872 33.1887 7.64054 33.1714 8.36956 32.4424L18.9924 21.803L29.6326 32.4424C30.379 33.1887 31.6635 33.1887 32.4272 32.4251C33.1736 31.644 33.1909 30.377 32.4272 29.6307L21.8043 18.9913L32.4272 8.3693C33.1909 7.62298 33.1909 6.33862 32.4272 5.57494C31.6461 4.82863 30.379 4.81127 29.6326 5.55759L18.9924 16.197L8.36956 5.55759C7.64054 4.82863 6.32137 4.79391 5.57499 5.57494C4.81125 6.33862 4.82861 7.64034 5.55763 8.3693L16.1978 18.9913L5.55763 29.6307Z" fill="#1E1E1E"/>
</svg>
