<svg width="38" height="38" viewBox="0 0 38 38" fill="none" xmlns="http://www.w3.org/2000/svg">
<path d="M9.48332 32.7828H12.8523C13.1514 32.7828 13.3718 32.8615 13.5922 33.0819L15.9851 35.4591C18.0474 37.5214 19.9681 37.5057 22.0146 35.4591L24.4076 33.0819C24.628 32.8615 24.8484 32.7828 25.1475 32.7828H28.5164C31.4131 32.7828 32.7828 31.4289 32.7828 28.5165V25.1475C32.7828 24.8484 32.8772 24.628 33.0819 24.4076L35.459 22.0147C37.5214 19.9681 37.5056 18.0475 35.459 15.9852L33.0819 13.5923C32.8615 13.3719 32.7828 13.1515 32.7828 12.8524V9.48339C32.7828 6.58671 31.4289 5.21708 28.5164 5.21708H25.1475C24.8484 5.21708 24.628 5.13836 24.4076 4.91796L22.0146 2.54079C19.9523 0.478478 18.0474 0.49422 15.9851 2.54079L13.5922 4.91796C13.3718 5.13836 13.1514 5.21708 12.8523 5.21708H9.48332C6.58663 5.21708 5.217 6.55522 5.217 9.48339V12.8524C5.217 13.1515 5.13829 13.3719 4.91789 13.5923L2.54072 15.9852C0.478401 18.0475 0.494144 19.9681 2.54072 22.0147L4.91789 24.4076C5.13829 24.628 5.217 24.8484 5.217 25.1475V28.5165C5.217 31.4132 6.58663 32.7828 9.48332 32.7828ZM9.71946 29.9019C8.33409 29.9019 8.11369 29.6657 8.11369 28.2804V24.1872C8.11369 23.7149 7.972 23.3529 7.62566 23.0223L4.74472 20.1413C3.75292 19.1495 3.75292 18.8661 4.74472 17.8743L7.62566 14.9934C7.972 14.6471 8.11369 14.3007 8.11369 13.8284V9.71954C8.11369 8.31842 8.31835 8.11377 9.71946 8.11377H13.8283C14.3006 8.11377 14.647 7.97208 14.9776 7.62574L17.8585 4.74479C18.8661 3.75299 19.1494 3.75299 20.1412 4.74479L23.0222 7.62574C23.3528 7.97208 23.7149 8.11377 24.1714 8.11377H28.2803C29.6657 8.11377 29.8861 8.33417 29.8861 9.71954V13.8284C29.9018 14.3007 30.0435 14.6471 30.3741 14.9934L33.2708 17.8743C34.2468 18.8661 34.2468 19.1495 33.2708 20.1413L30.3741 23.0223C30.0435 23.3529 29.9018 23.7149 29.9018 24.1872L29.8861 28.2804C29.8861 29.6657 29.6657 29.9019 28.2803 29.9019H24.1714C23.7149 29.9019 23.3528 30.0278 23.0222 30.3742L20.1412 33.2709C19.1494 34.2469 18.8661 34.2469 17.8585 33.2709L14.9776 30.3742C14.647 30.0278 14.3006 29.9019 13.8283 29.9019H9.71946Z" fill="#1E1E1E"/>
</svg>
