<svg width="32" height="32" viewBox="0 0 32 32" fill="none" xmlns="http://www.w3.org/2000/svg">
<circle cx="16" cy="16" r="16" fill="#EEF1F4"/>
<path d="M22 22H10" stroke="#5B606D" stroke-width="1.5" stroke-linecap="round"/>
<path fill-rule="evenodd" clip-rule="evenodd" d="M13.4606 18.6673C13.0464 18.6673 12.7106 18.3315 12.7106 17.9173V13.1175C12.7106 12.7032 13.0464 12.3675 13.4606 12.3675C13.8748 12.3675 14.2106 12.7032 14.2106 13.1175L14.2106 16.1067L19.387 10.9303C19.6799 10.6374 20.1548 10.6374 20.4477 10.9303C20.7406 11.2232 20.7406 11.698 20.4477 11.9909L15.2713 17.1673L18.2605 17.1673C18.6747 17.1673 19.0105 17.5031 19.0105 17.9173C19.0105 18.3315 18.6747 18.6673 18.2605 18.6673L13.4606 18.6673Z" fill="#5B606D"/>
</svg>
