<svg width="38" height="38" viewBox="0 0 38 38" fill="none" xmlns="http://www.w3.org/2000/svg">
<path d="M19.0086 1.00015C9.14295 1.00015 0.99988 9.14715 0.99988 19.0001C0.999879 28.8531 9.16034 37.0002 19.026 37.0002C28.8742 37.0002 36.9999 28.8532 36.9999 19.0002C36.9999 9.14715 28.8568 1.00015 19.0086 1.00015ZM19.0086 4.58622C26.995 4.58622 33.3807 11.0098 33.3807 19.0002C33.3807 26.9905 26.995 33.3967 19.026 33.3967C11.0395 33.3967 4.61902 26.9905 4.60162 19.0001C4.58422 11.0098 11.0221 4.58622 19.0086 4.58622ZM13.5973 14.4218C12.7099 14.4218 12.1531 15.0833 12.1531 16.0234L12.1531 24.1181C12.1531 25.3193 12.8317 25.8764 13.9279 25.8764L22.0709 25.8764C23.0105 25.8764 23.6195 25.3019 23.6195 24.4315C23.6195 23.5611 23.0105 22.9866 22.0535 22.9866L19.113 22.9866L16.764 23.2651L19.3218 20.9325L25.4117 14.8396C25.7075 14.5437 25.8989 14.1259 25.8989 13.7081C25.8989 12.7855 25.2551 12.1762 24.3503 12.1762C23.8805 12.1762 23.4977 12.3328 23.1671 12.6636L17.112 18.7216L14.7805 21.2632L15.0414 18.7738L15.0414 16.006C15.0414 15.0485 14.4673 14.4218 13.5973 14.4218Z" fill="#1E1E1E"/>
</svg>
