<svg width="32" height="32" viewBox="0 0 32 32" fill="none" xmlns="http://www.w3.org/2000/svg">
<circle cx="16" cy="16" r="16" fill="#EEF1F4"/>
<path d="M22 22H10" stroke="#5B606D" stroke-width="1.5" stroke-linecap="round"/>
<path fill-rule="evenodd" clip-rule="evenodd" d="M19.9173 10.7106C20.3315 10.7106 20.6673 11.0464 20.6673 11.4606V16.2605C20.6673 16.6747 20.3315 17.0105 19.9173 17.0105C19.5031 17.0105 19.1673 16.6747 19.1673 16.2605L19.1673 13.2712L13.9909 18.4477C13.698 18.7406 13.2231 18.7406 12.9302 18.4477C12.6373 18.1548 12.6373 17.6799 12.9302 17.387L18.1066 12.2106L15.1175 12.2106C14.7033 12.2106 14.3675 11.8748 14.3675 11.4606C14.3675 11.0464 14.7033 10.7106 15.1175 10.7106L19.9173 10.7106Z" fill="#5B606D"/>
</svg>
