<svg width="38" height="46" viewBox="0 0 38 46" fill="none" xmlns="http://www.w3.org/2000/svg">
<path d="M18.9915 41C28.8572 41 37.0002 32.853 37.0002 23C37.0002 13.147 28.8398 5 18.9741 5C9.12591 5 1.00024 13.147 1.00024 23C1.00024 32.853 9.14331 41 18.9915 41ZM18.9915 37.4139C11.0051 37.4139 4.61938 30.9903 4.61938 23C4.61938 15.0097 11.0051 8.60348 18.9741 8.60348C26.9606 8.60348 33.3811 15.0097 33.3985 23C33.4159 30.9903 26.978 37.4139 18.9915 37.4139ZM10.9007 17.029C10.4135 17.499 10.4309 18.3346 10.9007 18.8046L15.2332 23.0348C15.4768 23.2437 15.79 23.383 16.0858 23.383C16.7644 23.383 17.2516 22.913 17.2516 22.2166C17.2516 21.9033 17.1472 21.6074 16.9036 21.381L15.094 19.6228L14.5024 19.0832L15.355 19.118H26.2298C26.9084 19.118 27.413 18.5957 27.413 17.9168C27.413 17.2379 26.9258 16.7331 26.2298 16.7331H15.3724L14.5198 16.7505L15.094 16.2108L16.9036 14.4526C17.1472 14.2437 17.2516 13.9478 17.2516 13.6344C17.2516 12.9381 16.7644 12.4507 16.0858 12.4507C15.79 12.4507 15.4594 12.6074 15.2332 12.8162L10.9007 17.029ZM27.0476 29.0232C27.5522 28.5358 27.5174 27.7698 27.0476 27.2824L22.7151 23.0522C22.5063 22.8433 22.1583 22.6867 21.8625 22.6867C21.1665 22.6867 20.6967 23.1741 20.6967 23.853C20.6967 24.1838 20.8011 24.4623 21.0273 24.6886L22.8543 26.4468L23.4459 27.0039L22.5759 26.9516H11.7011C11.0399 26.9516 10.5353 27.4565 10.5353 28.1528C10.5353 28.8317 11.0399 29.3366 11.7011 29.3366H22.5759L23.4459 29.3191L22.8543 29.8588L21.0447 31.617C20.8185 31.8433 20.6967 32.1219 20.6967 32.4526C20.6967 33.1141 21.1839 33.619 21.8625 33.619C22.1409 33.619 22.4715 33.4623 22.7151 33.2534L27.0476 29.0232Z" fill="#1C1C1E"/>
</svg>
