<svg width="24" height="24" viewBox="0 0 24 24" fill="none" xmlns="http://www.w3.org/2000/svg">
<path d="M12 0C5.37 0 1.75145e-06 5.50596 1.75145e-06 12.3038C-0.00135931 14.8867 0.790578 17.4045 2.26346 19.4999C3.73634 21.5954 5.81538 23.162 8.2056 23.9777C8.8056 24.0847 9.03 23.7156 9.03 23.392C9.03 23.1004 9.0144 22.1321 9.0144 21.1011C6 21.6707 5.22 20.3481 4.98 19.6554C4.8444 19.301 4.26 18.2097 3.75 17.9168C3.33 17.6868 2.73 17.1171 3.7344 17.1023C4.68 17.0863 5.3544 17.9943 5.58 18.3635C6.66 20.2238 8.3856 19.7009 9.0744 19.3785C9.18 18.5788 9.4944 18.0411 9.84 17.7335C7.17 17.4259 4.38 16.3641 4.38 11.6579C4.38 10.3192 4.8444 9.21311 5.61 8.35061C5.49 8.04301 5.07 6.78187 5.73 5.09009C5.73 5.09009 6.7344 4.76773 9.03 6.35247C10.0069 6.07447 11.0162 5.93456 12.03 5.9366C13.05 5.9366 14.07 6.0744 15.03 6.35124C17.3244 4.75174 18.33 5.09132 18.33 5.09132C18.99 6.7831 18.57 8.04424 18.45 8.35184C19.2144 9.21311 19.68 10.3045 19.68 11.6579C19.68 16.3801 16.8756 17.4259 14.2056 17.7335C14.64 18.1174 15.0156 18.8556 15.0156 20.0097C15.0156 21.6547 15 22.9774 15 23.3933C15 23.7156 15.2256 24.0995 15.8256 23.9765C18.2076 23.1519 20.2775 21.5821 21.7439 19.4882C23.2103 17.3943 23.9993 14.8816 24 12.3038C24 5.50596 18.63 0 12 0Z" fill="#EC588D"/>
</svg>
