<svg width="20" height="20" viewBox="0 0 20 20" fill="none" xmlns="http://www.w3.org/2000/svg">
<path d="M10 0C4.475 0 1.45954e-06 4.5883 1.45954e-06 10.2532C-0.00113276 12.4056 0.658815 14.5038 1.88622 16.2499C3.11362 17.9961 4.84615 19.3017 6.838 19.9814C7.338 20.0706 7.525 19.763 7.525 19.4934C7.525 19.2504 7.512 18.4434 7.512 17.5842C5 18.0589 4.35 16.9567 4.15 16.3795C4.037 16.0842 3.55 15.1747 3.125 14.9307C2.775 14.739 2.275 14.2642 3.112 14.2519C3.9 14.2386 4.462 14.9953 4.65 15.3029C5.55 16.8532 6.988 16.4174 7.562 16.1488C7.65 15.4823 7.912 15.0343 8.2 14.7779C5.975 14.5216 3.65 13.6367 3.65 9.7149C3.65 8.59935 4.037 7.67759 4.675 6.95884C4.575 6.70251 4.225 5.65156 4.775 4.24174C4.775 4.24174 5.612 3.97311 7.525 5.29372C8.33906 5.06206 9.18017 4.94547 10.025 4.94716C10.875 4.94716 11.725 5.062 12.525 5.2927C14.437 3.95978 15.275 4.24277 15.275 4.24277C15.825 5.65258 15.475 6.70353 15.375 6.95986C16.012 7.67759 16.4 8.58705 16.4 9.7149C16.4 13.6501 14.063 14.5216 11.838 14.7779C12.2 15.0978 12.513 15.713 12.513 16.6748C12.513 18.0456 12.5 19.1478 12.5 19.4944C12.5 19.763 12.688 20.0829 13.188 19.9804C15.173 19.2932 16.8979 17.9851 18.1199 16.2402C19.3419 14.4952 19.9994 12.4014 20 10.2532C20 4.5883 15.525 0 10 0Z" fill="#FF2E79"/>
</svg>
