<svg width="20" height="20" viewBox="0 0 20 20" fill="none" xmlns="http://www.w3.org/2000/svg">
<path d="M10.9963 8.84607H11.0116V8.82198L10.9963 8.84607ZM10.9963 8.84607H11.0116V8.82198L10.9963 8.84607ZM10.9963 8.84607H11.0116V8.82198L10.9963 8.84607ZM10.9963 8.84607H11.0116V8.82198L10.9963 8.84607ZM10.9963 8.84607H11.0116V8.82198L10.9963 8.84607ZM10.9963 8.84607H11.0116V8.82198L10.9963 8.84607ZM10.9963 8.84607H11.0116V8.82198L10.9963 8.84607ZM10.9963 8.84607H11.0116V8.82198L10.9963 8.84607ZM10.9963 8.84607H11.0116V8.82198L10.9963 8.84607ZM10.9963 8.84607H11.0116V8.82198L10.9963 8.84607ZM10.9963 8.84607H11.0116V8.82198L10.9963 8.84607ZM10.9963 8.84607H11.0116V8.82198L10.9963 8.84607ZM10.9963 8.84607H11.0116V8.82198L10.9963 8.84607ZM10.9963 8.84607H11.0116V8.82198L10.9963 8.84607ZM10.9963 8.84607H11.0116V8.82198L10.9963 8.84607ZM10.9963 8.84607H11.0116V8.82198L10.9963 8.84607ZM10 0C8.02219 0 6.08879 0.58649 4.4443 1.6853C2.79981 2.78412 1.51809 4.3459 0.761209 6.17316C0.00433272 8.00042 -0.1937 10.0111 0.192152 11.9509C0.578004 13.8907 1.53041 15.6725 2.92894 17.0711C4.32746 18.4696 6.10929 19.422 8.0491 19.8078C9.98891 20.1937 11.9996 19.9957 13.8268 19.2388C15.6541 18.4819 17.2159 17.2002 18.3147 15.5557C19.4135 13.9112 20 11.9778 20 10C19.9971 7.34872 18.9426 4.80687 17.0679 2.93213C15.1931 1.0574 12.6513 0.00289789 10 0ZM7.49946 14.5019C7.49888 14.5462 7.48086 14.5885 7.44931 14.6197C7.41775 14.6508 7.37519 14.6683 7.33085 14.6683H5.40399C5.35985 14.6683 5.31753 14.6507 5.28632 14.6195C5.25511 14.5883 5.23758 14.546 5.23758 14.5019V8.02715C5.23729 8.00511 5.24138 7.98324 5.24961 7.96279C5.25784 7.94235 5.27006 7.92375 5.28554 7.90806C5.30102 7.89238 5.31946 7.87992 5.3398 7.87142C5.36013 7.86292 5.38195 7.85855 5.40399 7.85855H7.33085C7.353 7.85855 7.37492 7.86291 7.39538 7.87138C7.41583 7.87986 7.43442 7.89227 7.45007 7.90793C7.46573 7.92359 7.47815 7.94217 7.48662 7.96263C7.4951 7.98308 7.49946 8.00501 7.49946 8.02715V14.5019ZM6.29954 6.99365C6.06006 6.99365 5.82595 6.92263 5.62683 6.78958C5.4277 6.65653 5.2725 6.46742 5.18085 6.24616C5.08921 6.02491 5.06523 5.78145 5.11195 5.54656C5.15867 5.31168 5.27399 5.09592 5.44334 4.92658C5.61268 4.75724 5.82843 4.64192 6.06332 4.59519C6.2982 4.54847 6.54166 4.57245 6.76292 4.6641C6.98418 4.75575 7.17329 4.91095 7.30634 5.11007C7.43939 5.3092 7.5104 5.5433 7.5104 5.78279C7.51069 5.94188 7.47957 6.09947 7.41882 6.24651C7.35807 6.39354 7.26889 6.52714 7.15639 6.63964C7.0439 6.75214 6.9103 6.84132 6.76326 6.90206C6.61622 6.96281 6.45864 6.99394 6.29954 6.99365ZM15.6536 14.5019C15.653 14.5462 15.635 14.5885 15.6035 14.6197C15.5719 14.6508 15.5293 14.6683 15.485 14.6683H13.5581C13.5363 14.6683 13.5146 14.664 13.4945 14.6556C13.4743 14.6472 13.4559 14.635 13.4405 14.6195C13.425 14.6041 13.4128 14.5857 13.4044 14.5655C13.396 14.5454 13.3917 14.5237 13.3917 14.5019V11.0226C13.3917 10.1073 13.0655 9.48982 12.2466 9.48982C11.9914 9.49124 11.7429 9.57155 11.5351 9.71972C11.3274 9.8679 11.1705 10.0767 11.0861 10.3175C11.0283 10.4955 11.0031 10.6824 11.0116 10.8693V14.5019C11.0116 14.5466 10.9938 14.5895 10.9622 14.6211C10.9306 14.6527 10.8877 14.6705 10.843 14.6705H8.91614C8.8941 14.6705 8.87228 14.6661 8.85195 14.6576C8.83161 14.6491 8.81317 14.6366 8.79769 14.6209C8.78221 14.6053 8.77 14.5867 8.76176 14.5662C8.75353 14.5458 8.74944 14.5239 8.74973 14.5019C8.74973 13.5778 8.77382 9.09131 8.74973 8.03591C8.74944 8.01387 8.75353 7.992 8.76176 7.97155C8.77 7.95111 8.78221 7.93251 8.79769 7.91682C8.81317 7.90113 8.83161 7.88868 8.85195 7.88018C8.87228 7.87168 8.8941 7.86731 8.91614 7.86731H10.8386C10.8609 7.86701 10.8829 7.87117 10.9035 7.87954C10.9241 7.88791 10.9428 7.90032 10.9585 7.91603C10.9742 7.93175 10.9866 7.95045 10.995 7.97104C11.0034 7.99163 11.0075 8.01369 11.0072 8.03591V8.83074C11.212 8.4752 11.5103 8.18254 11.8697 7.98452C12.2291 7.7865 12.6358 7.69068 13.0458 7.70747C14.5325 7.70747 15.6492 8.67966 15.6492 10.7729L15.6536 14.5019ZM11.0116 8.85264V8.82855L10.9963 8.85264H11.0116ZM10.9963 8.85264H11.0116V8.82855L10.9963 8.85264ZM10.9963 8.85264H11.0116V8.82855L10.9963 8.85264ZM10.9963 8.85264H11.0116V8.82855L10.9963 8.85264ZM10.9963 8.85264H11.0116V8.82855L10.9963 8.85264ZM10.9963 8.85264H11.0116V8.82855L10.9963 8.85264ZM10.9963 8.85264H11.0116V8.82855L10.9963 8.85264ZM10.9963 8.85264H11.0116V8.82855L10.9963 8.85264ZM10.9963 8.85264H11.0116V8.82855L10.9963 8.85264ZM10.9963 8.85264H11.0116V8.82855L10.9963 8.85264ZM10.9963 8.85264H11.0116V8.82855L10.9963 8.85264ZM10.9963 8.85264H11.0116V8.82855L10.9963 8.85264ZM10.9963 8.85264H11.0116V8.82855L10.9963 8.85264ZM10.9963 8.85264H11.0116V8.82855L10.9963 8.85264ZM10.9963 8.85264H11.0116V8.82855L10.9963 8.85264Z" fill="black"/>
</svg>
