<svg width="80" height="80" viewBox="0 0 80 80" fill="none" xmlns="http://www.w3.org/2000/svg">
<path d="M16.6667 66.6663C14.8333 66.6663 13.2633 66.013 11.9567 64.7063C10.65 63.3997 9.99778 61.8308 10 59.9997V57.333C10 55.4441 10.4867 53.7075 11.46 52.123C12.4333 50.5386 13.7244 49.3308 15.3333 48.4997C18.7778 46.7775 22.2778 45.4852 25.8333 44.623C29.3889 43.7608 33 43.3308 36.6667 43.333C37.7778 43.333 38.8889 43.3752 40 43.4597C41.1111 43.5441 42.2222 43.6686 43.3333 43.833C43.1111 47.0552 43.6944 50.0975 45.0833 52.9597C46.4722 55.8219 48.5 58.1686 51.1667 59.9997V66.6663H16.6667ZM36.6667 39.9997C33 39.9997 29.8611 38.6941 27.25 36.083C24.6389 33.4719 23.3333 30.333 23.3333 26.6663C23.3333 22.9997 24.6389 19.8608 27.25 17.2497C29.8611 14.6386 33 13.333 36.6667 13.333C40.3333 13.333 43.4722 14.6386 46.0833 17.2497C48.6944 19.8608 50 22.9997 50 26.6663C50 30.333 48.6944 33.4719 46.0833 36.083C43.4722 38.6941 40.3333 39.9997 36.6667 39.9997ZM61.6667 46.6663C62.6111 46.6663 63.4033 46.3463 64.0433 45.7063C64.6833 45.0663 65.0022 44.2752 65 43.333C65 42.3886 64.68 41.5963 64.04 40.9563C63.4 40.3163 62.6089 39.9975 61.6667 39.9997C60.7222 39.9997 59.93 40.3197 59.29 40.9597C58.65 41.5997 58.3311 42.3908 58.3333 43.333C58.3333 44.2775 58.6533 45.0697 59.2933 45.7097C59.9333 46.3497 60.7244 46.6686 61.6667 46.6663ZM62.1667 75.4997L58.8333 72.1663C58.7222 72.0552 58.5556 71.6663 58.3333 70.9997V56.1663C55.8889 55.4441 53.8889 54.0686 52.3333 52.0397C50.7778 50.0108 50 47.6641 50 44.9997C50 41.7775 51.1389 39.0275 53.4167 36.7497C55.6944 34.4719 58.4444 33.333 61.6667 33.333C64.8889 33.333 67.6389 34.4719 69.9167 36.7497C72.1944 39.0275 73.3333 41.7775 73.3333 44.9997C73.3333 47.4997 72.6244 49.7219 71.2067 51.6663C69.7889 53.6108 67.9978 54.9997 65.8333 55.833L68.8333 58.833C69.1667 59.1663 69.3333 59.5552 69.3333 59.9997C69.3333 60.4441 69.1667 60.833 68.8333 61.1663L66.1667 63.833C65.8333 64.1663 65.6667 64.5552 65.6667 64.9997C65.6667 65.4441 65.8333 65.833 66.1667 66.1663L68.8333 68.833C69.1667 69.1663 69.3333 69.5552 69.3333 69.9997C69.3333 70.4441 69.1667 70.833 68.8333 71.1663L64.5 75.4997C64.1667 75.833 63.7778 75.9997 63.3333 75.9997C62.8889 75.9997 62.5 75.833 62.1667 75.4997Z" fill="url(#paint0_linear_1858_47673)"/>
<defs>
<linearGradient id="paint0_linear_1858_47673" x1="41.6667" y1="13.333" x2="41.6667" y2="75.9997" gradientUnits="userSpaceOnUse">
<stop stop-color="#FF2B9D"/>
<stop offset="1" stop-color="#FF9BBF"/>
</linearGradient>
</defs>
</svg>
