<svg width="80" height="80" viewBox="0 0 80 80" fill="none" xmlns="http://www.w3.org/2000/svg">
<path fill-rule="evenodd" clip-rule="evenodd" d="M13.4242 14.7001H13.3906C13.1537 14.7454 12.9191 14.7988 12.6873 14.8602C6.74037 16.3496 5 21.7379 5 25V28.7624C4.94867 29.1708 4.92233 29.5841 4.92188 30.0001V60.0001C4.92477 62.6513 5.97927 65.1932 7.854 67.0679C9.72874 68.9427 12.2706 69.9972 14.9219 70.0001H64.9219C67.5732 69.9972 70.115 68.9427 71.9897 67.0679C73.8645 65.1932 74.919 62.6513 74.9219 60.0001V30.0001C74.919 27.3488 73.8645 24.8069 71.9897 22.9322C70.115 21.0575 67.5732 20.003 64.9219 20.0001H25.0214C25.0143 20 25.0072 20 25 20C22.3549 20 22.0648 16.7947 24.3092 16.2501H64.9219C65.5059 16.2498 66.0894 16.2868 66.6687 16.361C66.4724 14.9825 65.9989 13.6581 65.2768 12.4676C64.5547 11.277 63.599 10.245 62.4674 9.43382C61.3357 8.62262 60.0514 8.04899 58.6921 7.74753C57.3327 7.44607 55.9263 7.42301 54.5578 7.67976L15.0695 14.4214C14.5253 14.5047 13.9751 14.5973 13.4242 14.7001ZM54.7221 49.1574C55.5444 49.7068 56.5111 50.0001 57.5 50.0001C58.8261 50.0001 60.0979 49.4733 61.0355 48.5356C61.9732 47.5979 62.5 46.3262 62.5 45.0001C62.5 44.0112 62.2068 43.0445 61.6573 42.2222C61.1079 41.4 60.327 40.7591 59.4134 40.3807C58.4998 40.0022 57.4945 39.9032 56.5245 40.0961C55.5546 40.2891 54.6637 40.7653 53.9645 41.4645C53.2652 42.1638 52.789 43.0547 52.5961 44.0246C52.4031 44.9945 52.5022 45.9999 52.8806 46.9135C53.259 47.8271 53.8999 48.608 54.7221 49.1574Z" fill="url(#paint0_linear_1858_47680)"/>
<defs>
<linearGradient id="paint0_linear_1858_47680" x1="15.6424" y1="13.6719" x2="20.5" y2="80.5" gradientUnits="userSpaceOnUse">
<stop stop-color="#FF2B9D"/>
<stop offset="1" stop-color="#FF9BBF"/>
</linearGradient>
</defs>
</svg>
