<svg width="80" height="80" viewBox="0 0 80 80" fill="none" xmlns="http://www.w3.org/2000/svg">
<g clip-path="url(#clip0_1858_47688)">
<path d="M30 10H16.6667C14.8986 10 13.2029 10.7024 11.9526 11.9526C10.7024 13.2029 10 14.8986 10 16.6667V30C10 31.7681 10.7024 33.4638 11.9526 34.714C13.2029 35.9643 14.8986 36.6667 16.6667 36.6667H30C31.7681 36.6667 33.4638 35.9643 34.714 34.714C35.9643 33.4638 36.6667 31.7681 36.6667 30V16.6667C36.6667 14.8986 35.9643 13.2029 34.714 11.9526C33.4638 10.7024 31.7681 10 30 10ZM30 43.3333H16.6667C14.8986 43.3333 13.2029 44.0357 11.9526 45.286C10.7024 46.5362 10 48.2319 10 50V63.3333C10 65.1014 10.7024 66.7971 11.9526 68.0474C13.2029 69.2976 14.8986 70 16.6667 70H30C31.7681 70 33.4638 69.2976 34.714 68.0474C35.9643 66.7971 36.6667 65.1014 36.6667 63.3333V50C36.6667 48.2319 35.9643 46.5362 34.714 45.286C33.4638 44.0357 31.7681 43.3333 30 43.3333ZM63.3333 43.3333H50C48.2319 43.3333 46.5362 44.0357 45.286 45.286C44.0357 46.5362 43.3333 48.2319 43.3333 50V63.3333C43.3333 65.1014 44.0357 66.7971 45.286 68.0474C46.5362 69.2976 48.2319 70 50 70H63.3333C65.1014 70 66.7971 69.2976 68.0474 68.0474C69.2976 66.7971 70 65.1014 70 63.3333V50C70 48.2319 69.2976 46.5362 68.0474 45.286C66.7971 44.0357 65.1014 43.3333 63.3333 43.3333ZM56.6667 10C57.4831 10.0001 58.2711 10.2999 58.8812 10.8424C59.4914 11.3849 59.8811 12.1325 59.9767 12.9433L60 13.3333V20H66.6667C67.5163 20.0009 68.3334 20.3263 68.9512 20.9095C69.569 21.4927 69.9408 22.2898 69.9906 23.138C70.0404 23.9861 69.7644 24.8213 69.2191 25.4728C68.6738 26.1243 67.9003 26.543 67.0567 26.6433L66.6667 26.6667H60V33.3333C59.9991 34.1829 59.6737 35.0001 59.0905 35.6179C58.5073 36.2357 57.7102 36.6075 56.862 36.6572C56.0139 36.707 55.1787 36.4311 54.5272 35.8858C53.8757 35.3405 53.457 34.567 53.3567 33.7233L53.3333 33.3333V26.6667H46.6667C45.8171 26.6657 44.9999 26.3404 44.3821 25.7572C43.7643 25.1739 43.3925 24.3768 43.3428 23.5287C43.293 22.6805 43.5689 21.8454 44.1142 21.1939C44.6595 20.5424 45.433 20.1237 46.2767 20.0233L46.6667 20H53.3333V13.3333C53.3333 12.4493 53.6845 11.6014 54.3096 10.9763C54.9348 10.3512 55.7826 10 56.6667 10Z" fill="url(#paint0_linear_1858_47688)"/>
</g>
<defs>
<linearGradient id="paint0_linear_1858_47688" x1="40" y1="10" x2="40" y2="70" gradientUnits="userSpaceOnUse">
<stop stop-color="#FF2B9D"/>
<stop offset="1" stop-color="#FF9BBF"/>
</linearGradient>
<clipPath id="clip0_1858_47688">
<rect width="80" height="80" fill="white"/>
</clipPath>
</defs>
</svg>
