<svg width="80" height="80" viewBox="0 0 80 80" fill="none" xmlns="http://www.w3.org/2000/svg">
<g clip-path="url(#clip0_1858_47697)">
<path fill-rule="evenodd" clip-rule="evenodd" d="M37.66 7.31674C39.1687 6.75119 40.8313 6.75119 42.34 7.31674L65.6733 16.0667C66.9444 16.5432 68.0397 17.3963 68.8128 18.5119C69.586 19.6276 70.0002 20.9527 70 22.3101V40.1867C70.0001 45.7582 68.4488 51.2195 65.5198 55.9589C62.5908 60.6983 58.3999 64.5284 53.4167 67.0201L42.2367 72.6067C41.5422 72.9541 40.7765 73.1349 40 73.1349C39.2235 73.1349 38.4578 72.9541 37.7633 72.6067L26.5833 67.0167C21.6001 64.5251 17.4092 60.695 14.4802 55.9556C11.5512 51.2162 9.99988 45.7548 10 40.1834V22.3134C9.99915 20.9555 10.413 19.6296 11.1862 18.5133C11.9594 17.397 13.0551 16.5434 14.3267 16.0667L37.66 7.31674ZM43.3333 39.1067C44.6042 38.3729 45.5974 37.2403 46.159 35.8845C46.7205 34.5286 46.819 33.0254 46.4392 31.6079C46.0594 30.1904 45.2225 28.9379 44.0582 28.0445C42.894 27.1511 41.4675 26.6668 40 26.6667C38.5325 26.6668 37.106 27.1511 35.9418 28.0445C34.7775 28.9379 33.9406 30.1904 33.5608 31.6079C33.181 33.0254 33.2795 34.5286 33.841 35.8845C34.4026 37.2403 35.3958 38.3729 36.6667 39.1067V50.0001C36.6667 50.8841 37.0179 51.732 37.643 52.3571C38.2681 52.9822 39.1159 53.3334 40 53.3334C40.8841 53.3334 41.7319 52.9822 42.357 52.3571C42.9821 51.732 43.3333 50.8841 43.3333 50.0001V39.1067Z" fill="url(#paint0_linear_1858_47697)"/>
</g>
<defs>
<linearGradient id="paint0_linear_1858_47697" x1="40" y1="6.89258" x2="40" y2="73.1349" gradientUnits="userSpaceOnUse">
<stop stop-color="#FF2B9D"/>
<stop offset="1" stop-color="#FF9BBF"/>
</linearGradient>
<clipPath id="clip0_1858_47697">
<rect width="80" height="80" fill="white"/>
</clipPath>
</defs>
</svg>
