<svg width="32" height="32" viewBox="0 0 32 32" fill="none" xmlns="http://www.w3.org/2000/svg">
<circle cx="16" cy="16" r="16" fill="#EEF1F4"/>
<path d="M22.25 22.0454C22.25 22.1484 22.2 22.3258 21.939 22.5685C21.677 22.8123 21.257 23.0663 20.6751 23.2953C19.5159 23.7515 17.8633 24.05 16 24.05C14.1367 24.05 12.4841 23.7515 11.3249 23.2953C10.743 23.0663 10.323 22.8123 10.061 22.5685C9.80002 22.3258 9.75 22.1484 9.75 22.0454C9.75 21.1392 9.75 19.8526 9.75015 18.9129C9.75018 18.7701 9.86164 18.6635 9.99448 18.6635L22.0062 18.6635C22.1382 18.6635 22.25 18.7694 22.25 18.9135V22.0454Z" fill="#EEF1F4" stroke="#5B606D" stroke-width="1.5"/>
<path d="M22.25 18.4054C22.25 18.4335 22.2356 18.5657 21.9707 18.7858C21.7102 19.0022 21.2884 19.2306 20.7011 19.4369C19.5335 19.8472 17.8714 20.1149 16 20.1149C14.1286 20.1149 12.4665 19.8472 11.2989 19.4369C10.7116 19.2306 10.2898 19.0022 10.0293 18.7858C9.76438 18.5657 9.75 18.4335 9.75 18.4054C9.75 18.3773 9.76438 18.2451 10.0293 18.025C10.2898 17.8087 10.7116 17.5802 11.2989 17.3739C12.4665 16.9636 14.1286 16.696 16 16.696C17.8714 16.696 19.5335 16.9636 20.7011 17.3739C21.2884 17.5802 21.7102 17.8087 21.9707 18.025C22.2356 18.2451 22.25 18.3773 22.25 18.4054Z" fill="#EEF1F4" stroke="#5B606D" stroke-width="1.5" stroke-linejoin="round"/>
<path d="M22.25 18.186C22.25 18.2889 22.2 18.4663 21.939 18.7091C21.677 18.9528 21.257 19.2069 20.6751 19.4358C19.5159 19.892 17.8633 20.1905 16 20.1905C14.1367 20.1905 12.4841 19.892 11.3249 19.4358C10.743 19.2069 10.323 18.9528 10.061 18.7091C9.80002 18.4663 9.75 18.2889 9.75 18.186C9.75 17.2797 9.75 15.9932 9.75015 15.0535C9.75018 14.9106 9.86164 14.8041 9.99448 14.8041L22.0062 14.8041C22.1382 14.8041 22.25 14.9099 22.25 15.0541V18.186Z" fill="#EEF1F4" stroke="#5B606D" stroke-width="1.5"/>
<path d="M22.25 14.5459C22.25 14.574 22.2356 14.7063 21.9707 14.9264C21.7102 15.1427 21.2884 15.3711 20.7011 15.5775C19.5335 15.9877 17.8714 16.2554 16 16.2554C14.1286 16.2554 12.4665 15.9877 11.2989 15.5775C10.7116 15.3711 10.2898 15.1427 10.0293 14.9264C9.76438 14.7063 9.75 14.574 9.75 14.5459C9.75 14.5178 9.76438 14.3856 10.0293 14.1655C10.2898 13.9492 10.7116 13.7208 11.2989 13.5144C12.4665 13.1042 14.1286 12.8365 16 12.8365C17.8714 12.8365 19.5335 13.1042 20.7011 13.5144C21.2884 13.7208 21.7102 13.9492 21.9707 14.1655C22.2356 14.3856 22.25 14.5178 22.25 14.5459Z" fill="#EEF1F4" stroke="#5B606D" stroke-width="1.5" stroke-linejoin="round"/>
<path d="M22.25 14.0995C22.25 14.2024 22.2 14.3798 21.939 14.6226C21.677 14.8663 21.257 15.1204 20.6751 15.3494C19.5159 15.8055 17.8633 16.1041 16 16.1041C14.1367 16.1041 12.4841 15.8055 11.3249 15.3494C10.743 15.1204 10.323 14.8663 10.061 14.6226C9.80002 14.3798 9.75 14.2024 9.75 14.0995C9.75 13.1932 9.75 11.9067 9.75015 10.967C9.75018 10.8241 9.86164 10.7176 9.99448 10.7176L22.0062 10.7176C22.1382 10.7176 22.25 10.8234 22.25 10.9676V14.0995Z" fill="#EEF1F4" stroke="#5B606D" stroke-width="1.5"/>
<path d="M22.25 10.4595C22.25 10.4876 22.2356 10.6198 21.9707 10.8399C21.7102 11.0562 21.2884 11.2846 20.7011 11.491C19.5335 11.9012 17.8714 12.1689 16 12.1689C14.1286 12.1689 12.4665 11.9012 11.2989 11.491C10.7116 11.2846 10.2898 11.0562 10.0293 10.8399C9.76438 10.6198 9.75 10.4876 9.75 10.4595C9.75 10.4314 9.76438 10.2991 10.0293 10.079C10.2898 9.8627 10.7116 9.63429 11.2989 9.42795C12.4665 9.01769 14.1286 8.75 16 8.75C17.8714 8.75 19.5335 9.01769 20.7011 9.42795C21.2884 9.63429 21.7102 9.8627 21.9707 10.079C22.2356 10.2991 22.25 10.4314 22.25 10.4595Z" fill="#EEF1F4" stroke="#5B606D" stroke-width="1.5" stroke-linejoin="round"/>
</svg>
