<svg width="19" height="19" viewBox="0 0 19 19" fill="none" xmlns="http://www.w3.org/2000/svg">
<g opacity="0.9">
<rect x="1.375" y="1.375" width="16.25" height="16.25" rx="3.625" fill="#00A3FF"/>
<rect x="1.375" y="1.375" width="16.25" height="16.25" rx="3.625" stroke="white" stroke-width="1.25"/>
<path d="M10.2769 10.2599L9.7696 11.5878C9.75584 11.6247 9.75584 11.6649 9.7696 11.7018L10.6423 13.9867L11.6517 13.4303L10.4403 10.2599C10.4127 10.1868 10.3044 10.1868 10.2769 10.2599Z" fill="white"/>
<path d="M11.2943 8.02549C11.2667 7.95244 11.1584 7.95244 11.1309 8.02549L10.6236 9.35339C10.6098 9.39032 10.6098 9.43054 10.6236 9.46747L12.0535 13.2083L13.0629 12.6518L11.2943 8.02549Z" fill="white"/>
<path d="M9.5003 5.11866C9.52523 5.11866 9.55017 5.12522 9.57253 5.13671L13.4219 7.25824C13.4666 7.28287 13.4941 7.32882 13.4941 7.37725V11.6195C13.4941 11.6687 13.4666 11.7139 13.4219 11.7385L9.57253 13.86C9.55103 13.8723 9.52523 13.8781 9.5003 13.8781C9.47537 13.8781 9.45043 13.8715 9.42808 13.86L5.57868 11.7401C5.53397 11.7155 5.50646 11.6695 5.50646 11.6211V7.37807C5.50646 7.32882 5.53397 7.28369 5.57868 7.25906L9.42808 5.13753C9.45043 5.12522 9.47537 5.11866 9.5003 5.11866ZM9.5003 4.49902C9.36359 4.49902 9.22602 4.53267 9.10307 4.60079L5.25453 6.7215C5.00863 6.85692 4.8573 7.10723 4.8573 7.37807V11.6203C4.8573 11.8911 5.00863 12.1415 5.25453 12.2769L9.10393 14.3984C9.22688 14.4657 9.36359 14.5002 9.50116 14.5002C9.63787 14.5002 9.77544 14.4665 9.89839 14.3984L13.7478 12.2769C13.9937 12.1415 14.145 11.8911 14.145 11.6203V7.37807C14.145 7.10723 13.9937 6.85692 13.7478 6.7215L9.89753 4.60079C9.77458 4.53267 9.63701 4.49902 9.5003 4.49902Z" fill="white"/>
<path d="M9.17601 7.07373H8.20012C8.12703 7.07373 8.06169 7.11723 8.03675 7.18288L5.94482 12.657L6.95425 13.2134L9.25769 7.18535C9.27919 7.13118 9.23705 7.07373 9.17601 7.07373Z" fill="white"/>
<path d="M10.8838 7.07373H9.90789C9.8348 7.07373 9.76946 7.11723 9.74452 7.18288L7.35596 13.4334L8.36538 13.9898L10.9655 7.18535C10.9861 7.13118 10.944 7.07373 10.8838 7.07373Z" fill="white"/>
</g>
</svg>
