<svg width="19" height="19" viewBox="0 0 19 19" fill="none" xmlns="http://www.w3.org/2000/svg">
<rect x="1.375" y="1.375" width="16.25" height="16.25" rx="3.125" fill="#6B8AFF"/>
<path d="M9.17608 4.68152L6.42947 9.19753C6.32072 9.37616 6.38004 9.60781 6.56089 9.71384L9.30751 11.3227C9.42614 11.3924 9.57386 11.3924 9.69249 11.3227L12.4391 9.71384C12.62 9.60781 12.6793 9.37616 12.5705 9.19753L9.8245 4.68152C9.67737 4.43949 9.32321 4.43949 9.17608 4.68152Z" fill="#F9F9F9"/>
<path d="M11.8691 11.3815C11.8691 11.3745 11.868 11.3681 11.8674 11.3617C11.8662 11.3554 11.8651 11.349 11.8639 11.3426C11.8622 11.3351 11.8598 11.3281 11.8575 11.3206C11.8558 11.3148 11.854 11.3095 11.8511 11.3043C11.8476 11.2962 11.843 11.2881 11.8383 11.2805C11.836 11.2765 11.8337 11.2718 11.8308 11.2678C11.8226 11.2562 11.8139 11.2446 11.8035 11.2347C11.793 11.2249 11.782 11.2156 11.7703 11.2075C11.7663 11.2046 11.7622 11.2028 11.7575 11.1999C11.75 11.1953 11.7419 11.1907 11.7337 11.1872C11.7285 11.1849 11.7227 11.1831 11.7169 11.1808C11.7099 11.1785 11.7023 11.1762 11.6948 11.1744C11.6884 11.1727 11.682 11.1715 11.6756 11.1709C11.6692 11.1698 11.6628 11.1692 11.6558 11.1692C11.6483 11.1692 11.6413 11.1686 11.6337 11.1692C11.6285 11.1692 11.6233 11.1704 11.6175 11.1709C11.6093 11.1721 11.6012 11.1727 11.5931 11.1744C11.5907 11.1744 11.5884 11.1762 11.5861 11.1767C11.5611 11.1831 11.5373 11.193 11.5152 11.2075L9.70754 12.2728C9.57967 12.3482 9.42157 12.3482 9.2937 12.2728L7.48607 11.2075C7.46398 11.193 7.44015 11.1831 7.41515 11.1767C7.41283 11.1762 7.4105 11.175 7.40818 11.1744C7.40004 11.1727 7.39191 11.1721 7.38377 11.1709C7.37854 11.1704 7.37331 11.1698 7.36749 11.1692C7.35994 11.1692 7.35296 11.1692 7.34541 11.1692C7.33901 11.1692 7.33204 11.1704 7.32564 11.1709C7.31925 11.1721 7.31286 11.1733 7.30646 11.1744C7.29891 11.1762 7.29193 11.1785 7.28438 11.1808C7.27856 11.1825 7.27333 11.1849 7.26752 11.1872C7.25938 11.1907 7.25125 11.1953 7.24369 11.1999C7.23962 11.2023 7.23497 11.2046 7.2309 11.2075C7.21928 11.2156 7.20765 11.2243 7.19777 11.2347C7.18789 11.2452 7.17859 11.2562 7.17046 11.2678C7.16755 11.2718 7.16581 11.2759 7.1629 11.2805C7.15825 11.2887 7.1536 11.2962 7.15011 11.3043C7.14779 11.3095 7.14604 11.3153 7.14372 11.3206C7.14139 11.3281 7.13907 11.3351 7.13733 11.3426C7.13558 11.349 7.13442 11.3554 7.13384 11.3617C7.13268 11.3681 7.13209 11.3751 7.13209 11.3815C7.13209 11.3884 7.13151 11.3959 7.13209 11.4029C7.13209 11.4087 7.13326 11.4139 7.13384 11.4197C7.135 11.4278 7.13558 11.436 7.13733 11.4435C7.13791 11.447 7.13907 11.4499 7.14023 11.4528C7.14721 11.4795 7.15883 11.5044 7.17569 11.5276L9.16815 14.3291C9.33032 14.557 9.66976 14.557 9.83192 14.3291L11.8244 11.5276C11.8412 11.5044 11.8529 11.4795 11.8598 11.4528C11.8604 11.4499 11.8622 11.4464 11.8628 11.4435C11.8645 11.4354 11.8651 11.4278 11.8662 11.4197C11.8668 11.4139 11.8674 11.4087 11.868 11.4029C11.868 11.3959 11.868 11.3884 11.868 11.3815H11.8691Z" fill="#F9F9F9"/>
<rect x="1.375" y="1.375" width="16.25" height="16.25" rx="3.125" stroke="white" stroke-width="1.25"/>
</svg>
