<svg width="19" height="19" viewBox="0 0 19 19" fill="none" xmlns="http://www.w3.org/2000/svg">
<rect x="1.375" y="1.375" width="16.25" height="16.25" rx="3.125" fill="#FF0420"/>
<rect x="1.375" y="1.375" width="16.25" height="16.25" rx="3.125" stroke="white" stroke-width="1.25"/>
<path d="M6.50885 12.0001C5.96899 12.0001 5.52696 11.8705 5.18275 11.6115C4.84217 11.3487 4.67188 10.9712 4.67188 10.4863C4.67188 10.3827 4.68274 10.2606 4.70448 10.1125C4.76246 9.77946 4.84579 9.37975 4.95449 8.90972C5.26246 7.63657 6.05957 7 7.3422 7C7.69003 7 8.00525 7.05922 8.28062 7.18135C8.55598 7.29608 8.77337 7.47373 8.9328 7.71059C9.09222 7.94376 9.17193 8.22133 9.17193 8.54332C9.17193 8.63955 9.16106 8.76168 9.13932 8.90972C9.07048 9.32053 8.99077 9.72394 8.89294 10.1125C8.73352 10.7454 8.46178 11.2228 8.07047 11.5374C7.68278 11.8483 7.16104 12.0001 6.50885 12.0001ZM6.60668 11.0008C6.86031 11.0008 7.07408 10.9231 7.25162 10.7713C7.43278 10.6196 7.56322 10.3864 7.6393 10.0681C7.74438 9.63142 7.82409 9.25391 7.87844 8.92822C7.89655 8.832 7.90742 8.73207 7.90742 8.62844C7.90742 8.20653 7.69365 7.99557 7.26249 7.99557C7.00886 7.99557 6.79147 8.07329 6.6103 8.22503C6.43277 8.37677 6.30595 8.60994 6.22986 8.92822C6.14653 9.23911 6.06682 9.61661 5.98349 10.0681C5.96537 10.1607 5.9545 10.2569 5.9545 10.3605C5.95088 10.7898 6.17189 11.0008 6.60668 11.0008Z" fill="white"/>
<path d="M9.47964 12.0001C9.42485 12.0001 9.38572 11.9848 9.35442 11.9506C9.33094 11.9125 9.32311 11.8707 9.33094 11.8212L10.3445 7.17885C10.3523 7.12557 10.3797 7.08371 10.4266 7.04947C10.4697 7.01522 10.5166 7 10.5675 7H12.5202C13.0641 7 13.4985 7.11035 13.8272 7.32725C14.1598 7.54795 14.3281 7.86379 14.3281 8.27855C14.3281 8.39652 14.3124 8.52209 14.285 8.65147C14.1637 9.19942 13.9172 9.60277 13.5415 9.86533C13.1737 10.1279 12.6689 10.2573 12.0271 10.2573H11.0371L10.7005 11.8212C10.6888 11.8745 10.6653 11.9163 10.6184 11.9506C10.5753 11.9848 10.5284 12.0001 10.4775 12.0001H9.47964ZM12.078 9.27172C12.2854 9.27172 12.4615 9.21844 12.6141 9.10809C12.7706 8.99774 12.8724 8.84173 12.9232 8.63625C12.9389 8.55634 12.9467 8.48404 12.9467 8.42315C12.9467 8.28616 12.9037 8.17962 12.8215 8.10732C12.7393 8.03122 12.5945 7.99316 12.395 7.99316H11.5145L11.2367 9.27172H12.078Z" fill="white"/>
</svg>
