<svg width="32" height="32" viewBox="0 0 32 32" fill="none" xmlns="http://www.w3.org/2000/svg">
<rect width="32" height="32" rx="4" fill="#FF0420"/>
<path d="M8.82145 21.9998C7.52582 21.9998 6.46497 21.6889 5.6389 21.0671C4.82153 20.4365 4.41284 19.5305 4.41284 18.367C4.41284 18.1183 4.43893 17.8252 4.4911 17.4699C4.63023 16.6705 4.83022 15.7112 5.09109 14.5832C5.8302 11.5277 7.74321 10 10.8214 10C11.6562 10 12.4127 10.1421 13.0735 10.4352C13.7344 10.7106 14.2561 11.1369 14.6387 11.7054C15.0213 12.2649 15.2126 12.9311 15.2126 13.7038C15.2126 13.9348 15.1865 14.2279 15.1344 14.5832C14.9691 15.5691 14.7778 16.5372 14.5431 17.4699C14.1605 18.9887 13.5083 20.1345 12.5692 20.8895C11.6388 21.6356 10.3866 21.9998 8.82145 21.9998ZM9.05623 19.6016C9.66491 19.6016 10.1779 19.4151 10.604 19.0509C11.0388 18.6867 11.3518 18.1271 11.5344 17.3633C11.7866 16.3152 11.9779 15.4092 12.1083 14.6276C12.1518 14.3967 12.1779 14.1568 12.1779 13.9081C12.1779 12.8956 11.6649 12.3893 10.6301 12.3893C10.0214 12.3893 9.49969 12.5758 9.06492 12.94C8.63884 13.3042 8.3345 13.8637 8.1519 14.6276C7.9519 15.3737 7.7606 16.2797 7.5606 17.3633C7.51713 17.5853 7.49104 17.8163 7.49104 18.065C7.48234 19.0953 8.01277 19.6016 9.05623 19.6016Z" fill="white"/>
<path d="M15.9508 21.9998C15.8193 21.9998 15.7254 21.9632 15.6503 21.881C15.594 21.7897 15.5752 21.6893 15.594 21.5705L18.0263 10.4292C18.0451 10.3014 18.1108 10.2009 18.2235 10.1187C18.3268 10.0365 18.4395 10 18.5616 10H23.2479C24.5533 10 25.5957 10.2648 26.3846 10.7854C27.1828 11.315 27.5867 12.073 27.5867 13.0684C27.5867 13.3515 27.5491 13.6529 27.4834 13.9634C27.1922 15.2784 26.6006 16.2464 25.699 16.8766C24.8162 17.5067 23.6047 17.8172 22.0646 17.8172H19.6886L18.8809 21.5705C18.8527 21.6984 18.7964 21.7988 18.6837 21.881C18.5804 21.9632 18.4677 21.9998 18.3456 21.9998H15.9508ZM22.1867 15.4519C22.6844 15.4519 23.107 15.3241 23.4733 15.0593C23.8489 14.7944 24.0931 14.42 24.2152 13.9269C24.2528 13.7351 24.2715 13.5616 24.2715 13.4155C24.2715 13.0867 24.1682 12.831 23.971 12.6575C23.7738 12.4748 23.4263 12.3835 22.9474 12.3835H20.8343L20.1675 15.4519H22.1867Z" fill="white"/>
</svg>
