<svg width="11" height="11" viewBox="0 0 11 11" fill="none" xmlns="http://www.w3.org/2000/svg">
<g clip-path="url(#clip0_1295_26516)">
<path d="M1.93363 4.41254C1.57094 4.06291 1.31379 3.60959 1.31379 3.06977L1.31481 3.01245C1.34401 2.09434 2.08731 1.35547 2.98839 1.32629H8.73757C8.88868 1.33151 9.00907 1.44145 9.00907 1.59673V6.54369C9.14174 6.56818 9.20527 6.58485 9.33282 6.63175C9.4322 6.66874 9.57359 6.75003 9.57359 6.75003V1.59673C9.56488 1.12777 9.19963 0.75 8.73705 0.75H2.98839C1.74819 0.770842 0.749268 1.80098 0.749268 3.06925C0.749268 3.80551 1.07866 4.43287 1.61961 4.87525C1.65547 4.90495 1.69133 4.94299 1.78815 4.94299C1.95771 4.94246 2.07655 4.80751 2.06938 4.65692C2.06375 4.53343 2.01252 4.4881 1.93363 4.41254Z" fill="white"/>
<path d="M8.59087 6.87187H4.08087C3.77812 6.87447 3.53325 7.1251 3.53325 7.43357V8.09115C3.54196 8.39597 3.79707 8.65702 4.0988 8.65702H4.43382V8.09115H4.0988V7.44712H4.28168C4.85081 7.44712 5.26933 7.9859 5.26933 8.56115C5.26933 9.07075 4.81392 9.72364 4.04757 9.67101C3.36779 9.62464 3.00254 9.0103 3.00254 8.56115V2.97068C3.00254 2.71796 2.80122 2.51318 2.55277 2.51318H2.10352V3.08375H2.43803V8.56115C2.42112 9.67518 3.21872 10.2369 4.0486 10.2369L8.59087 10.2504C9.5068 10.2504 10.2491 9.49437 10.2491 8.56115C10.2491 7.62793 9.5068 6.87187 8.59087 6.87187ZM9.68354 8.59762C9.66458 9.1958 9.18254 9.67466 8.59087 9.67466L5.42967 9.66215C5.68222 9.36567 5.83436 8.98008 5.83436 8.56063C5.83436 7.90044 5.4476 7.4466 5.4476 7.4466H8.59087C9.19483 7.4466 9.68456 7.94525 9.68456 8.56063V8.5971L9.68354 8.59762Z" fill="white"/>
<path d="M3.97803 2.61621H7.41073C7.54751 2.61621 7.65816 2.72876 7.65816 2.86788V2.9351C7.65816 3.07422 7.54751 3.18677 7.41073 3.18677H3.97803V2.61621Z" fill="white"/>
<path d="M3.97815 5.30811H7.41085C7.54763 5.30811 7.65828 5.42065 7.65828 5.55978V5.627C7.65828 5.76612 7.54763 5.87867 7.41085 5.87867H3.97815V5.30811Z" fill="white"/>
<path d="M3.97803 3.96338H8.00855C8.14532 3.96338 8.25597 4.07593 8.25597 4.21505V4.28227C8.25597 4.42139 8.14532 4.53394 8.00855 4.53394H3.97803V3.96338Z" fill="white"/>
</g>
<defs>
<clipPath id="clip0_1295_26516">
<rect width="9.5" height="9.5" fill="white" transform="translate(0.75 0.75)"/>
</clipPath>
</defs>
</svg>
