<svg width="31" height="29" viewBox="0 0 31 29" fill="none" xmlns="http://www.w3.org/2000/svg">
<path d="M2.69531 16.1724L3.22152 16.2074C6.09876 16.3993 8.91875 15.3397 10.9578 13.3007L18.7346 5.52388C20.2967 3.96179 22.8293 3.96179 24.3914 5.52388L28.1684 9.30087C29.7305 10.863 29.7305 13.3956 28.1684 14.9577L17.653 25.4732C16.0909 27.0353 13.5582 27.0353 11.9961 25.4732L2.69531 16.1724Z" stroke="#5B606D" stroke-width="1.5" stroke-linejoin="round"/>
<path d="M3.11006 16.5869L2.82843 16.3052C1.26633 14.7431 1.26633 12.2105 2.82843 10.6484L10.5893 2.88755C12.1743 1.30252 14.7523 1.32923 16.3041 2.94677L16.6768 3.33526" stroke="#5B606D" stroke-width="1.5" stroke-linecap="round"/>
<path d="M5.39062 12.1292L11.4552 6.06454" stroke="#5B606D" stroke-width="1.5" stroke-linecap="round" stroke-linejoin="round"/>
<path d="M14.8242 13.4768L21.2258 7.07527" stroke="#5B606D" stroke-width="1.5" stroke-linecap="round" stroke-linejoin="round"/>
</svg>
