<svg width="80" height="80" viewBox="0 0 80 80" fill="none" xmlns="http://www.w3.org/2000/svg">
<circle cx="40" cy="40" r="40" fill="#F9F7FD"/>
<path d="M25.4483 31.1096L16.5801 48.9475C16.2275 49.6567 16.3266 50.5072 16.8329 51.1163L24.9129 60.8366C25.2856 61.2849 25.8354 61.5483 26.4183 61.5578L52.5633 61.9847C53.1568 61.9944 53.724 61.74 54.1114 61.2902L63.1657 50.7781C63.6744 50.1876 63.7936 49.3553 63.4712 48.6456L55.5328 31.1727C55.2083 30.4586 54.4963 30 53.7119 30H27.2392C26.48 30 25.7863 30.4298 25.4483 31.1096Z" fill="#EEE7FF"/>
<rect x="24" y="51" width="7" height="7" rx="3.5" fill="white"/>
<path d="M28.5 37L24 47.5H55.5L51 37H28.5Z" fill="#B5A8F7"/>
<path d="M15 48L24.4003 60.6905C24.7775 61.1997 25.3737 61.5 26.0075 61.5H53.3958C54.0831 61.5 54.7222 61.1472 55.0883 60.5656L63 48" stroke="black" stroke-width="1.5" stroke-linecap="round"/>
<path d="M57.577 31.4999L55.6018 27.1724C55.2759 26.4584 54.561 26 53.7734 26H24.2266C23.439 26 22.7241 26.4584 22.3982 27.1724L14.1823 45.1724C13.5779 46.4966 14.55 48 16.0107 48H19.4187M59.5853 35.8999L63.8177 45.1724C64.4221 46.4966 63.45 48 61.9893 48H26.4479" stroke="black" stroke-width="1.5" stroke-linecap="round" stroke-linejoin="round"/>
<path d="M66.4199 23.5482L62.8786 24.4515" stroke="black" stroke-width="1.5" stroke-linecap="round" stroke-linejoin="round"/>
<path d="M51.5801 16.9816L51.024 13.3694" stroke="black" stroke-width="1.5" stroke-linecap="round" stroke-linejoin="round"/>
<path d="M60.3486 15.5858L57.0396 20.5909" stroke="black" stroke-width="1.5" stroke-linecap="round" stroke-linejoin="round"/>
<path d="M23.5 48L28 36.5H50.5L55.5 48" stroke="black" stroke-width="1.5" stroke-linecap="round"/>
<path d="M24.5 28L28 36.5" stroke="black" stroke-width="1.5" stroke-linecap="round"/>
<path d="M51 34L53 28" stroke="black" stroke-width="1.5" stroke-linecap="round"/>
</svg>
