<svg width="24" height="24" viewBox="0 0 24 24" fill="none" xmlns="http://www.w3.org/2000/svg">
    <g opacity="0.3">
    <mask id="mask0_1604_5084" style="mask-type:luminance" maskUnits="userSpaceOnUse" x="4" y="4" width="16" height="16">
    <path fill-rule="evenodd" clip-rule="evenodd" d="M7.35452 6.034C8.92452 4.805 10.8385 4.25 12.2545 4.25C12.4534 4.25 12.6442 4.32902 12.7848 4.46967C12.9255 4.61032 13.0045 4.80109 13.0045 5C13.0045 5.19891 12.9255 5.38968 12.7848 5.53033C12.6442 5.67098 12.4534 5.75 12.2545 5.75C11.1705 5.75 9.58452 6.195 8.27952 7.216C7.00152 8.216 6.00452 9.756 6.00452 12C6.00452 15.986 9.56152 18.25 12.2545 18.25C14.6145 18.25 17.1665 16.894 18.0435 14.263C18.1118 14.0814 18.2478 13.9334 18.4229 13.8499C18.598 13.7665 18.7987 13.7541 18.9827 13.8155C19.1667 13.8768 19.3198 14.0071 19.4099 14.1789C19.4999 14.3507 19.5198 14.5508 19.4655 14.737C18.3425 18.107 15.1165 19.75 12.2545 19.75C8.94752 19.75 4.50452 17.014 4.50452 12C4.50452 9.243 5.75752 7.285 7.35452 6.034Z" fill="white"/>
    </mask>
    <g mask="url(#mask0_1604_5084)">
    <path d="M12.2545 2.75C10.5055 2.75 8.26652 3.416 6.43052 4.853L8.27952 7.216C9.58352 6.195 11.1705 5.75 12.2545 5.75V2.75ZM14.5045 5C14.5045 4.40326 14.2675 3.83097 13.8455 3.40901C13.4235 2.98705 12.8513 2.75 12.2545 2.75V5.75C12.0556 5.75 11.8648 5.67098 11.7242 5.53033C11.5835 5.38968 11.5045 5.19891 11.5045 5H14.5045ZM12.2545 7.25C12.8513 7.25 13.4235 7.01295 13.8455 6.59099C14.2675 6.16903 14.5045 5.59674 14.5045 5H11.5045C11.5045 4.80109 11.5835 4.61032 11.7242 4.46967C11.8648 4.32902 12.0556 4.25 12.2545 4.25V7.25ZM9.20452 8.397C10.2415 7.584 11.5025 7.25 12.2545 7.25V4.25C10.8385 4.25 8.92452 4.805 7.35452 6.034L9.20452 8.397ZM7.50452 12C7.50452 10.27 8.24652 9.146 9.20452 8.397L7.35452 6.034C5.75652 7.284 4.50452 9.244 4.50452 12H7.50452ZM12.2545 16.75C10.1845 16.75 7.50452 14.966 7.50452 12H4.50452C4.50452 17.007 8.93952 19.75 12.2545 19.75V16.75ZM16.6205 13.788C15.9885 15.684 14.1085 16.75 12.2545 16.75V19.75C15.1195 19.75 18.3445 18.105 19.4655 14.738L16.6205 13.788ZM19.4655 12.365C18.8995 12.1766 18.2819 12.2207 17.7484 12.4875C17.2149 12.7544 16.8092 13.2221 16.6205 13.788L19.4655 14.738C19.4023 14.9263 19.267 15.0818 19.0893 15.1705C18.9116 15.2592 18.706 15.2738 18.5175 15.211L19.4655 12.365ZM20.8885 15.211C21.0772 14.6449 21.0333 14.027 20.7664 13.4933C20.4996 12.9596 20.0316 12.5537 19.4655 12.365L18.5175 15.211C18.329 15.148 18.1733 15.0128 18.0844 14.8351C17.9955 14.6573 17.9808 14.4516 18.0435 14.263L20.8885 15.211ZM12.2545 21.25C15.6165 21.25 19.5195 19.32 20.8885 15.211L18.0435 14.263C17.1665 16.892 14.6165 18.25 12.2545 18.25V21.25ZM3.00452 12C3.00452 18.046 8.33952 21.25 12.2545 21.25V18.25C9.55552 18.25 6.00452 15.981 6.00452 12H3.00452ZM6.43052 4.853C4.51352 6.353 3.00452 8.73 3.00452 12H6.00452C6.00452 9.757 7.00152 8.216 8.27952 7.216L6.42952 4.853H6.43052Z" fill="black"/>
    </g>
    </g>
    </svg>