<svg width="126" height="28" viewBox="0 0 126 28" fill="none" xmlns="http://www.w3.org/2000/svg">
<path d="M10.2937 17.942H6.02944C5.63238 17.942 5.37436 17.576 5.55245 17.2653L9.16958 10.9547L12.7867 4.64417C13.2832 3.77801 14.6991 3.78736 15.1806 4.65999L22.4161 17.2693C22.5873 17.5796 22.3291 17.9398 21.9356 17.9398L17.5523 17.942C17.3323 17.942 17.1349 17.8239 17.055 17.6444L14.4859 12.3467C14.3111 11.9538 13.6782 11.9487 13.495 12.3386L10.7873 17.6525C10.705 17.8277 10.5101 17.942 10.2937 17.942Z" fill="black"/>
<path d="M2.54295 23.3395L4.21309 20.0284C4.29675 19.8558 4.49019 19.7437 4.70439 19.7437L23.2688 19.7482C23.478 19.7482 23.668 19.8553 23.7546 20.0221L25.4515 23.3395C25.6122 23.6488 25.3538 24 24.9657 24L3.03425 23.9891C2.65195 23.9891 2.39365 23.6476 2.54295 23.3395Z" fill="black"/>
<path d="M36.8417 20C35.8798 20 35.0434 19.8637 34.3327 19.5912C33.6273 19.3133 33.0741 18.9152 32.6733 18.3968C32.2779 17.8784 32.0561 17.2505 32.008 16.513C32.0037 16.4391 32.0624 16.3768 32.1365 16.3768H34.6597C34.7073 16.3768 34.7482 16.4103 34.7575 16.4569C34.8056 16.7027 34.9259 16.9192 35.1182 17.1062C35.316 17.2879 35.5645 17.4322 35.8637 17.5391C36.1683 17.6406 36.5104 17.6914 36.8898 17.6914C37.2799 17.6914 37.6139 17.6406 37.8918 17.5391C38.175 17.4322 38.3941 17.2879 38.5491 17.1062C38.7041 16.9245 38.7816 16.7134 38.7816 16.4729V16.4649C38.7816 16.1336 38.6399 15.8798 38.3567 15.7034C38.0735 15.5271 37.5925 15.3721 36.9138 15.2385L35.7275 15.014C34.5731 14.8003 33.6994 14.4128 33.1062 13.8517C32.5184 13.2906 32.2244 12.5665 32.2244 11.6794V11.6713C32.2244 10.9285 32.4222 10.2819 32.8176 9.73146C33.2131 9.18103 33.7555 8.75618 34.4449 8.45691C35.1396 8.1523 35.9279 8 36.8096 8C37.7769 8 38.5999 8.14429 39.2786 8.43287C39.9572 8.7161 40.481 9.11957 40.8497 9.64329C41.2184 10.1617 41.4215 10.7709 41.4589 11.4709C41.4633 11.5537 41.3973 11.6232 41.3144 11.6232H38.822C38.7719 11.6232 38.73 11.585 38.7255 11.5351C38.6934 11.2839 38.5945 11.0675 38.4289 10.8858C38.2632 10.7041 38.0441 10.5625 37.7715 10.4609C37.499 10.3594 37.1864 10.3086 36.8337 10.3086C36.4756 10.3086 36.171 10.3594 35.9198 10.4609C35.6687 10.5571 35.4763 10.6934 35.3427 10.8697C35.2144 11.0407 35.1503 11.2385 35.1503 11.4629V11.4709C35.1503 11.7862 35.2919 12.0347 35.5752 12.2164C35.8584 12.3928 36.31 12.5424 36.9299 12.6653L38.1162 12.8898C38.9392 13.0448 39.6152 13.2639 40.1443 13.5471C40.6733 13.8303 41.0661 14.191 41.3226 14.6293C41.5792 15.0621 41.7074 15.5885 41.7074 16.2084V16.2164C41.7074 16.986 41.515 17.654 41.1303 18.2204C40.7455 18.7869 40.1897 19.2251 39.4629 19.5351C38.7361 19.845 37.8624 20 36.8417 20Z" fill="black"/>
<path d="M46.7575 19.9519C45.6941 19.9519 44.9112 19.7462 44.4088 19.3347C43.9065 18.9178 43.6553 18.2204 43.6553 17.2425V13.6222C43.6553 13.3461 43.4315 13.1222 43.1553 13.1222H42.9609C42.6848 13.1222 42.4609 12.8984 42.4609 12.6222V11.5381C42.4609 11.2619 42.6848 11.0381 42.9609 11.0381H43.1553C43.4315 11.0381 43.6553 10.8142 43.6553 10.5381V9.51804C43.6553 9.24189 43.8792 9.01804 44.1553 9.01804H46.017C46.2932 9.01804 46.517 9.24189 46.517 9.51804V10.5381C46.517 10.8142 46.7409 11.0381 47.017 11.0381H47.5962C47.8723 11.0381 48.0962 11.2619 48.0962 11.5381V12.6222C48.0962 12.8984 47.8723 13.1222 47.5962 13.1222H47.017C46.7409 13.1222 46.517 13.3461 46.517 13.6222V16.8337C46.517 17.2077 46.5999 17.4723 46.7655 17.6273C46.9365 17.7822 47.1957 17.8597 47.5431 17.8597C47.666 17.8597 47.7675 17.857 47.8477 17.8517C47.9818 17.8349 48.0962 17.9422 48.0962 18.0773V19.4265C48.0962 19.6699 47.9209 19.8782 47.679 19.9049C47.6327 19.91 47.5847 19.915 47.5351 19.9198C47.316 19.9412 47.0568 19.9519 46.7575 19.9519Z" fill="black"/>
<path d="M51.9198 19.9118C51.3373 19.9118 50.8243 19.7969 50.3808 19.5671C49.9372 19.3373 49.5925 19.0247 49.3467 18.6293C49.1009 18.2285 48.978 17.7742 48.978 17.2665V17.2505C48.978 16.7054 49.1142 16.2405 49.3868 15.8557C49.6593 15.4709 50.0574 15.169 50.5812 14.9499C51.1049 14.7255 51.7435 14.5892 52.497 14.5411L55.4438 14.351C55.732 14.3324 55.976 14.5611 55.976 14.8499V15.4932C55.976 15.756 55.7725 15.9739 55.5104 15.992L52.9539 16.1683C52.5531 16.1951 52.2538 16.2859 52.0561 16.4409C51.8584 16.5959 51.7595 16.8043 51.7595 17.0661V17.0741C51.7595 17.3467 51.8637 17.5578 52.0721 17.7074C52.2859 17.857 52.5691 17.9319 52.9218 17.9319C53.2211 17.9319 53.4883 17.8784 53.7234 17.7715C53.9586 17.6593 54.143 17.507 54.2766 17.3146C54.4102 17.1169 54.477 16.8951 54.477 16.6493V13.9559C54.477 13.6406 54.3754 13.3921 54.1723 13.2104C53.9693 13.0287 53.6727 12.9379 53.2826 12.9379C52.8978 12.9379 52.5959 13.0127 52.3768 13.1623C52.1576 13.312 52.0214 13.499 51.9679 13.7234C51.9586 13.7701 51.9177 13.8036 51.8702 13.8036H49.4913C49.4349 13.8036 49.3905 13.7556 49.3948 13.6994C49.4429 13.1329 49.6299 12.6359 49.9559 12.2084C50.2872 11.7809 50.7442 11.4469 51.3267 11.2064C51.9145 10.9659 52.6146 10.8457 53.4269 10.8457C54.2124 10.8457 54.8965 10.9713 55.479 11.2224C56.0615 11.4683 56.513 11.813 56.8337 12.2565C57.1543 12.7001 57.3146 13.2184 57.3146 13.8116V19.2836C57.3146 19.5597 57.0908 19.7836 56.8146 19.7836H54.977C54.7008 19.7836 54.477 19.5597 54.477 19.2836V18.5976C54.477 18.5753 54.4588 18.5571 54.4364 18.5571C54.4218 18.5571 54.4084 18.565 54.4011 18.5776C54.2426 18.8521 54.0435 19.0884 53.8036 19.2866C53.5578 19.4896 53.2772 19.6446 52.9619 19.7515C52.6466 19.8584 52.2993 19.9118 51.9198 19.9118Z" fill="black"/>
<path d="M64.3607 19.9599C63.9439 19.9599 63.5618 19.8958 63.2144 19.7675C62.8671 19.6339 62.5651 19.4442 62.3086 19.1984C62.064 18.9538 61.8727 18.6662 61.7345 18.3355C61.7277 18.3193 61.712 18.3086 61.6944 18.3086C61.6706 18.3086 61.6513 18.3279 61.6513 18.3517V19.2836C61.6513 19.5597 61.4274 19.7836 61.1513 19.7836H59.3056C59.0295 19.7836 58.8056 19.5597 58.8056 19.2836V8.65231C58.8056 8.37616 59.0295 8.1523 59.3056 8.1523H61.1513C61.4274 8.1523 61.6513 8.37616 61.6513 8.6523V12.5342C61.6513 12.5579 61.6705 12.5772 61.6943 12.5772C61.7119 12.5772 61.7277 12.5664 61.7343 12.5501C61.8776 12.1983 62.0717 11.8974 62.3166 11.6473C62.5731 11.3908 62.8724 11.1957 63.2144 11.0621C63.5618 10.9232 63.9412 10.8537 64.3527 10.8537C65.0902 10.8537 65.7181 11.0327 66.2365 11.3908C66.7548 11.7435 67.153 12.2592 67.4309 12.9379C67.7088 13.6166 67.8477 14.4369 67.8477 15.3988V15.4068C67.8477 16.3687 67.7088 17.189 67.4309 17.8677C67.153 18.5464 66.7522 19.0648 66.2285 19.4228C65.7101 19.7809 65.0875 19.9599 64.3607 19.9599ZM63.3106 17.6513C63.6473 17.6513 63.9385 17.5605 64.1844 17.3788C64.4302 17.1971 64.6199 16.9405 64.7535 16.6092C64.8871 16.2725 64.9539 15.8717 64.9539 15.4068V15.3988C64.9539 14.9339 64.8871 14.5357 64.7535 14.2044C64.6199 13.8731 64.4275 13.6192 64.1764 13.4429C63.9305 13.2612 63.642 13.1703 63.3106 13.1703C62.9793 13.1703 62.688 13.2612 62.4369 13.4429C62.191 13.6192 61.9987 13.8758 61.8597 14.2124C61.7208 14.5438 61.6513 14.9419 61.6513 15.4068V15.4148C61.6513 15.8744 61.7208 16.2725 61.8597 16.6092C61.9987 16.9459 62.191 17.2051 62.4369 17.3868C62.688 17.5631 62.9793 17.6513 63.3106 17.6513Z" fill="black"/>
<path d="M69.5661 19.7836C69.29 19.7836 69.0661 19.5597 69.0661 19.2836V8.65231C69.0661 8.37616 69.29 8.1523 69.5661 8.1523H71.4118C71.688 8.1523 71.9118 8.37616 71.9118 8.6523V19.2836C71.9118 19.5597 71.688 19.7836 71.4118 19.7836H69.5661Z" fill="black"/>
<path d="M77.5711 19.9679C76.652 19.9679 75.8584 19.7862 75.1904 19.4228C74.5277 19.0541 74.0174 18.5304 73.6593 17.8517C73.3066 17.1677 73.1303 16.3554 73.1303 15.4148V15.4068C73.1303 14.4663 73.3066 13.6566 73.6593 12.978C74.0174 12.2939 74.5197 11.7675 75.1663 11.3988C75.8183 11.0301 76.5852 10.8457 77.4669 10.8457C78.354 10.8457 79.1209 11.0274 79.7675 11.3908C80.4142 11.7542 80.9138 12.2645 81.2665 12.9218C81.6192 13.5738 81.7956 14.3434 81.7956 15.2305V15.5641C81.7956 15.8403 81.5717 16.0641 81.2956 16.0641H75.0251C74.7489 16.0641 74.5251 15.8403 74.5251 15.5641V14.8808C74.5251 14.6046 74.7489 14.3808 75.0251 14.3808H79.5632C79.9206 14.3808 80.1154 14.798 79.886 15.072L79.8474 15.118C79.608 15.4038 79.1423 15.2346 79.1423 14.8617C79.1423 14.4342 79.0755 14.0735 78.9419 13.7796C78.8083 13.4803 78.6212 13.2558 78.3808 13.1062C78.1403 12.9512 77.8597 12.8737 77.5391 12.8737C77.2184 12.8737 76.9352 12.9512 76.6894 13.1062C76.4489 13.2612 76.2592 13.4883 76.1202 13.7876C75.9866 14.0815 75.9198 14.4395 75.9198 14.8617V15.976C75.9198 16.3874 75.9866 16.7401 76.1202 17.0341C76.2592 17.328 76.4542 17.5551 76.7054 17.7154C76.9619 17.8704 77.2692 17.9479 77.6273 17.9479C77.9319 17.9479 78.191 17.8998 78.4048 17.8036C78.6186 17.7074 78.7869 17.5925 78.9098 17.4589C79.0381 17.32 79.1236 17.1917 79.1663 17.0741C79.171 17.0553 79.188 17.042 79.2074 17.042L81.634 17.0344C81.6894 17.0342 81.7319 17.0835 81.7234 17.1383C81.654 17.4322 81.5284 17.7448 81.3467 18.0762C81.1703 18.4021 80.9192 18.7094 80.5932 18.998C80.2672 19.2866 79.8557 19.5217 79.3587 19.7034C78.8671 19.8798 78.2712 19.9679 77.5711 19.9679Z" fill="black"/>
<path d="M84.4088 19.9439C83.9813 19.9439 83.6206 19.7996 83.3267 19.511C83.0381 19.2171 82.8938 18.8564 82.8938 18.4289C82.8938 18.0067 83.0381 17.6513 83.3267 17.3627C83.6206 17.0688 83.9813 16.9218 84.4088 16.9218C84.8363 16.9218 85.1944 17.0688 85.483 17.3627C85.7769 17.6513 85.9238 18.0067 85.9238 18.4289C85.9238 18.8564 85.7769 19.2171 85.483 19.511C85.1944 19.7996 84.8363 19.9439 84.4088 19.9439Z" fill="black"/>
<path d="M92.1202 20C90.9659 20 89.9666 19.7622 89.1222 19.2866C88.2832 18.8056 87.6339 18.1189 87.1743 17.2265C86.7201 16.334 86.493 15.2572 86.493 13.996V13.988C86.493 12.7321 86.7201 11.658 87.1743 10.7655C87.6339 9.87308 88.2832 9.18904 89.1222 8.71343C89.9666 8.23781 90.9659 8 92.1202 8C93.1249 8 94.012 8.19773 94.7816 8.59319C95.5511 8.98864 96.1603 9.52572 96.6092 10.2044C97.0581 10.8831 97.3013 11.6553 97.3387 12.521C97.3387 12.5653 97.3028 12.6012 97.2585 12.6012H94.6064C94.5458 12.6012 94.4942 12.5569 94.485 12.497C94.4262 12.0908 94.2953 11.7355 94.0922 11.4309C93.8891 11.1209 93.6219 10.8778 93.2906 10.7014C92.9593 10.5251 92.5691 10.4369 92.1202 10.4369C91.5858 10.4369 91.1209 10.5785 90.7255 10.8617C90.3353 11.145 90.0334 11.5511 89.8196 12.0802C89.6059 12.6092 89.499 13.2425 89.499 13.98V13.988C89.499 14.7308 89.6059 15.3721 89.8196 15.9118C90.0334 16.4462 90.338 16.855 90.7335 17.1383C91.1289 17.4215 91.5939 17.5631 92.1283 17.5631C92.5504 17.5631 92.9272 17.4803 93.2585 17.3146C93.5952 17.1436 93.8704 16.9031 94.0842 16.5932C94.2979 16.2832 94.4369 15.9145 94.501 15.487C94.5103 15.4359 94.5548 15.3988 94.6067 15.3988H97.2662C97.3137 15.3988 97.351 15.4396 97.3467 15.487C97.3093 16.3527 97.0635 17.1249 96.6092 17.8036C96.1603 18.4823 95.5511 19.0194 94.7816 19.4148C94.012 19.8049 93.1249 20 92.1202 20Z" fill="black"/>
<path d="M101.154 19.9118C100.572 19.9118 100.059 19.7969 99.6152 19.5671C99.1717 19.3373 98.827 19.0247 98.5812 18.6293C98.3353 18.2285 98.2124 17.7742 98.2124 17.2665V17.2505C98.2124 16.7054 98.3487 16.2405 98.6212 15.8557C98.8938 15.4709 99.2919 15.169 99.8156 14.9499C100.339 14.7255 100.978 14.5892 101.731 14.5411L104.678 14.351C104.966 14.3324 105.21 14.5611 105.21 14.8499V15.4932C105.21 15.756 105.007 15.9739 104.745 15.992L102.188 16.1683C101.788 16.1951 101.488 16.2859 101.291 16.4409C101.093 16.5959 100.994 16.8043 100.994 17.0661V17.0741C100.994 17.3467 101.098 17.5578 101.307 17.7074C101.52 17.857 101.804 17.9319 102.156 17.9319C102.456 17.9319 102.723 17.8784 102.958 17.7715C103.193 17.6593 103.377 17.507 103.511 17.3146C103.645 17.1169 103.711 16.8951 103.711 16.6493V13.9559C103.711 13.6406 103.61 13.3921 103.407 13.2104C103.204 13.0287 102.907 12.9379 102.517 12.9379C102.132 12.9379 101.83 13.0127 101.611 13.1623C101.392 13.312 101.256 13.499 101.202 13.7234C101.193 13.7701 101.152 13.8036 101.105 13.8036H98.7258C98.6694 13.8036 98.6249 13.7556 98.6293 13.6994C98.6774 13.1329 98.8644 12.6359 99.1904 12.2084C99.5217 11.7809 99.9786 11.4469 100.561 11.2064C101.149 10.9659 101.849 10.8457 102.661 10.8457C103.447 10.8457 104.131 10.9713 104.713 11.2224C105.296 11.4683 105.747 11.813 106.068 12.2565C106.389 12.7001 106.549 13.2184 106.549 13.8116V19.2836C106.549 19.5597 106.325 19.7836 106.049 19.7836H104.211C103.935 19.7836 103.711 19.5597 103.711 19.2836V18.5976C103.711 18.5753 103.693 18.5571 103.671 18.5571C103.656 18.5571 103.643 18.565 103.636 18.5776C103.477 18.8521 103.278 19.0884 103.038 19.2866C102.792 19.4896 102.512 19.6446 102.196 19.7515C101.881 19.8584 101.534 19.9118 101.154 19.9118Z" fill="black"/>
<path d="M111.824 19.9679C110.958 19.9679 110.226 19.8504 109.627 19.6152C109.029 19.3747 108.564 19.0434 108.232 18.6212C107.901 18.1937 107.703 17.6967 107.639 17.1303C107.635 17.0962 107.662 17.0661 107.696 17.0661H110.323C110.362 17.0661 110.395 17.0926 110.405 17.1303C110.474 17.4188 110.624 17.646 110.854 17.8116C111.089 17.9719 111.415 18.0521 111.832 18.0521C112.083 18.0521 112.297 18.0227 112.473 17.9639C112.655 17.9051 112.794 17.8223 112.89 17.7154C112.991 17.6032 113.042 17.4723 113.042 17.3226V17.3146C113.042 17.1222 112.962 16.9673 112.802 16.8497C112.647 16.7268 112.371 16.6253 111.976 16.5451L110.445 16.2405C109.873 16.1283 109.392 15.9572 109.002 15.7275C108.617 15.4977 108.326 15.2118 108.128 14.8697C107.936 14.5224 107.84 14.1269 107.84 13.6834V13.6754C107.84 13.0929 107.997 12.5905 108.313 12.1683C108.628 11.7462 109.077 11.4202 109.659 11.1904C110.242 10.9606 110.931 10.8457 111.727 10.8457C112.572 10.8457 113.28 10.9766 113.852 11.2385C114.429 11.495 114.864 11.8397 115.158 12.2725C115.458 12.7001 115.613 13.173 115.623 13.6914C115.623 13.7268 115.595 13.7555 115.559 13.7555H113.091C113.054 13.7555 113.023 13.728 113.018 13.6914C112.986 13.4402 112.86 13.2238 112.641 13.0421C112.422 12.8604 112.118 12.7695 111.727 12.7695C111.498 12.7695 111.295 12.7989 111.118 12.8577C110.947 12.9165 110.814 13.002 110.717 13.1142C110.627 13.2265 110.581 13.3601 110.581 13.515V13.523C110.581 13.646 110.613 13.7555 110.677 13.8517C110.741 13.9479 110.854 14.0334 111.014 14.1082C111.174 14.1777 111.393 14.2418 111.671 14.3006L113.21 14.5972C114.14 14.7842 114.816 15.0701 115.238 15.4549C115.661 15.8343 115.872 16.35 115.872 17.002V17.01C115.872 17.6139 115.701 18.1376 115.359 18.5812C115.017 19.0247 114.541 19.3667 113.932 19.6072C113.328 19.8477 112.625 19.9679 111.824 19.9679Z" fill="black"/>
<path d="M117.502 19.7836C117.226 19.7836 117.002 19.5597 117.002 19.2836V8.65231C117.002 8.37616 117.226 8.1523 117.502 8.1523H119.348C119.624 8.1523 119.848 8.37616 119.848 8.6523V12.5505C119.848 12.5741 119.867 12.5932 119.89 12.5932C119.908 12.5932 119.924 12.5822 119.93 12.5657C120.144 12.018 120.47 11.597 120.906 11.3026C121.355 10.998 121.908 10.8457 122.565 10.8457C123.206 10.8457 123.752 10.982 124.2 11.2545C124.649 11.5217 124.991 11.9065 125.226 12.4088C125.467 12.9112 125.587 13.5124 125.587 14.2124V19.2836C125.587 19.5597 125.363 19.7836 125.087 19.7836H123.241C122.965 19.7836 122.741 19.5597 122.741 19.2836V14.8297C122.741 14.3113 122.619 13.9051 122.373 13.6112C122.132 13.312 121.78 13.1623 121.315 13.1623C121.015 13.1623 120.756 13.2345 120.537 13.3788C120.318 13.5177 120.147 13.7128 120.024 13.9639C119.906 14.2098 119.848 14.4957 119.848 14.8216V19.2836C119.848 19.5597 119.624 19.7836 119.348 19.7836H117.502Z" fill="black"/>
</svg>
